M48
; DRILL file {KiCad 9.0.4} date 2025-09-13T17:29:30-0400
; FORMAT={-:-/ absolute / metric / decimal}
; #@! TF.CreationDate,2025-09-13T17:29:30-04:00
; #@! TF.GenerationSoftware,Kicad,Pcbnew,9.0.4
; #@! TF.FileFunction,Plated,1,2,PTH
FMAT,2
METRIC
; #@! TA.AperFunction,Plated,PTH,ViaDrill
T1C0.300
; #@! TA.AperFunction,Plated,PTH,ViaDrill
T2C0.400
; #@! TA.AperFunction,Plated,PTH,ComponentDrill
T3C0.800
; #@! TA.AperFunction,Plated,PTH,ComponentDrill
T4C1.000
; #@! TA.AperFunction,Plated,PTH,ComponentDrill
T5C1.100
; #@! TA.AperFunction,Plated,PTH,ComponentDrill
T6C1.300
; #@! TA.AperFunction,Plated,PTH,ComponentDrill
T7C3.200
%
G90
G05
T1
X140.97Y-97.79
X143.51Y-86.36
X148.59Y-87.63
T2
X148.59Y-96.52
T3
X140.335Y-80.01
X140.97Y-83.82
X140.97Y-91.44
X141.605Y-99.06
X141.605Y-111.76
X143.51Y-83.82
X143.51Y-91.44
X146.05Y-83.82
X146.05Y-91.44
X148.59Y-83.82
X148.59Y-91.44
X150.335Y-80.01
X154.94Y-114.935
X157.48Y-114.935
X157.48Y-121.92
X157.48Y-124.42
X160.02Y-114.935
T4
X132.08Y-83.82
X132.08Y-86.36
X132.08Y-88.9
X132.08Y-91.44
X132.08Y-93.98
X132.08Y-96.52
X132.08Y-99.06
X132.08Y-101.6
X132.08Y-104.14
X132.08Y-106.68
X134.62Y-83.82
X134.62Y-86.36
X134.62Y-88.9
X134.62Y-91.44
X134.62Y-93.98
X134.62Y-96.52
X134.62Y-99.06
X134.62Y-101.6
X134.62Y-104.14
X134.62Y-106.68
X144.78Y-114.95
X144.78Y-126.95
X156.21Y-83.82
X156.21Y-86.36
X156.21Y-88.9
X156.21Y-91.44
X156.21Y-93.98
X156.21Y-96.52
X156.21Y-99.06
X156.21Y-101.6
X156.21Y-104.14
X156.21Y-106.68
X158.75Y-83.82
X158.75Y-86.36
X158.75Y-88.9
X158.75Y-91.44
X158.75Y-93.98
X158.75Y-96.52
X158.75Y-99.06
X158.75Y-101.6
X158.75Y-104.14
X158.75Y-106.68
T5
X151.13Y-116.84
X151.13Y-127.0
T6
X132.53Y-127.0
X132.58Y-114.95
X146.73Y-121.0
T7
X148.0Y-105.0
M30
