%TF.GenerationSoftware,KiCad,Pcbnew,9.0.4*%
%TF.CreationDate,2025-09-13T17:29:30-04:00*%
%TF.ProjectId,AppleII-Disk-Clacker,4170706c-6549-4492-9d44-69736b2d436c,A*%
%TF.SameCoordinates,Original*%
%TF.FileFunction,Drillmap*%
%TF.FilePolarity,Positive*%
%FSLAX45Y45*%
G04 Gerber Fmt 4.5, Leading zero omitted, Abs format (unit mm)*
G04 Created by KiCad (PCBNEW 9.0.4) date 2025-09-13 17:29:30*
%MOMM*%
%LPD*%
G01*
G04 APERTURE LIST*
%ADD10C,0.200000*%
G04 APERTURE END LIST*
D10*
X16300000Y-12850000D02*
X16200000Y-12950000D01*
X12800000Y-12950000D02*
X12700000Y-12850000D01*
X12800000Y-7750000D02*
X16200000Y-7750000D01*
X16200000Y-7750000D02*
X16300000Y-7850000D01*
X12700000Y-7850000D02*
X12800000Y-7750000D01*
X16200000Y-12950000D02*
X12800000Y-12950000D01*
X12700000Y-12850000D02*
X12700000Y-7850000D01*
X16300000Y-7850000D02*
X16300000Y-12850000D01*
X12950777Y-13271484D02*
X12950777Y-13071484D01*
X12950777Y-13071484D02*
X12998396Y-13071484D01*
X12998396Y-13071484D02*
X13026967Y-13081008D01*
X13026967Y-13081008D02*
X13046015Y-13100055D01*
X13046015Y-13100055D02*
X13055539Y-13119103D01*
X13055539Y-13119103D02*
X13065062Y-13157198D01*
X13065062Y-13157198D02*
X13065062Y-13185769D01*
X13065062Y-13185769D02*
X13055539Y-13223865D01*
X13055539Y-13223865D02*
X13046015Y-13242912D01*
X13046015Y-13242912D02*
X13026967Y-13261960D01*
X13026967Y-13261960D02*
X12998396Y-13271484D01*
X12998396Y-13271484D02*
X12950777Y-13271484D01*
X13150777Y-13271484D02*
X13150777Y-13138150D01*
X13150777Y-13176246D02*
X13160301Y-13157198D01*
X13160301Y-13157198D02*
X13169824Y-13147674D01*
X13169824Y-13147674D02*
X13188872Y-13138150D01*
X13188872Y-13138150D02*
X13207920Y-13138150D01*
X13274586Y-13271484D02*
X13274586Y-13138150D01*
X13274586Y-13071484D02*
X13265062Y-13081008D01*
X13265062Y-13081008D02*
X13274586Y-13090531D01*
X13274586Y-13090531D02*
X13284110Y-13081008D01*
X13284110Y-13081008D02*
X13274586Y-13071484D01*
X13274586Y-13071484D02*
X13274586Y-13090531D01*
X13398396Y-13271484D02*
X13379348Y-13261960D01*
X13379348Y-13261960D02*
X13369824Y-13242912D01*
X13369824Y-13242912D02*
X13369824Y-13071484D01*
X13503158Y-13271484D02*
X13484110Y-13261960D01*
X13484110Y-13261960D02*
X13474586Y-13242912D01*
X13474586Y-13242912D02*
X13474586Y-13071484D01*
X13731729Y-13271484D02*
X13731729Y-13071484D01*
X13731729Y-13071484D02*
X13798396Y-13214341D01*
X13798396Y-13214341D02*
X13865062Y-13071484D01*
X13865062Y-13071484D02*
X13865062Y-13271484D01*
X14046015Y-13271484D02*
X14046015Y-13166722D01*
X14046015Y-13166722D02*
X14036491Y-13147674D01*
X14036491Y-13147674D02*
X14017443Y-13138150D01*
X14017443Y-13138150D02*
X13979348Y-13138150D01*
X13979348Y-13138150D02*
X13960301Y-13147674D01*
X14046015Y-13261960D02*
X14026967Y-13271484D01*
X14026967Y-13271484D02*
X13979348Y-13271484D01*
X13979348Y-13271484D02*
X13960301Y-13261960D01*
X13960301Y-13261960D02*
X13950777Y-13242912D01*
X13950777Y-13242912D02*
X13950777Y-13223865D01*
X13950777Y-13223865D02*
X13960301Y-13204817D01*
X13960301Y-13204817D02*
X13979348Y-13195293D01*
X13979348Y-13195293D02*
X14026967Y-13195293D01*
X14026967Y-13195293D02*
X14046015Y-13185769D01*
X14141253Y-13138150D02*
X14141253Y-13338150D01*
X14141253Y-13147674D02*
X14160301Y-13138150D01*
X14160301Y-13138150D02*
X14198396Y-13138150D01*
X14198396Y-13138150D02*
X14217443Y-13147674D01*
X14217443Y-13147674D02*
X14226967Y-13157198D01*
X14226967Y-13157198D02*
X14236491Y-13176246D01*
X14236491Y-13176246D02*
X14236491Y-13233388D01*
X14236491Y-13233388D02*
X14226967Y-13252436D01*
X14226967Y-13252436D02*
X14217443Y-13261960D01*
X14217443Y-13261960D02*
X14198396Y-13271484D01*
X14198396Y-13271484D02*
X14160301Y-13271484D01*
X14160301Y-13271484D02*
X14141253Y-13261960D01*
X14322205Y-13252436D02*
X14331729Y-13261960D01*
X14331729Y-13261960D02*
X14322205Y-13271484D01*
X14322205Y-13271484D02*
X14312682Y-13261960D01*
X14312682Y-13261960D02*
X14322205Y-13252436D01*
X14322205Y-13252436D02*
X14322205Y-13271484D01*
X14322205Y-13147674D02*
X14331729Y-13157198D01*
X14331729Y-13157198D02*
X14322205Y-13166722D01*
X14322205Y-13166722D02*
X14312682Y-13157198D01*
X14312682Y-13157198D02*
X14322205Y-13147674D01*
X14322205Y-13147674D02*
X14322205Y-13166722D01*
M02*
