%TF.GenerationSoftware,KiCad,Pcbnew,9.0.4*%
%TF.CreationDate,2025-09-13T17:29:18-04:00*%
%TF.ProjectId,AppleII-Disk-Clacker,4170706c-6549-4492-9d44-69736b2d436c,A*%
%TF.SameCoordinates,Original*%
%TF.FileFunction,Soldermask,Bot*%
%TF.FilePolarity,Negative*%
%FSLAX46Y46*%
G04 Gerber Fmt 4.6, Leading zero omitted, Abs format (unit mm)*
G04 Created by KiCad (PCBNEW 9.0.4) date 2025-09-13 17:29:18*
%MOMM*%
%LPD*%
G01*
G04 APERTURE LIST*
G04 Aperture macros list*
%AMRoundRect*
0 Rectangle with rounded corners*
0 $1 Rounding radius*
0 $2 $3 $4 $5 $6 $7 $8 $9 X,Y pos of 4 corners*
0 Add a 4 corners polygon primitive as box body*
4,1,4,$2,$3,$4,$5,$6,$7,$8,$9,$2,$3,0*
0 Add four circle primitives for the rounded corners*
1,1,$1+$1,$2,$3*
1,1,$1+$1,$4,$5*
1,1,$1+$1,$6,$7*
1,1,$1+$1,$8,$9*
0 Add four rect primitives between the rounded corners*
20,1,$1+$1,$2,$3,$4,$5,0*
20,1,$1+$1,$4,$5,$6,$7,0*
20,1,$1+$1,$6,$7,$8,$9,0*
20,1,$1+$1,$8,$9,$2,$3,0*%
%AMFreePoly0*
4,1,23,0.500000,-0.750000,0.000000,-0.750000,0.000000,-0.745722,-0.065263,-0.745722,-0.191342,-0.711940,-0.304381,-0.646677,-0.396677,-0.554381,-0.461940,-0.441342,-0.495722,-0.315263,-0.495722,-0.250000,-0.500000,-0.250000,-0.500000,0.250000,-0.495722,0.250000,-0.495722,0.315263,-0.461940,0.441342,-0.396677,0.554381,-0.304381,0.646677,-0.191342,0.711940,-0.065263,0.745722,0.000000,0.745722,
0.000000,0.750000,0.500000,0.750000,0.500000,-0.750000,0.500000,-0.750000,$1*%
%AMFreePoly1*
4,1,23,0.000000,0.745722,0.065263,0.745722,0.191342,0.711940,0.304381,0.646677,0.396677,0.554381,0.461940,0.441342,0.495722,0.315263,0.495722,0.250000,0.500000,0.250000,0.500000,-0.250000,0.495722,-0.250000,0.495722,-0.315263,0.461940,-0.441342,0.396677,-0.554381,0.304381,-0.646677,0.191342,-0.711940,0.065263,-0.745722,0.000000,-0.745722,0.000000,-0.750000,-0.500000,-0.750000,
-0.500000,0.750000,0.000000,0.750000,0.000000,0.745722,0.000000,0.745722,$1*%
G04 Aperture macros list end*
%ADD10RoundRect,0.250000X-0.550000X0.550000X-0.550000X-0.550000X0.550000X-0.550000X0.550000X0.550000X0*%
%ADD11C,1.600000*%
%ADD12C,3.000000*%
%ADD13C,2.500000*%
%ADD14RoundRect,0.249999X0.850001X-0.850001X0.850001X0.850001X-0.850001X0.850001X-0.850001X-0.850001X0*%
%ADD15C,2.200000*%
%ADD16C,6.400000*%
%ADD17RoundRect,0.250000X-0.600000X-0.600000X0.600000X-0.600000X0.600000X0.600000X-0.600000X0.600000X0*%
%ADD18C,1.700000*%
%ADD19RoundRect,0.250000X0.550000X-0.550000X0.550000X0.550000X-0.550000X0.550000X-0.550000X-0.550000X0*%
%ADD20R,1.500000X1.500000*%
%ADD21C,1.500000*%
%ADD22FreePoly0,180.000000*%
%ADD23FreePoly1,180.000000*%
G04 APERTURE END LIST*
%TO.C,JP1*%
G36*
X146820000Y-86880000D02*
G01*
X146520000Y-86880000D01*
X146520000Y-88380000D01*
X146820000Y-88380000D01*
X146820000Y-86880000D01*
G37*
%TD*%
D10*
%TO.C,U1*%
X148590000Y-83820000D03*
D11*
X146050000Y-83820000D03*
X143510000Y-83820000D03*
X140970000Y-83820000D03*
X140970000Y-91440000D03*
X143510000Y-91440000D03*
X146050000Y-91440000D03*
X148590000Y-91440000D03*
%TD*%
D12*
%TO.C,K1*%
X146730000Y-121000000D03*
D13*
X144780000Y-114950000D03*
D12*
X132580000Y-114950000D03*
X132530000Y-127000000D03*
D13*
X144780000Y-126950000D03*
%TD*%
D14*
%TO.C,D1*%
X151130000Y-127000000D03*
D15*
X151130000Y-116840000D03*
%TD*%
D11*
%TO.C,C1*%
X150335000Y-80010000D03*
X140335000Y-80010000D03*
%TD*%
%TO.C,R1*%
X141605000Y-99060000D03*
X141605000Y-111760000D03*
%TD*%
D16*
%TO.C,H1*%
X148000000Y-105000000D03*
%TD*%
D17*
%TO.C,J2*%
X156210000Y-83820000D03*
D18*
X158750000Y-83820000D03*
X156210000Y-86360000D03*
X158750000Y-86360000D03*
X156210000Y-88900000D03*
X158750000Y-88900000D03*
X156210000Y-91440000D03*
X158750000Y-91440000D03*
X156210000Y-93980000D03*
X158750000Y-93980000D03*
X156210000Y-96520000D03*
X158750000Y-96520000D03*
X156210000Y-99060000D03*
X158750000Y-99060000D03*
X156210000Y-101600000D03*
X158750000Y-101600000D03*
X156210000Y-104140000D03*
X158750000Y-104140000D03*
X156210000Y-106680000D03*
X158750000Y-106680000D03*
%TD*%
D19*
%TO.C,C2*%
X157480000Y-124420000D03*
D11*
X157480000Y-121920000D03*
%TD*%
D17*
%TO.C,J1*%
X132080000Y-83820000D03*
D18*
X134620000Y-83820000D03*
X132080000Y-86360000D03*
X134620000Y-86360000D03*
X132080000Y-88900000D03*
X134620000Y-88900000D03*
X132080000Y-91440000D03*
X134620000Y-91440000D03*
X132080000Y-93980000D03*
X134620000Y-93980000D03*
X132080000Y-96520000D03*
X134620000Y-96520000D03*
X132080000Y-99060000D03*
X134620000Y-99060000D03*
X132080000Y-101600000D03*
X134620000Y-101600000D03*
X132080000Y-104140000D03*
X134620000Y-104140000D03*
X132080000Y-106680000D03*
X134620000Y-106680000D03*
%TD*%
D20*
%TO.C,Q1*%
X160020000Y-114935000D03*
D21*
X157480000Y-114935000D03*
X154940000Y-114935000D03*
%TD*%
D22*
%TO.C,JP1*%
X147320000Y-87630000D03*
D23*
X146020000Y-87630000D03*
%TD*%
M02*
