%TF.GenerationSoftware,KiCad,Pcbnew,9.0.4*%
%TF.CreationDate,2025-09-13T17:29:30-04:00*%
%TF.ProjectId,AppleII-Disk-Clacker,4170706c-6549-4492-9d44-69736b2d436c,A*%
%TF.SameCoordinates,Original*%
%TF.FileFunction,Drillmap*%
%TF.FilePolarity,Positive*%
%FSLAX45Y45*%
G04 Gerber Fmt 4.5, Leading zero omitted, Abs format (unit mm)*
G04 Created by KiCad (PCBNEW 9.0.4) date 2025-09-13 17:29:30*
%MOMM*%
%LPD*%
G01*
G04 APERTURE LIST*
%ADD10C,0.200000*%
%ADD11C,0.100000*%
%ADD12C,0.110000*%
%ADD13C,0.130000*%
%ADD14C,0.320000*%
G04 APERTURE END LIST*
D10*
X16300000Y-12850000D02*
X16200000Y-12950000D01*
X12800000Y-12950000D02*
X12700000Y-12850000D01*
X12800000Y-7750000D02*
X16200000Y-7750000D01*
X16200000Y-7750000D02*
X16300000Y-7850000D01*
X12700000Y-7850000D02*
X12800000Y-7750000D01*
X16200000Y-12950000D02*
X12800000Y-12950000D01*
X12700000Y-12850000D02*
X12700000Y-7850000D01*
X16300000Y-7850000D02*
X16300000Y-12850000D01*
D11*
X14082000Y-9764000D02*
X14112000Y-9794000D01*
X14112000Y-9764000D02*
X14082000Y-9794000D01*
X14336000Y-8621000D02*
X14366000Y-8651000D01*
X14366000Y-8621000D02*
X14336000Y-8651000D01*
X14844000Y-8748000D02*
X14874000Y-8778000D01*
X14874000Y-8748000D02*
X14844000Y-8778000D01*
X14879000Y-9652000D02*
G75*
G02*
X14839000Y-9652000I-20000J0D01*
G01*
X14839000Y-9652000D02*
G75*
G02*
X14879000Y-9652000I20000J0D01*
G01*
X14033500Y-7961000D02*
X14033500Y-8041000D01*
X13993500Y-8001000D02*
X14073500Y-8001000D01*
X14097000Y-8342000D02*
X14097000Y-8422000D01*
X14057000Y-8382000D02*
X14137000Y-8382000D01*
X14097000Y-9104000D02*
X14097000Y-9184000D01*
X14057000Y-9144000D02*
X14137000Y-9144000D01*
X14160500Y-9866000D02*
X14160500Y-9946000D01*
X14120500Y-9906000D02*
X14200500Y-9906000D01*
X14160500Y-11136000D02*
X14160500Y-11216000D01*
X14120500Y-11176000D02*
X14200500Y-11176000D01*
X14351000Y-8342000D02*
X14351000Y-8422000D01*
X14311000Y-8382000D02*
X14391000Y-8382000D01*
X14351000Y-9104000D02*
X14351000Y-9184000D01*
X14311000Y-9144000D02*
X14391000Y-9144000D01*
X14605000Y-8342000D02*
X14605000Y-8422000D01*
X14565000Y-8382000D02*
X14645000Y-8382000D01*
X14605000Y-9104000D02*
X14605000Y-9184000D01*
X14565000Y-9144000D02*
X14645000Y-9144000D01*
X14859000Y-8342000D02*
X14859000Y-8422000D01*
X14819000Y-8382000D02*
X14899000Y-8382000D01*
X14859000Y-9104000D02*
X14859000Y-9184000D01*
X14819000Y-9144000D02*
X14899000Y-9144000D01*
X15033500Y-7961000D02*
X15033500Y-8041000D01*
X14993500Y-8001000D02*
X15073500Y-8001000D01*
X15494000Y-11453500D02*
X15494000Y-11533500D01*
X15454000Y-11493500D02*
X15534000Y-11493500D01*
X15748000Y-11453500D02*
X15748000Y-11533500D01*
X15708000Y-11493500D02*
X15788000Y-11493500D01*
X15748000Y-12152000D02*
X15748000Y-12232000D01*
X15708000Y-12192000D02*
X15788000Y-12192000D01*
X15748000Y-12402000D02*
X15748000Y-12482000D01*
X15708000Y-12442000D02*
X15788000Y-12442000D01*
X16002000Y-11453500D02*
X16002000Y-11533500D01*
X15962000Y-11493500D02*
X16042000Y-11493500D01*
X13243356Y-8417356D02*
X13243356Y-8346644D01*
X13172644Y-8346644D01*
X13172644Y-8417356D01*
X13243356Y-8417356D01*
X13243356Y-8671356D02*
X13243356Y-8600644D01*
X13172644Y-8600644D01*
X13172644Y-8671356D01*
X13243356Y-8671356D01*
X13243356Y-8925356D02*
X13243356Y-8854644D01*
X13172644Y-8854644D01*
X13172644Y-8925356D01*
X13243356Y-8925356D01*
X13243356Y-9179356D02*
X13243356Y-9108644D01*
X13172644Y-9108644D01*
X13172644Y-9179356D01*
X13243356Y-9179356D01*
X13243356Y-9433356D02*
X13243356Y-9362644D01*
X13172644Y-9362644D01*
X13172644Y-9433356D01*
X13243356Y-9433356D01*
X13243356Y-9687356D02*
X13243356Y-9616644D01*
X13172644Y-9616644D01*
X13172644Y-9687356D01*
X13243356Y-9687356D01*
X13243356Y-9941356D02*
X13243356Y-9870644D01*
X13172644Y-9870644D01*
X13172644Y-9941356D01*
X13243356Y-9941356D01*
X13243356Y-10195356D02*
X13243356Y-10124644D01*
X13172644Y-10124644D01*
X13172644Y-10195356D01*
X13243356Y-10195356D01*
X13243356Y-10449356D02*
X13243356Y-10378644D01*
X13172644Y-10378644D01*
X13172644Y-10449356D01*
X13243356Y-10449356D01*
X13243356Y-10703356D02*
X13243356Y-10632644D01*
X13172644Y-10632644D01*
X13172644Y-10703356D01*
X13243356Y-10703356D01*
X13497356Y-8417356D02*
X13497356Y-8346644D01*
X13426644Y-8346644D01*
X13426644Y-8417356D01*
X13497356Y-8417356D01*
X13497356Y-8671356D02*
X13497356Y-8600644D01*
X13426644Y-8600644D01*
X13426644Y-8671356D01*
X13497356Y-8671356D01*
X13497356Y-8925356D02*
X13497356Y-8854644D01*
X13426644Y-8854644D01*
X13426644Y-8925356D01*
X13497356Y-8925356D01*
X13497356Y-9179356D02*
X13497356Y-9108644D01*
X13426644Y-9108644D01*
X13426644Y-9179356D01*
X13497356Y-9179356D01*
X13497356Y-9433356D02*
X13497356Y-9362644D01*
X13426644Y-9362644D01*
X13426644Y-9433356D01*
X13497356Y-9433356D01*
X13497356Y-9687356D02*
X13497356Y-9616644D01*
X13426644Y-9616644D01*
X13426644Y-9687356D01*
X13497356Y-9687356D01*
X13497356Y-9941356D02*
X13497356Y-9870644D01*
X13426644Y-9870644D01*
X13426644Y-9941356D01*
X13497356Y-9941356D01*
X13497356Y-10195356D02*
X13497356Y-10124644D01*
X13426644Y-10124644D01*
X13426644Y-10195356D01*
X13497356Y-10195356D01*
X13497356Y-10449356D02*
X13497356Y-10378644D01*
X13426644Y-10378644D01*
X13426644Y-10449356D01*
X13497356Y-10449356D01*
X13497356Y-10703356D02*
X13497356Y-10632644D01*
X13426644Y-10632644D01*
X13426644Y-10703356D01*
X13497356Y-10703356D01*
X14513356Y-11530356D02*
X14513356Y-11459644D01*
X14442644Y-11459644D01*
X14442644Y-11530356D01*
X14513356Y-11530356D01*
X14513356Y-12730356D02*
X14513356Y-12659644D01*
X14442644Y-12659644D01*
X14442644Y-12730356D01*
X14513356Y-12730356D01*
X15656356Y-8417356D02*
X15656356Y-8346644D01*
X15585644Y-8346644D01*
X15585644Y-8417356D01*
X15656356Y-8417356D01*
X15656356Y-8671356D02*
X15656356Y-8600644D01*
X15585644Y-8600644D01*
X15585644Y-8671356D01*
X15656356Y-8671356D01*
X15656356Y-8925356D02*
X15656356Y-8854644D01*
X15585644Y-8854644D01*
X15585644Y-8925356D01*
X15656356Y-8925356D01*
X15656356Y-9179356D02*
X15656356Y-9108644D01*
X15585644Y-9108644D01*
X15585644Y-9179356D01*
X15656356Y-9179356D01*
X15656356Y-9433356D02*
X15656356Y-9362644D01*
X15585644Y-9362644D01*
X15585644Y-9433356D01*
X15656356Y-9433356D01*
X15656356Y-9687356D02*
X15656356Y-9616644D01*
X15585644Y-9616644D01*
X15585644Y-9687356D01*
X15656356Y-9687356D01*
X15656356Y-9941356D02*
X15656356Y-9870644D01*
X15585644Y-9870644D01*
X15585644Y-9941356D01*
X15656356Y-9941356D01*
X15656356Y-10195356D02*
X15656356Y-10124644D01*
X15585644Y-10124644D01*
X15585644Y-10195356D01*
X15656356Y-10195356D01*
X15656356Y-10449356D02*
X15656356Y-10378644D01*
X15585644Y-10378644D01*
X15585644Y-10449356D01*
X15656356Y-10449356D01*
X15656356Y-10703356D02*
X15656356Y-10632644D01*
X15585644Y-10632644D01*
X15585644Y-10703356D01*
X15656356Y-10703356D01*
X15910356Y-8417356D02*
X15910356Y-8346644D01*
X15839644Y-8346644D01*
X15839644Y-8417356D01*
X15910356Y-8417356D01*
X15910356Y-8671356D02*
X15910356Y-8600644D01*
X15839644Y-8600644D01*
X15839644Y-8671356D01*
X15910356Y-8671356D01*
X15910356Y-8925356D02*
X15910356Y-8854644D01*
X15839644Y-8854644D01*
X15839644Y-8925356D01*
X15910356Y-8925356D01*
X15910356Y-9179356D02*
X15910356Y-9108644D01*
X15839644Y-9108644D01*
X15839644Y-9179356D01*
X15910356Y-9179356D01*
X15910356Y-9433356D02*
X15910356Y-9362644D01*
X15839644Y-9362644D01*
X15839644Y-9433356D01*
X15910356Y-9433356D01*
X15910356Y-9687356D02*
X15910356Y-9616644D01*
X15839644Y-9616644D01*
X15839644Y-9687356D01*
X15910356Y-9687356D01*
X15910356Y-9941356D02*
X15910356Y-9870644D01*
X15839644Y-9870644D01*
X15839644Y-9941356D01*
X15910356Y-9941356D01*
X15910356Y-10195356D02*
X15910356Y-10124644D01*
X15839644Y-10124644D01*
X15839644Y-10195356D01*
X15910356Y-10195356D01*
X15910356Y-10449356D02*
X15910356Y-10378644D01*
X15839644Y-10378644D01*
X15839644Y-10449356D01*
X15910356Y-10449356D01*
X15910356Y-10703356D02*
X15910356Y-10632644D01*
X15839644Y-10632644D01*
X15839644Y-10703356D01*
X15910356Y-10703356D01*
D12*
X15113000Y-11739000D02*
X15168000Y-11684000D01*
X15113000Y-11629000D01*
X15058000Y-11684000D01*
X15113000Y-11739000D01*
X15113000Y-12755000D02*
X15168000Y-12700000D01*
X15113000Y-12645000D01*
X15058000Y-12700000D01*
X15113000Y-12755000D01*
D13*
X13188000Y-12635000D02*
X13318000Y-12765000D01*
X13318000Y-12635000D02*
X13188000Y-12765000D01*
X13318000Y-12700000D02*
G75*
G02*
X13188000Y-12700000I-65000J0D01*
G01*
X13188000Y-12700000D02*
G75*
G02*
X13318000Y-12700000I65000J0D01*
G01*
X13193000Y-11430000D02*
X13323000Y-11560000D01*
X13323000Y-11430000D02*
X13193000Y-11560000D01*
X13323000Y-11495000D02*
G75*
G02*
X13193000Y-11495000I-65000J0D01*
G01*
X13193000Y-11495000D02*
G75*
G02*
X13323000Y-11495000I65000J0D01*
G01*
X14608000Y-12035000D02*
X14738000Y-12165000D01*
X14738000Y-12035000D02*
X14608000Y-12165000D01*
X14738000Y-12100000D02*
G75*
G02*
X14608000Y-12100000I-65000J0D01*
G01*
X14608000Y-12100000D02*
G75*
G02*
X14738000Y-12100000I65000J0D01*
G01*
D14*
X14640000Y-10340000D02*
X14960000Y-10660000D01*
X14960000Y-10340000D02*
X14640000Y-10660000D01*
X14800000Y-10340000D02*
X14800000Y-10660000D01*
X14640000Y-10500000D02*
X14960000Y-10500000D01*
D10*
X12950777Y-13271484D02*
X12950777Y-13071484D01*
X12950777Y-13071484D02*
X12998396Y-13071484D01*
X12998396Y-13071484D02*
X13026967Y-13081008D01*
X13026967Y-13081008D02*
X13046015Y-13100055D01*
X13046015Y-13100055D02*
X13055539Y-13119103D01*
X13055539Y-13119103D02*
X13065062Y-13157198D01*
X13065062Y-13157198D02*
X13065062Y-13185769D01*
X13065062Y-13185769D02*
X13055539Y-13223865D01*
X13055539Y-13223865D02*
X13046015Y-13242912D01*
X13046015Y-13242912D02*
X13026967Y-13261960D01*
X13026967Y-13261960D02*
X12998396Y-13271484D01*
X12998396Y-13271484D02*
X12950777Y-13271484D01*
X13150777Y-13271484D02*
X13150777Y-13138150D01*
X13150777Y-13176246D02*
X13160301Y-13157198D01*
X13160301Y-13157198D02*
X13169824Y-13147674D01*
X13169824Y-13147674D02*
X13188872Y-13138150D01*
X13188872Y-13138150D02*
X13207920Y-13138150D01*
X13274586Y-13271484D02*
X13274586Y-13138150D01*
X13274586Y-13071484D02*
X13265062Y-13081008D01*
X13265062Y-13081008D02*
X13274586Y-13090531D01*
X13274586Y-13090531D02*
X13284110Y-13081008D01*
X13284110Y-13081008D02*
X13274586Y-13071484D01*
X13274586Y-13071484D02*
X13274586Y-13090531D01*
X13398396Y-13271484D02*
X13379348Y-13261960D01*
X13379348Y-13261960D02*
X13369824Y-13242912D01*
X13369824Y-13242912D02*
X13369824Y-13071484D01*
X13503158Y-13271484D02*
X13484110Y-13261960D01*
X13484110Y-13261960D02*
X13474586Y-13242912D01*
X13474586Y-13242912D02*
X13474586Y-13071484D01*
X13731729Y-13271484D02*
X13731729Y-13071484D01*
X13731729Y-13071484D02*
X13798396Y-13214341D01*
X13798396Y-13214341D02*
X13865062Y-13071484D01*
X13865062Y-13071484D02*
X13865062Y-13271484D01*
X14046015Y-13271484D02*
X14046015Y-13166722D01*
X14046015Y-13166722D02*
X14036491Y-13147674D01*
X14036491Y-13147674D02*
X14017443Y-13138150D01*
X14017443Y-13138150D02*
X13979348Y-13138150D01*
X13979348Y-13138150D02*
X13960301Y-13147674D01*
X14046015Y-13261960D02*
X14026967Y-13271484D01*
X14026967Y-13271484D02*
X13979348Y-13271484D01*
X13979348Y-13271484D02*
X13960301Y-13261960D01*
X13960301Y-13261960D02*
X13950777Y-13242912D01*
X13950777Y-13242912D02*
X13950777Y-13223865D01*
X13950777Y-13223865D02*
X13960301Y-13204817D01*
X13960301Y-13204817D02*
X13979348Y-13195293D01*
X13979348Y-13195293D02*
X14026967Y-13195293D01*
X14026967Y-13195293D02*
X14046015Y-13185769D01*
X14141253Y-13138150D02*
X14141253Y-13338150D01*
X14141253Y-13147674D02*
X14160301Y-13138150D01*
X14160301Y-13138150D02*
X14198396Y-13138150D01*
X14198396Y-13138150D02*
X14217443Y-13147674D01*
X14217443Y-13147674D02*
X14226967Y-13157198D01*
X14226967Y-13157198D02*
X14236491Y-13176246D01*
X14236491Y-13176246D02*
X14236491Y-13233388D01*
X14236491Y-13233388D02*
X14226967Y-13252436D01*
X14226967Y-13252436D02*
X14217443Y-13261960D01*
X14217443Y-13261960D02*
X14198396Y-13271484D01*
X14198396Y-13271484D02*
X14160301Y-13271484D01*
X14160301Y-13271484D02*
X14141253Y-13261960D01*
X14322205Y-13252436D02*
X14331729Y-13261960D01*
X14331729Y-13261960D02*
X14322205Y-13271484D01*
X14322205Y-13271484D02*
X14312682Y-13261960D01*
X14312682Y-13261960D02*
X14322205Y-13252436D01*
X14322205Y-13252436D02*
X14322205Y-13271484D01*
X14322205Y-13147674D02*
X14331729Y-13157198D01*
X14331729Y-13157198D02*
X14322205Y-13166722D01*
X14322205Y-13166722D02*
X14312682Y-13157198D01*
X14312682Y-13157198D02*
X14322205Y-13147674D01*
X14322205Y-13147674D02*
X14322205Y-13166722D01*
D11*
X12660000Y-13585000D02*
X12690000Y-13615000D01*
X12690000Y-13585000D02*
X12660000Y-13615000D01*
D10*
X12988872Y-13491484D02*
X13007920Y-13491484D01*
X13007920Y-13491484D02*
X13026967Y-13501008D01*
X13026967Y-13501008D02*
X13036491Y-13510531D01*
X13036491Y-13510531D02*
X13046015Y-13529579D01*
X13046015Y-13529579D02*
X13055539Y-13567674D01*
X13055539Y-13567674D02*
X13055539Y-13615293D01*
X13055539Y-13615293D02*
X13046015Y-13653388D01*
X13046015Y-13653388D02*
X13036491Y-13672436D01*
X13036491Y-13672436D02*
X13026967Y-13681960D01*
X13026967Y-13681960D02*
X13007920Y-13691484D01*
X13007920Y-13691484D02*
X12988872Y-13691484D01*
X12988872Y-13691484D02*
X12969824Y-13681960D01*
X12969824Y-13681960D02*
X12960301Y-13672436D01*
X12960301Y-13672436D02*
X12950777Y-13653388D01*
X12950777Y-13653388D02*
X12941253Y-13615293D01*
X12941253Y-13615293D02*
X12941253Y-13567674D01*
X12941253Y-13567674D02*
X12950777Y-13529579D01*
X12950777Y-13529579D02*
X12960301Y-13510531D01*
X12960301Y-13510531D02*
X12969824Y-13501008D01*
X12969824Y-13501008D02*
X12988872Y-13491484D01*
X13141253Y-13672436D02*
X13150777Y-13681960D01*
X13150777Y-13681960D02*
X13141253Y-13691484D01*
X13141253Y-13691484D02*
X13131729Y-13681960D01*
X13131729Y-13681960D02*
X13141253Y-13672436D01*
X13141253Y-13672436D02*
X13141253Y-13691484D01*
X13217443Y-13491484D02*
X13341253Y-13491484D01*
X13341253Y-13491484D02*
X13274586Y-13567674D01*
X13274586Y-13567674D02*
X13303158Y-13567674D01*
X13303158Y-13567674D02*
X13322205Y-13577198D01*
X13322205Y-13577198D02*
X13331729Y-13586722D01*
X13331729Y-13586722D02*
X13341253Y-13605769D01*
X13341253Y-13605769D02*
X13341253Y-13653388D01*
X13341253Y-13653388D02*
X13331729Y-13672436D01*
X13331729Y-13672436D02*
X13322205Y-13681960D01*
X13322205Y-13681960D02*
X13303158Y-13691484D01*
X13303158Y-13691484D02*
X13246015Y-13691484D01*
X13246015Y-13691484D02*
X13226967Y-13681960D01*
X13226967Y-13681960D02*
X13217443Y-13672436D01*
X13465062Y-13491484D02*
X13484110Y-13491484D01*
X13484110Y-13491484D02*
X13503158Y-13501008D01*
X13503158Y-13501008D02*
X13512682Y-13510531D01*
X13512682Y-13510531D02*
X13522205Y-13529579D01*
X13522205Y-13529579D02*
X13531729Y-13567674D01*
X13531729Y-13567674D02*
X13531729Y-13615293D01*
X13531729Y-13615293D02*
X13522205Y-13653388D01*
X13522205Y-13653388D02*
X13512682Y-13672436D01*
X13512682Y-13672436D02*
X13503158Y-13681960D01*
X13503158Y-13681960D02*
X13484110Y-13691484D01*
X13484110Y-13691484D02*
X13465062Y-13691484D01*
X13465062Y-13691484D02*
X13446015Y-13681960D01*
X13446015Y-13681960D02*
X13436491Y-13672436D01*
X13436491Y-13672436D02*
X13426967Y-13653388D01*
X13426967Y-13653388D02*
X13417443Y-13615293D01*
X13417443Y-13615293D02*
X13417443Y-13567674D01*
X13417443Y-13567674D02*
X13426967Y-13529579D01*
X13426967Y-13529579D02*
X13436491Y-13510531D01*
X13436491Y-13510531D02*
X13446015Y-13501008D01*
X13446015Y-13501008D02*
X13465062Y-13491484D01*
X13655539Y-13491484D02*
X13674586Y-13491484D01*
X13674586Y-13491484D02*
X13693634Y-13501008D01*
X13693634Y-13501008D02*
X13703158Y-13510531D01*
X13703158Y-13510531D02*
X13712682Y-13529579D01*
X13712682Y-13529579D02*
X13722205Y-13567674D01*
X13722205Y-13567674D02*
X13722205Y-13615293D01*
X13722205Y-13615293D02*
X13712682Y-13653388D01*
X13712682Y-13653388D02*
X13703158Y-13672436D01*
X13703158Y-13672436D02*
X13693634Y-13681960D01*
X13693634Y-13681960D02*
X13674586Y-13691484D01*
X13674586Y-13691484D02*
X13655539Y-13691484D01*
X13655539Y-13691484D02*
X13636491Y-13681960D01*
X13636491Y-13681960D02*
X13626967Y-13672436D01*
X13626967Y-13672436D02*
X13617443Y-13653388D01*
X13617443Y-13653388D02*
X13607920Y-13615293D01*
X13607920Y-13615293D02*
X13607920Y-13567674D01*
X13607920Y-13567674D02*
X13617443Y-13529579D01*
X13617443Y-13529579D02*
X13626967Y-13510531D01*
X13626967Y-13510531D02*
X13636491Y-13501008D01*
X13636491Y-13501008D02*
X13655539Y-13491484D01*
X13807920Y-13691484D02*
X13807920Y-13558150D01*
X13807920Y-13577198D02*
X13817443Y-13567674D01*
X13817443Y-13567674D02*
X13836491Y-13558150D01*
X13836491Y-13558150D02*
X13865063Y-13558150D01*
X13865063Y-13558150D02*
X13884110Y-13567674D01*
X13884110Y-13567674D02*
X13893634Y-13586722D01*
X13893634Y-13586722D02*
X13893634Y-13691484D01*
X13893634Y-13586722D02*
X13903158Y-13567674D01*
X13903158Y-13567674D02*
X13922205Y-13558150D01*
X13922205Y-13558150D02*
X13950777Y-13558150D01*
X13950777Y-13558150D02*
X13969824Y-13567674D01*
X13969824Y-13567674D02*
X13979348Y-13586722D01*
X13979348Y-13586722D02*
X13979348Y-13691484D01*
X14074586Y-13691484D02*
X14074586Y-13558150D01*
X14074586Y-13577198D02*
X14084110Y-13567674D01*
X14084110Y-13567674D02*
X14103158Y-13558150D01*
X14103158Y-13558150D02*
X14131729Y-13558150D01*
X14131729Y-13558150D02*
X14150777Y-13567674D01*
X14150777Y-13567674D02*
X14160301Y-13586722D01*
X14160301Y-13586722D02*
X14160301Y-13691484D01*
X14160301Y-13586722D02*
X14169824Y-13567674D01*
X14169824Y-13567674D02*
X14188872Y-13558150D01*
X14188872Y-13558150D02*
X14217443Y-13558150D01*
X14217443Y-13558150D02*
X14236491Y-13567674D01*
X14236491Y-13567674D02*
X14246015Y-13586722D01*
X14246015Y-13586722D02*
X14246015Y-13691484D01*
X14636491Y-13481960D02*
X14465063Y-13739103D01*
X14893634Y-13491484D02*
X14912682Y-13491484D01*
X14912682Y-13491484D02*
X14931729Y-13501008D01*
X14931729Y-13501008D02*
X14941253Y-13510531D01*
X14941253Y-13510531D02*
X14950777Y-13529579D01*
X14950777Y-13529579D02*
X14960301Y-13567674D01*
X14960301Y-13567674D02*
X14960301Y-13615293D01*
X14960301Y-13615293D02*
X14950777Y-13653388D01*
X14950777Y-13653388D02*
X14941253Y-13672436D01*
X14941253Y-13672436D02*
X14931729Y-13681960D01*
X14931729Y-13681960D02*
X14912682Y-13691484D01*
X14912682Y-13691484D02*
X14893634Y-13691484D01*
X14893634Y-13691484D02*
X14874586Y-13681960D01*
X14874586Y-13681960D02*
X14865063Y-13672436D01*
X14865063Y-13672436D02*
X14855539Y-13653388D01*
X14855539Y-13653388D02*
X14846015Y-13615293D01*
X14846015Y-13615293D02*
X14846015Y-13567674D01*
X14846015Y-13567674D02*
X14855539Y-13529579D01*
X14855539Y-13529579D02*
X14865063Y-13510531D01*
X14865063Y-13510531D02*
X14874586Y-13501008D01*
X14874586Y-13501008D02*
X14893634Y-13491484D01*
X15046015Y-13672436D02*
X15055539Y-13681960D01*
X15055539Y-13681960D02*
X15046015Y-13691484D01*
X15046015Y-13691484D02*
X15036491Y-13681960D01*
X15036491Y-13681960D02*
X15046015Y-13672436D01*
X15046015Y-13672436D02*
X15046015Y-13691484D01*
X15179348Y-13491484D02*
X15198396Y-13491484D01*
X15198396Y-13491484D02*
X15217444Y-13501008D01*
X15217444Y-13501008D02*
X15226967Y-13510531D01*
X15226967Y-13510531D02*
X15236491Y-13529579D01*
X15236491Y-13529579D02*
X15246015Y-13567674D01*
X15246015Y-13567674D02*
X15246015Y-13615293D01*
X15246015Y-13615293D02*
X15236491Y-13653388D01*
X15236491Y-13653388D02*
X15226967Y-13672436D01*
X15226967Y-13672436D02*
X15217444Y-13681960D01*
X15217444Y-13681960D02*
X15198396Y-13691484D01*
X15198396Y-13691484D02*
X15179348Y-13691484D01*
X15179348Y-13691484D02*
X15160301Y-13681960D01*
X15160301Y-13681960D02*
X15150777Y-13672436D01*
X15150777Y-13672436D02*
X15141253Y-13653388D01*
X15141253Y-13653388D02*
X15131729Y-13615293D01*
X15131729Y-13615293D02*
X15131729Y-13567674D01*
X15131729Y-13567674D02*
X15141253Y-13529579D01*
X15141253Y-13529579D02*
X15150777Y-13510531D01*
X15150777Y-13510531D02*
X15160301Y-13501008D01*
X15160301Y-13501008D02*
X15179348Y-13491484D01*
X15436491Y-13691484D02*
X15322206Y-13691484D01*
X15379348Y-13691484D02*
X15379348Y-13491484D01*
X15379348Y-13491484D02*
X15360301Y-13520055D01*
X15360301Y-13520055D02*
X15341253Y-13539103D01*
X15341253Y-13539103D02*
X15322206Y-13548627D01*
X15626967Y-13691484D02*
X15512682Y-13691484D01*
X15569825Y-13691484D02*
X15569825Y-13491484D01*
X15569825Y-13491484D02*
X15550777Y-13520055D01*
X15550777Y-13520055D02*
X15531729Y-13539103D01*
X15531729Y-13539103D02*
X15512682Y-13548627D01*
X15741253Y-13577198D02*
X15722206Y-13567674D01*
X15722206Y-13567674D02*
X15712682Y-13558150D01*
X15712682Y-13558150D02*
X15703158Y-13539103D01*
X15703158Y-13539103D02*
X15703158Y-13529579D01*
X15703158Y-13529579D02*
X15712682Y-13510531D01*
X15712682Y-13510531D02*
X15722206Y-13501008D01*
X15722206Y-13501008D02*
X15741253Y-13491484D01*
X15741253Y-13491484D02*
X15779348Y-13491484D01*
X15779348Y-13491484D02*
X15798396Y-13501008D01*
X15798396Y-13501008D02*
X15807920Y-13510531D01*
X15807920Y-13510531D02*
X15817444Y-13529579D01*
X15817444Y-13529579D02*
X15817444Y-13539103D01*
X15817444Y-13539103D02*
X15807920Y-13558150D01*
X15807920Y-13558150D02*
X15798396Y-13567674D01*
X15798396Y-13567674D02*
X15779348Y-13577198D01*
X15779348Y-13577198D02*
X15741253Y-13577198D01*
X15741253Y-13577198D02*
X15722206Y-13586722D01*
X15722206Y-13586722D02*
X15712682Y-13596246D01*
X15712682Y-13596246D02*
X15703158Y-13615293D01*
X15703158Y-13615293D02*
X15703158Y-13653388D01*
X15703158Y-13653388D02*
X15712682Y-13672436D01*
X15712682Y-13672436D02*
X15722206Y-13681960D01*
X15722206Y-13681960D02*
X15741253Y-13691484D01*
X15741253Y-13691484D02*
X15779348Y-13691484D01*
X15779348Y-13691484D02*
X15798396Y-13681960D01*
X15798396Y-13681960D02*
X15807920Y-13672436D01*
X15807920Y-13672436D02*
X15817444Y-13653388D01*
X15817444Y-13653388D02*
X15817444Y-13615293D01*
X15817444Y-13615293D02*
X15807920Y-13596246D01*
X15807920Y-13596246D02*
X15798396Y-13586722D01*
X15798396Y-13586722D02*
X15779348Y-13577198D01*
X15893634Y-13491484D02*
X15893634Y-13529579D01*
X15969825Y-13491484D02*
X15969825Y-13529579D01*
X16265063Y-13767674D02*
X16255539Y-13758150D01*
X16255539Y-13758150D02*
X16236491Y-13729579D01*
X16236491Y-13729579D02*
X16226968Y-13710531D01*
X16226968Y-13710531D02*
X16217444Y-13681960D01*
X16217444Y-13681960D02*
X16207920Y-13634341D01*
X16207920Y-13634341D02*
X16207920Y-13596246D01*
X16207920Y-13596246D02*
X16217444Y-13548627D01*
X16217444Y-13548627D02*
X16226968Y-13520055D01*
X16226968Y-13520055D02*
X16236491Y-13501008D01*
X16236491Y-13501008D02*
X16255539Y-13472436D01*
X16255539Y-13472436D02*
X16265063Y-13462912D01*
X16322206Y-13491484D02*
X16446015Y-13491484D01*
X16446015Y-13491484D02*
X16379348Y-13567674D01*
X16379348Y-13567674D02*
X16407920Y-13567674D01*
X16407920Y-13567674D02*
X16426968Y-13577198D01*
X16426968Y-13577198D02*
X16436491Y-13586722D01*
X16436491Y-13586722D02*
X16446015Y-13605769D01*
X16446015Y-13605769D02*
X16446015Y-13653388D01*
X16446015Y-13653388D02*
X16436491Y-13672436D01*
X16436491Y-13672436D02*
X16426968Y-13681960D01*
X16426968Y-13681960D02*
X16407920Y-13691484D01*
X16407920Y-13691484D02*
X16350777Y-13691484D01*
X16350777Y-13691484D02*
X16331729Y-13681960D01*
X16331729Y-13681960D02*
X16322206Y-13672436D01*
X16684110Y-13691484D02*
X16684110Y-13491484D01*
X16769825Y-13691484D02*
X16769825Y-13586722D01*
X16769825Y-13586722D02*
X16760301Y-13567674D01*
X16760301Y-13567674D02*
X16741253Y-13558150D01*
X16741253Y-13558150D02*
X16712682Y-13558150D01*
X16712682Y-13558150D02*
X16693634Y-13567674D01*
X16693634Y-13567674D02*
X16684110Y-13577198D01*
X16893634Y-13691484D02*
X16874587Y-13681960D01*
X16874587Y-13681960D02*
X16865063Y-13672436D01*
X16865063Y-13672436D02*
X16855539Y-13653388D01*
X16855539Y-13653388D02*
X16855539Y-13596246D01*
X16855539Y-13596246D02*
X16865063Y-13577198D01*
X16865063Y-13577198D02*
X16874587Y-13567674D01*
X16874587Y-13567674D02*
X16893634Y-13558150D01*
X16893634Y-13558150D02*
X16922206Y-13558150D01*
X16922206Y-13558150D02*
X16941253Y-13567674D01*
X16941253Y-13567674D02*
X16950777Y-13577198D01*
X16950777Y-13577198D02*
X16960301Y-13596246D01*
X16960301Y-13596246D02*
X16960301Y-13653388D01*
X16960301Y-13653388D02*
X16950777Y-13672436D01*
X16950777Y-13672436D02*
X16941253Y-13681960D01*
X16941253Y-13681960D02*
X16922206Y-13691484D01*
X16922206Y-13691484D02*
X16893634Y-13691484D01*
X17074587Y-13691484D02*
X17055539Y-13681960D01*
X17055539Y-13681960D02*
X17046015Y-13662912D01*
X17046015Y-13662912D02*
X17046015Y-13491484D01*
X17226968Y-13681960D02*
X17207920Y-13691484D01*
X17207920Y-13691484D02*
X17169825Y-13691484D01*
X17169825Y-13691484D02*
X17150777Y-13681960D01*
X17150777Y-13681960D02*
X17141253Y-13662912D01*
X17141253Y-13662912D02*
X17141253Y-13586722D01*
X17141253Y-13586722D02*
X17150777Y-13567674D01*
X17150777Y-13567674D02*
X17169825Y-13558150D01*
X17169825Y-13558150D02*
X17207920Y-13558150D01*
X17207920Y-13558150D02*
X17226968Y-13567674D01*
X17226968Y-13567674D02*
X17236492Y-13586722D01*
X17236492Y-13586722D02*
X17236492Y-13605769D01*
X17236492Y-13605769D02*
X17141253Y-13624817D01*
X17312682Y-13681960D02*
X17331730Y-13691484D01*
X17331730Y-13691484D02*
X17369825Y-13691484D01*
X17369825Y-13691484D02*
X17388873Y-13681960D01*
X17388873Y-13681960D02*
X17398396Y-13662912D01*
X17398396Y-13662912D02*
X17398396Y-13653388D01*
X17398396Y-13653388D02*
X17388873Y-13634341D01*
X17388873Y-13634341D02*
X17369825Y-13624817D01*
X17369825Y-13624817D02*
X17341253Y-13624817D01*
X17341253Y-13624817D02*
X17322206Y-13615293D01*
X17322206Y-13615293D02*
X17312682Y-13596246D01*
X17312682Y-13596246D02*
X17312682Y-13586722D01*
X17312682Y-13586722D02*
X17322206Y-13567674D01*
X17322206Y-13567674D02*
X17341253Y-13558150D01*
X17341253Y-13558150D02*
X17369825Y-13558150D01*
X17369825Y-13558150D02*
X17388873Y-13567674D01*
X17465063Y-13767674D02*
X17474587Y-13758150D01*
X17474587Y-13758150D02*
X17493634Y-13729579D01*
X17493634Y-13729579D02*
X17503158Y-13710531D01*
X17503158Y-13710531D02*
X17512682Y-13681960D01*
X17512682Y-13681960D02*
X17522206Y-13634341D01*
X17522206Y-13634341D02*
X17522206Y-13596246D01*
X17522206Y-13596246D02*
X17512682Y-13548627D01*
X17512682Y-13548627D02*
X17503158Y-13520055D01*
X17503158Y-13520055D02*
X17493634Y-13501008D01*
X17493634Y-13501008D02*
X17474587Y-13472436D01*
X17474587Y-13472436D02*
X17465063Y-13462912D01*
D11*
X12690000Y-13864000D02*
G75*
G02*
X12650000Y-13864000I-20000J0D01*
G01*
X12650000Y-13864000D02*
G75*
G02*
X12690000Y-13864000I20000J0D01*
G01*
D10*
X12988872Y-13755484D02*
X13007920Y-13755484D01*
X13007920Y-13755484D02*
X13026967Y-13765008D01*
X13026967Y-13765008D02*
X13036491Y-13774531D01*
X13036491Y-13774531D02*
X13046015Y-13793579D01*
X13046015Y-13793579D02*
X13055539Y-13831674D01*
X13055539Y-13831674D02*
X13055539Y-13879293D01*
X13055539Y-13879293D02*
X13046015Y-13917388D01*
X13046015Y-13917388D02*
X13036491Y-13936436D01*
X13036491Y-13936436D02*
X13026967Y-13945960D01*
X13026967Y-13945960D02*
X13007920Y-13955484D01*
X13007920Y-13955484D02*
X12988872Y-13955484D01*
X12988872Y-13955484D02*
X12969824Y-13945960D01*
X12969824Y-13945960D02*
X12960301Y-13936436D01*
X12960301Y-13936436D02*
X12950777Y-13917388D01*
X12950777Y-13917388D02*
X12941253Y-13879293D01*
X12941253Y-13879293D02*
X12941253Y-13831674D01*
X12941253Y-13831674D02*
X12950777Y-13793579D01*
X12950777Y-13793579D02*
X12960301Y-13774531D01*
X12960301Y-13774531D02*
X12969824Y-13765008D01*
X12969824Y-13765008D02*
X12988872Y-13755484D01*
X13141253Y-13936436D02*
X13150777Y-13945960D01*
X13150777Y-13945960D02*
X13141253Y-13955484D01*
X13141253Y-13955484D02*
X13131729Y-13945960D01*
X13131729Y-13945960D02*
X13141253Y-13936436D01*
X13141253Y-13936436D02*
X13141253Y-13955484D01*
X13322205Y-13822150D02*
X13322205Y-13955484D01*
X13274586Y-13745960D02*
X13226967Y-13888817D01*
X13226967Y-13888817D02*
X13350777Y-13888817D01*
X13465062Y-13755484D02*
X13484110Y-13755484D01*
X13484110Y-13755484D02*
X13503158Y-13765008D01*
X13503158Y-13765008D02*
X13512682Y-13774531D01*
X13512682Y-13774531D02*
X13522205Y-13793579D01*
X13522205Y-13793579D02*
X13531729Y-13831674D01*
X13531729Y-13831674D02*
X13531729Y-13879293D01*
X13531729Y-13879293D02*
X13522205Y-13917388D01*
X13522205Y-13917388D02*
X13512682Y-13936436D01*
X13512682Y-13936436D02*
X13503158Y-13945960D01*
X13503158Y-13945960D02*
X13484110Y-13955484D01*
X13484110Y-13955484D02*
X13465062Y-13955484D01*
X13465062Y-13955484D02*
X13446015Y-13945960D01*
X13446015Y-13945960D02*
X13436491Y-13936436D01*
X13436491Y-13936436D02*
X13426967Y-13917388D01*
X13426967Y-13917388D02*
X13417443Y-13879293D01*
X13417443Y-13879293D02*
X13417443Y-13831674D01*
X13417443Y-13831674D02*
X13426967Y-13793579D01*
X13426967Y-13793579D02*
X13436491Y-13774531D01*
X13436491Y-13774531D02*
X13446015Y-13765008D01*
X13446015Y-13765008D02*
X13465062Y-13755484D01*
X13655539Y-13755484D02*
X13674586Y-13755484D01*
X13674586Y-13755484D02*
X13693634Y-13765008D01*
X13693634Y-13765008D02*
X13703158Y-13774531D01*
X13703158Y-13774531D02*
X13712682Y-13793579D01*
X13712682Y-13793579D02*
X13722205Y-13831674D01*
X13722205Y-13831674D02*
X13722205Y-13879293D01*
X13722205Y-13879293D02*
X13712682Y-13917388D01*
X13712682Y-13917388D02*
X13703158Y-13936436D01*
X13703158Y-13936436D02*
X13693634Y-13945960D01*
X13693634Y-13945960D02*
X13674586Y-13955484D01*
X13674586Y-13955484D02*
X13655539Y-13955484D01*
X13655539Y-13955484D02*
X13636491Y-13945960D01*
X13636491Y-13945960D02*
X13626967Y-13936436D01*
X13626967Y-13936436D02*
X13617443Y-13917388D01*
X13617443Y-13917388D02*
X13607920Y-13879293D01*
X13607920Y-13879293D02*
X13607920Y-13831674D01*
X13607920Y-13831674D02*
X13617443Y-13793579D01*
X13617443Y-13793579D02*
X13626967Y-13774531D01*
X13626967Y-13774531D02*
X13636491Y-13765008D01*
X13636491Y-13765008D02*
X13655539Y-13755484D01*
X13807920Y-13955484D02*
X13807920Y-13822150D01*
X13807920Y-13841198D02*
X13817443Y-13831674D01*
X13817443Y-13831674D02*
X13836491Y-13822150D01*
X13836491Y-13822150D02*
X13865063Y-13822150D01*
X13865063Y-13822150D02*
X13884110Y-13831674D01*
X13884110Y-13831674D02*
X13893634Y-13850722D01*
X13893634Y-13850722D02*
X13893634Y-13955484D01*
X13893634Y-13850722D02*
X13903158Y-13831674D01*
X13903158Y-13831674D02*
X13922205Y-13822150D01*
X13922205Y-13822150D02*
X13950777Y-13822150D01*
X13950777Y-13822150D02*
X13969824Y-13831674D01*
X13969824Y-13831674D02*
X13979348Y-13850722D01*
X13979348Y-13850722D02*
X13979348Y-13955484D01*
X14074586Y-13955484D02*
X14074586Y-13822150D01*
X14074586Y-13841198D02*
X14084110Y-13831674D01*
X14084110Y-13831674D02*
X14103158Y-13822150D01*
X14103158Y-13822150D02*
X14131729Y-13822150D01*
X14131729Y-13822150D02*
X14150777Y-13831674D01*
X14150777Y-13831674D02*
X14160301Y-13850722D01*
X14160301Y-13850722D02*
X14160301Y-13955484D01*
X14160301Y-13850722D02*
X14169824Y-13831674D01*
X14169824Y-13831674D02*
X14188872Y-13822150D01*
X14188872Y-13822150D02*
X14217443Y-13822150D01*
X14217443Y-13822150D02*
X14236491Y-13831674D01*
X14236491Y-13831674D02*
X14246015Y-13850722D01*
X14246015Y-13850722D02*
X14246015Y-13955484D01*
X14636491Y-13745960D02*
X14465063Y-14003103D01*
X14893634Y-13755484D02*
X14912682Y-13755484D01*
X14912682Y-13755484D02*
X14931729Y-13765008D01*
X14931729Y-13765008D02*
X14941253Y-13774531D01*
X14941253Y-13774531D02*
X14950777Y-13793579D01*
X14950777Y-13793579D02*
X14960301Y-13831674D01*
X14960301Y-13831674D02*
X14960301Y-13879293D01*
X14960301Y-13879293D02*
X14950777Y-13917388D01*
X14950777Y-13917388D02*
X14941253Y-13936436D01*
X14941253Y-13936436D02*
X14931729Y-13945960D01*
X14931729Y-13945960D02*
X14912682Y-13955484D01*
X14912682Y-13955484D02*
X14893634Y-13955484D01*
X14893634Y-13955484D02*
X14874586Y-13945960D01*
X14874586Y-13945960D02*
X14865063Y-13936436D01*
X14865063Y-13936436D02*
X14855539Y-13917388D01*
X14855539Y-13917388D02*
X14846015Y-13879293D01*
X14846015Y-13879293D02*
X14846015Y-13831674D01*
X14846015Y-13831674D02*
X14855539Y-13793579D01*
X14855539Y-13793579D02*
X14865063Y-13774531D01*
X14865063Y-13774531D02*
X14874586Y-13765008D01*
X14874586Y-13765008D02*
X14893634Y-13755484D01*
X15046015Y-13936436D02*
X15055539Y-13945960D01*
X15055539Y-13945960D02*
X15046015Y-13955484D01*
X15046015Y-13955484D02*
X15036491Y-13945960D01*
X15036491Y-13945960D02*
X15046015Y-13936436D01*
X15046015Y-13936436D02*
X15046015Y-13955484D01*
X15179348Y-13755484D02*
X15198396Y-13755484D01*
X15198396Y-13755484D02*
X15217444Y-13765008D01*
X15217444Y-13765008D02*
X15226967Y-13774531D01*
X15226967Y-13774531D02*
X15236491Y-13793579D01*
X15236491Y-13793579D02*
X15246015Y-13831674D01*
X15246015Y-13831674D02*
X15246015Y-13879293D01*
X15246015Y-13879293D02*
X15236491Y-13917388D01*
X15236491Y-13917388D02*
X15226967Y-13936436D01*
X15226967Y-13936436D02*
X15217444Y-13945960D01*
X15217444Y-13945960D02*
X15198396Y-13955484D01*
X15198396Y-13955484D02*
X15179348Y-13955484D01*
X15179348Y-13955484D02*
X15160301Y-13945960D01*
X15160301Y-13945960D02*
X15150777Y-13936436D01*
X15150777Y-13936436D02*
X15141253Y-13917388D01*
X15141253Y-13917388D02*
X15131729Y-13879293D01*
X15131729Y-13879293D02*
X15131729Y-13831674D01*
X15131729Y-13831674D02*
X15141253Y-13793579D01*
X15141253Y-13793579D02*
X15150777Y-13774531D01*
X15150777Y-13774531D02*
X15160301Y-13765008D01*
X15160301Y-13765008D02*
X15179348Y-13755484D01*
X15436491Y-13955484D02*
X15322206Y-13955484D01*
X15379348Y-13955484D02*
X15379348Y-13755484D01*
X15379348Y-13755484D02*
X15360301Y-13784055D01*
X15360301Y-13784055D02*
X15341253Y-13803103D01*
X15341253Y-13803103D02*
X15322206Y-13812627D01*
X15617444Y-13755484D02*
X15522206Y-13755484D01*
X15522206Y-13755484D02*
X15512682Y-13850722D01*
X15512682Y-13850722D02*
X15522206Y-13841198D01*
X15522206Y-13841198D02*
X15541253Y-13831674D01*
X15541253Y-13831674D02*
X15588872Y-13831674D01*
X15588872Y-13831674D02*
X15607920Y-13841198D01*
X15607920Y-13841198D02*
X15617444Y-13850722D01*
X15617444Y-13850722D02*
X15626967Y-13869769D01*
X15626967Y-13869769D02*
X15626967Y-13917388D01*
X15626967Y-13917388D02*
X15617444Y-13936436D01*
X15617444Y-13936436D02*
X15607920Y-13945960D01*
X15607920Y-13945960D02*
X15588872Y-13955484D01*
X15588872Y-13955484D02*
X15541253Y-13955484D01*
X15541253Y-13955484D02*
X15522206Y-13945960D01*
X15522206Y-13945960D02*
X15512682Y-13936436D01*
X15693634Y-13755484D02*
X15826967Y-13755484D01*
X15826967Y-13755484D02*
X15741253Y-13955484D01*
X15893634Y-13755484D02*
X15893634Y-13793579D01*
X15969825Y-13755484D02*
X15969825Y-13793579D01*
X16265063Y-14031674D02*
X16255539Y-14022150D01*
X16255539Y-14022150D02*
X16236491Y-13993579D01*
X16236491Y-13993579D02*
X16226968Y-13974531D01*
X16226968Y-13974531D02*
X16217444Y-13945960D01*
X16217444Y-13945960D02*
X16207920Y-13898341D01*
X16207920Y-13898341D02*
X16207920Y-13860246D01*
X16207920Y-13860246D02*
X16217444Y-13812627D01*
X16217444Y-13812627D02*
X16226968Y-13784055D01*
X16226968Y-13784055D02*
X16236491Y-13765008D01*
X16236491Y-13765008D02*
X16255539Y-13736436D01*
X16255539Y-13736436D02*
X16265063Y-13726912D01*
X16446015Y-13955484D02*
X16331729Y-13955484D01*
X16388872Y-13955484D02*
X16388872Y-13755484D01*
X16388872Y-13755484D02*
X16369825Y-13784055D01*
X16369825Y-13784055D02*
X16350777Y-13803103D01*
X16350777Y-13803103D02*
X16331729Y-13812627D01*
X16684110Y-13955484D02*
X16684110Y-13755484D01*
X16769825Y-13955484D02*
X16769825Y-13850722D01*
X16769825Y-13850722D02*
X16760301Y-13831674D01*
X16760301Y-13831674D02*
X16741253Y-13822150D01*
X16741253Y-13822150D02*
X16712682Y-13822150D01*
X16712682Y-13822150D02*
X16693634Y-13831674D01*
X16693634Y-13831674D02*
X16684110Y-13841198D01*
X16893634Y-13955484D02*
X16874587Y-13945960D01*
X16874587Y-13945960D02*
X16865063Y-13936436D01*
X16865063Y-13936436D02*
X16855539Y-13917388D01*
X16855539Y-13917388D02*
X16855539Y-13860246D01*
X16855539Y-13860246D02*
X16865063Y-13841198D01*
X16865063Y-13841198D02*
X16874587Y-13831674D01*
X16874587Y-13831674D02*
X16893634Y-13822150D01*
X16893634Y-13822150D02*
X16922206Y-13822150D01*
X16922206Y-13822150D02*
X16941253Y-13831674D01*
X16941253Y-13831674D02*
X16950777Y-13841198D01*
X16950777Y-13841198D02*
X16960301Y-13860246D01*
X16960301Y-13860246D02*
X16960301Y-13917388D01*
X16960301Y-13917388D02*
X16950777Y-13936436D01*
X16950777Y-13936436D02*
X16941253Y-13945960D01*
X16941253Y-13945960D02*
X16922206Y-13955484D01*
X16922206Y-13955484D02*
X16893634Y-13955484D01*
X17074587Y-13955484D02*
X17055539Y-13945960D01*
X17055539Y-13945960D02*
X17046015Y-13926912D01*
X17046015Y-13926912D02*
X17046015Y-13755484D01*
X17226968Y-13945960D02*
X17207920Y-13955484D01*
X17207920Y-13955484D02*
X17169825Y-13955484D01*
X17169825Y-13955484D02*
X17150777Y-13945960D01*
X17150777Y-13945960D02*
X17141253Y-13926912D01*
X17141253Y-13926912D02*
X17141253Y-13850722D01*
X17141253Y-13850722D02*
X17150777Y-13831674D01*
X17150777Y-13831674D02*
X17169825Y-13822150D01*
X17169825Y-13822150D02*
X17207920Y-13822150D01*
X17207920Y-13822150D02*
X17226968Y-13831674D01*
X17226968Y-13831674D02*
X17236492Y-13850722D01*
X17236492Y-13850722D02*
X17236492Y-13869769D01*
X17236492Y-13869769D02*
X17141253Y-13888817D01*
X17303158Y-14031674D02*
X17312682Y-14022150D01*
X17312682Y-14022150D02*
X17331730Y-13993579D01*
X17331730Y-13993579D02*
X17341253Y-13974531D01*
X17341253Y-13974531D02*
X17350777Y-13945960D01*
X17350777Y-13945960D02*
X17360301Y-13898341D01*
X17360301Y-13898341D02*
X17360301Y-13860246D01*
X17360301Y-13860246D02*
X17350777Y-13812627D01*
X17350777Y-13812627D02*
X17341253Y-13784055D01*
X17341253Y-13784055D02*
X17331730Y-13765008D01*
X17331730Y-13765008D02*
X17312682Y-13736436D01*
X17312682Y-13736436D02*
X17303158Y-13726912D01*
D11*
X12650000Y-14088000D02*
X12650000Y-14168000D01*
X12610000Y-14128000D02*
X12690000Y-14128000D01*
D10*
X12988872Y-14019484D02*
X13007920Y-14019484D01*
X13007920Y-14019484D02*
X13026967Y-14029008D01*
X13026967Y-14029008D02*
X13036491Y-14038531D01*
X13036491Y-14038531D02*
X13046015Y-14057579D01*
X13046015Y-14057579D02*
X13055539Y-14095674D01*
X13055539Y-14095674D02*
X13055539Y-14143293D01*
X13055539Y-14143293D02*
X13046015Y-14181388D01*
X13046015Y-14181388D02*
X13036491Y-14200436D01*
X13036491Y-14200436D02*
X13026967Y-14209960D01*
X13026967Y-14209960D02*
X13007920Y-14219484D01*
X13007920Y-14219484D02*
X12988872Y-14219484D01*
X12988872Y-14219484D02*
X12969824Y-14209960D01*
X12969824Y-14209960D02*
X12960301Y-14200436D01*
X12960301Y-14200436D02*
X12950777Y-14181388D01*
X12950777Y-14181388D02*
X12941253Y-14143293D01*
X12941253Y-14143293D02*
X12941253Y-14095674D01*
X12941253Y-14095674D02*
X12950777Y-14057579D01*
X12950777Y-14057579D02*
X12960301Y-14038531D01*
X12960301Y-14038531D02*
X12969824Y-14029008D01*
X12969824Y-14029008D02*
X12988872Y-14019484D01*
X13141253Y-14200436D02*
X13150777Y-14209960D01*
X13150777Y-14209960D02*
X13141253Y-14219484D01*
X13141253Y-14219484D02*
X13131729Y-14209960D01*
X13131729Y-14209960D02*
X13141253Y-14200436D01*
X13141253Y-14200436D02*
X13141253Y-14219484D01*
X13265062Y-14105198D02*
X13246015Y-14095674D01*
X13246015Y-14095674D02*
X13236491Y-14086150D01*
X13236491Y-14086150D02*
X13226967Y-14067103D01*
X13226967Y-14067103D02*
X13226967Y-14057579D01*
X13226967Y-14057579D02*
X13236491Y-14038531D01*
X13236491Y-14038531D02*
X13246015Y-14029008D01*
X13246015Y-14029008D02*
X13265062Y-14019484D01*
X13265062Y-14019484D02*
X13303158Y-14019484D01*
X13303158Y-14019484D02*
X13322205Y-14029008D01*
X13322205Y-14029008D02*
X13331729Y-14038531D01*
X13331729Y-14038531D02*
X13341253Y-14057579D01*
X13341253Y-14057579D02*
X13341253Y-14067103D01*
X13341253Y-14067103D02*
X13331729Y-14086150D01*
X13331729Y-14086150D02*
X13322205Y-14095674D01*
X13322205Y-14095674D02*
X13303158Y-14105198D01*
X13303158Y-14105198D02*
X13265062Y-14105198D01*
X13265062Y-14105198D02*
X13246015Y-14114722D01*
X13246015Y-14114722D02*
X13236491Y-14124246D01*
X13236491Y-14124246D02*
X13226967Y-14143293D01*
X13226967Y-14143293D02*
X13226967Y-14181388D01*
X13226967Y-14181388D02*
X13236491Y-14200436D01*
X13236491Y-14200436D02*
X13246015Y-14209960D01*
X13246015Y-14209960D02*
X13265062Y-14219484D01*
X13265062Y-14219484D02*
X13303158Y-14219484D01*
X13303158Y-14219484D02*
X13322205Y-14209960D01*
X13322205Y-14209960D02*
X13331729Y-14200436D01*
X13331729Y-14200436D02*
X13341253Y-14181388D01*
X13341253Y-14181388D02*
X13341253Y-14143293D01*
X13341253Y-14143293D02*
X13331729Y-14124246D01*
X13331729Y-14124246D02*
X13322205Y-14114722D01*
X13322205Y-14114722D02*
X13303158Y-14105198D01*
X13465062Y-14019484D02*
X13484110Y-14019484D01*
X13484110Y-14019484D02*
X13503158Y-14029008D01*
X13503158Y-14029008D02*
X13512682Y-14038531D01*
X13512682Y-14038531D02*
X13522205Y-14057579D01*
X13522205Y-14057579D02*
X13531729Y-14095674D01*
X13531729Y-14095674D02*
X13531729Y-14143293D01*
X13531729Y-14143293D02*
X13522205Y-14181388D01*
X13522205Y-14181388D02*
X13512682Y-14200436D01*
X13512682Y-14200436D02*
X13503158Y-14209960D01*
X13503158Y-14209960D02*
X13484110Y-14219484D01*
X13484110Y-14219484D02*
X13465062Y-14219484D01*
X13465062Y-14219484D02*
X13446015Y-14209960D01*
X13446015Y-14209960D02*
X13436491Y-14200436D01*
X13436491Y-14200436D02*
X13426967Y-14181388D01*
X13426967Y-14181388D02*
X13417443Y-14143293D01*
X13417443Y-14143293D02*
X13417443Y-14095674D01*
X13417443Y-14095674D02*
X13426967Y-14057579D01*
X13426967Y-14057579D02*
X13436491Y-14038531D01*
X13436491Y-14038531D02*
X13446015Y-14029008D01*
X13446015Y-14029008D02*
X13465062Y-14019484D01*
X13655539Y-14019484D02*
X13674586Y-14019484D01*
X13674586Y-14019484D02*
X13693634Y-14029008D01*
X13693634Y-14029008D02*
X13703158Y-14038531D01*
X13703158Y-14038531D02*
X13712682Y-14057579D01*
X13712682Y-14057579D02*
X13722205Y-14095674D01*
X13722205Y-14095674D02*
X13722205Y-14143293D01*
X13722205Y-14143293D02*
X13712682Y-14181388D01*
X13712682Y-14181388D02*
X13703158Y-14200436D01*
X13703158Y-14200436D02*
X13693634Y-14209960D01*
X13693634Y-14209960D02*
X13674586Y-14219484D01*
X13674586Y-14219484D02*
X13655539Y-14219484D01*
X13655539Y-14219484D02*
X13636491Y-14209960D01*
X13636491Y-14209960D02*
X13626967Y-14200436D01*
X13626967Y-14200436D02*
X13617443Y-14181388D01*
X13617443Y-14181388D02*
X13607920Y-14143293D01*
X13607920Y-14143293D02*
X13607920Y-14095674D01*
X13607920Y-14095674D02*
X13617443Y-14057579D01*
X13617443Y-14057579D02*
X13626967Y-14038531D01*
X13626967Y-14038531D02*
X13636491Y-14029008D01*
X13636491Y-14029008D02*
X13655539Y-14019484D01*
X13807920Y-14219484D02*
X13807920Y-14086150D01*
X13807920Y-14105198D02*
X13817443Y-14095674D01*
X13817443Y-14095674D02*
X13836491Y-14086150D01*
X13836491Y-14086150D02*
X13865063Y-14086150D01*
X13865063Y-14086150D02*
X13884110Y-14095674D01*
X13884110Y-14095674D02*
X13893634Y-14114722D01*
X13893634Y-14114722D02*
X13893634Y-14219484D01*
X13893634Y-14114722D02*
X13903158Y-14095674D01*
X13903158Y-14095674D02*
X13922205Y-14086150D01*
X13922205Y-14086150D02*
X13950777Y-14086150D01*
X13950777Y-14086150D02*
X13969824Y-14095674D01*
X13969824Y-14095674D02*
X13979348Y-14114722D01*
X13979348Y-14114722D02*
X13979348Y-14219484D01*
X14074586Y-14219484D02*
X14074586Y-14086150D01*
X14074586Y-14105198D02*
X14084110Y-14095674D01*
X14084110Y-14095674D02*
X14103158Y-14086150D01*
X14103158Y-14086150D02*
X14131729Y-14086150D01*
X14131729Y-14086150D02*
X14150777Y-14095674D01*
X14150777Y-14095674D02*
X14160301Y-14114722D01*
X14160301Y-14114722D02*
X14160301Y-14219484D01*
X14160301Y-14114722D02*
X14169824Y-14095674D01*
X14169824Y-14095674D02*
X14188872Y-14086150D01*
X14188872Y-14086150D02*
X14217443Y-14086150D01*
X14217443Y-14086150D02*
X14236491Y-14095674D01*
X14236491Y-14095674D02*
X14246015Y-14114722D01*
X14246015Y-14114722D02*
X14246015Y-14219484D01*
X14636491Y-14009960D02*
X14465063Y-14267103D01*
X14893634Y-14019484D02*
X14912682Y-14019484D01*
X14912682Y-14019484D02*
X14931729Y-14029008D01*
X14931729Y-14029008D02*
X14941253Y-14038531D01*
X14941253Y-14038531D02*
X14950777Y-14057579D01*
X14950777Y-14057579D02*
X14960301Y-14095674D01*
X14960301Y-14095674D02*
X14960301Y-14143293D01*
X14960301Y-14143293D02*
X14950777Y-14181388D01*
X14950777Y-14181388D02*
X14941253Y-14200436D01*
X14941253Y-14200436D02*
X14931729Y-14209960D01*
X14931729Y-14209960D02*
X14912682Y-14219484D01*
X14912682Y-14219484D02*
X14893634Y-14219484D01*
X14893634Y-14219484D02*
X14874586Y-14209960D01*
X14874586Y-14209960D02*
X14865063Y-14200436D01*
X14865063Y-14200436D02*
X14855539Y-14181388D01*
X14855539Y-14181388D02*
X14846015Y-14143293D01*
X14846015Y-14143293D02*
X14846015Y-14095674D01*
X14846015Y-14095674D02*
X14855539Y-14057579D01*
X14855539Y-14057579D02*
X14865063Y-14038531D01*
X14865063Y-14038531D02*
X14874586Y-14029008D01*
X14874586Y-14029008D02*
X14893634Y-14019484D01*
X15046015Y-14200436D02*
X15055539Y-14209960D01*
X15055539Y-14209960D02*
X15046015Y-14219484D01*
X15046015Y-14219484D02*
X15036491Y-14209960D01*
X15036491Y-14209960D02*
X15046015Y-14200436D01*
X15046015Y-14200436D02*
X15046015Y-14219484D01*
X15179348Y-14019484D02*
X15198396Y-14019484D01*
X15198396Y-14019484D02*
X15217444Y-14029008D01*
X15217444Y-14029008D02*
X15226967Y-14038531D01*
X15226967Y-14038531D02*
X15236491Y-14057579D01*
X15236491Y-14057579D02*
X15246015Y-14095674D01*
X15246015Y-14095674D02*
X15246015Y-14143293D01*
X15246015Y-14143293D02*
X15236491Y-14181388D01*
X15236491Y-14181388D02*
X15226967Y-14200436D01*
X15226967Y-14200436D02*
X15217444Y-14209960D01*
X15217444Y-14209960D02*
X15198396Y-14219484D01*
X15198396Y-14219484D02*
X15179348Y-14219484D01*
X15179348Y-14219484D02*
X15160301Y-14209960D01*
X15160301Y-14209960D02*
X15150777Y-14200436D01*
X15150777Y-14200436D02*
X15141253Y-14181388D01*
X15141253Y-14181388D02*
X15131729Y-14143293D01*
X15131729Y-14143293D02*
X15131729Y-14095674D01*
X15131729Y-14095674D02*
X15141253Y-14057579D01*
X15141253Y-14057579D02*
X15150777Y-14038531D01*
X15150777Y-14038531D02*
X15160301Y-14029008D01*
X15160301Y-14029008D02*
X15179348Y-14019484D01*
X15312682Y-14019484D02*
X15436491Y-14019484D01*
X15436491Y-14019484D02*
X15369825Y-14095674D01*
X15369825Y-14095674D02*
X15398396Y-14095674D01*
X15398396Y-14095674D02*
X15417444Y-14105198D01*
X15417444Y-14105198D02*
X15426967Y-14114722D01*
X15426967Y-14114722D02*
X15436491Y-14133769D01*
X15436491Y-14133769D02*
X15436491Y-14181388D01*
X15436491Y-14181388D02*
X15426967Y-14200436D01*
X15426967Y-14200436D02*
X15417444Y-14209960D01*
X15417444Y-14209960D02*
X15398396Y-14219484D01*
X15398396Y-14219484D02*
X15341253Y-14219484D01*
X15341253Y-14219484D02*
X15322206Y-14209960D01*
X15322206Y-14209960D02*
X15312682Y-14200436D01*
X15626967Y-14219484D02*
X15512682Y-14219484D01*
X15569825Y-14219484D02*
X15569825Y-14019484D01*
X15569825Y-14019484D02*
X15550777Y-14048055D01*
X15550777Y-14048055D02*
X15531729Y-14067103D01*
X15531729Y-14067103D02*
X15512682Y-14076627D01*
X15807920Y-14019484D02*
X15712682Y-14019484D01*
X15712682Y-14019484D02*
X15703158Y-14114722D01*
X15703158Y-14114722D02*
X15712682Y-14105198D01*
X15712682Y-14105198D02*
X15731729Y-14095674D01*
X15731729Y-14095674D02*
X15779348Y-14095674D01*
X15779348Y-14095674D02*
X15798396Y-14105198D01*
X15798396Y-14105198D02*
X15807920Y-14114722D01*
X15807920Y-14114722D02*
X15817444Y-14133769D01*
X15817444Y-14133769D02*
X15817444Y-14181388D01*
X15817444Y-14181388D02*
X15807920Y-14200436D01*
X15807920Y-14200436D02*
X15798396Y-14209960D01*
X15798396Y-14209960D02*
X15779348Y-14219484D01*
X15779348Y-14219484D02*
X15731729Y-14219484D01*
X15731729Y-14219484D02*
X15712682Y-14209960D01*
X15712682Y-14209960D02*
X15703158Y-14200436D01*
X15893634Y-14019484D02*
X15893634Y-14057579D01*
X15969825Y-14019484D02*
X15969825Y-14057579D01*
X16265063Y-14295674D02*
X16255539Y-14286150D01*
X16255539Y-14286150D02*
X16236491Y-14257579D01*
X16236491Y-14257579D02*
X16226968Y-14238531D01*
X16226968Y-14238531D02*
X16217444Y-14209960D01*
X16217444Y-14209960D02*
X16207920Y-14162341D01*
X16207920Y-14162341D02*
X16207920Y-14124246D01*
X16207920Y-14124246D02*
X16217444Y-14076627D01*
X16217444Y-14076627D02*
X16226968Y-14048055D01*
X16226968Y-14048055D02*
X16236491Y-14029008D01*
X16236491Y-14029008D02*
X16255539Y-14000436D01*
X16255539Y-14000436D02*
X16265063Y-13990912D01*
X16446015Y-14219484D02*
X16331729Y-14219484D01*
X16388872Y-14219484D02*
X16388872Y-14019484D01*
X16388872Y-14019484D02*
X16369825Y-14048055D01*
X16369825Y-14048055D02*
X16350777Y-14067103D01*
X16350777Y-14067103D02*
X16331729Y-14076627D01*
X16512682Y-14019484D02*
X16646015Y-14019484D01*
X16646015Y-14019484D02*
X16560301Y-14219484D01*
X16874587Y-14219484D02*
X16874587Y-14019484D01*
X16960301Y-14219484D02*
X16960301Y-14114722D01*
X16960301Y-14114722D02*
X16950777Y-14095674D01*
X16950777Y-14095674D02*
X16931730Y-14086150D01*
X16931730Y-14086150D02*
X16903158Y-14086150D01*
X16903158Y-14086150D02*
X16884111Y-14095674D01*
X16884111Y-14095674D02*
X16874587Y-14105198D01*
X17084111Y-14219484D02*
X17065063Y-14209960D01*
X17065063Y-14209960D02*
X17055539Y-14200436D01*
X17055539Y-14200436D02*
X17046015Y-14181388D01*
X17046015Y-14181388D02*
X17046015Y-14124246D01*
X17046015Y-14124246D02*
X17055539Y-14105198D01*
X17055539Y-14105198D02*
X17065063Y-14095674D01*
X17065063Y-14095674D02*
X17084111Y-14086150D01*
X17084111Y-14086150D02*
X17112682Y-14086150D01*
X17112682Y-14086150D02*
X17131730Y-14095674D01*
X17131730Y-14095674D02*
X17141253Y-14105198D01*
X17141253Y-14105198D02*
X17150777Y-14124246D01*
X17150777Y-14124246D02*
X17150777Y-14181388D01*
X17150777Y-14181388D02*
X17141253Y-14200436D01*
X17141253Y-14200436D02*
X17131730Y-14209960D01*
X17131730Y-14209960D02*
X17112682Y-14219484D01*
X17112682Y-14219484D02*
X17084111Y-14219484D01*
X17265063Y-14219484D02*
X17246015Y-14209960D01*
X17246015Y-14209960D02*
X17236492Y-14190912D01*
X17236492Y-14190912D02*
X17236492Y-14019484D01*
X17417444Y-14209960D02*
X17398396Y-14219484D01*
X17398396Y-14219484D02*
X17360301Y-14219484D01*
X17360301Y-14219484D02*
X17341253Y-14209960D01*
X17341253Y-14209960D02*
X17331730Y-14190912D01*
X17331730Y-14190912D02*
X17331730Y-14114722D01*
X17331730Y-14114722D02*
X17341253Y-14095674D01*
X17341253Y-14095674D02*
X17360301Y-14086150D01*
X17360301Y-14086150D02*
X17398396Y-14086150D01*
X17398396Y-14086150D02*
X17417444Y-14095674D01*
X17417444Y-14095674D02*
X17426968Y-14114722D01*
X17426968Y-14114722D02*
X17426968Y-14133769D01*
X17426968Y-14133769D02*
X17331730Y-14152817D01*
X17503158Y-14209960D02*
X17522206Y-14219484D01*
X17522206Y-14219484D02*
X17560301Y-14219484D01*
X17560301Y-14219484D02*
X17579349Y-14209960D01*
X17579349Y-14209960D02*
X17588873Y-14190912D01*
X17588873Y-14190912D02*
X17588873Y-14181388D01*
X17588873Y-14181388D02*
X17579349Y-14162341D01*
X17579349Y-14162341D02*
X17560301Y-14152817D01*
X17560301Y-14152817D02*
X17531730Y-14152817D01*
X17531730Y-14152817D02*
X17512682Y-14143293D01*
X17512682Y-14143293D02*
X17503158Y-14124246D01*
X17503158Y-14124246D02*
X17503158Y-14114722D01*
X17503158Y-14114722D02*
X17512682Y-14095674D01*
X17512682Y-14095674D02*
X17531730Y-14086150D01*
X17531730Y-14086150D02*
X17560301Y-14086150D01*
X17560301Y-14086150D02*
X17579349Y-14095674D01*
X17655539Y-14295674D02*
X17665063Y-14286150D01*
X17665063Y-14286150D02*
X17684111Y-14257579D01*
X17684111Y-14257579D02*
X17693634Y-14238531D01*
X17693634Y-14238531D02*
X17703158Y-14209960D01*
X17703158Y-14209960D02*
X17712682Y-14162341D01*
X17712682Y-14162341D02*
X17712682Y-14124246D01*
X17712682Y-14124246D02*
X17703158Y-14076627D01*
X17703158Y-14076627D02*
X17693634Y-14048055D01*
X17693634Y-14048055D02*
X17684111Y-14029008D01*
X17684111Y-14029008D02*
X17665063Y-14000436D01*
X17665063Y-14000436D02*
X17655539Y-13990912D01*
D11*
X12675356Y-14427356D02*
X12675356Y-14356644D01*
X12604644Y-14356644D01*
X12604644Y-14427356D01*
X12675356Y-14427356D01*
D10*
X13055539Y-14483484D02*
X12941253Y-14483484D01*
X12998396Y-14483484D02*
X12998396Y-14283484D01*
X12998396Y-14283484D02*
X12979348Y-14312055D01*
X12979348Y-14312055D02*
X12960301Y-14331103D01*
X12960301Y-14331103D02*
X12941253Y-14340627D01*
X13141253Y-14464436D02*
X13150777Y-14473960D01*
X13150777Y-14473960D02*
X13141253Y-14483484D01*
X13141253Y-14483484D02*
X13131729Y-14473960D01*
X13131729Y-14473960D02*
X13141253Y-14464436D01*
X13141253Y-14464436D02*
X13141253Y-14483484D01*
X13274586Y-14283484D02*
X13293634Y-14283484D01*
X13293634Y-14283484D02*
X13312682Y-14293008D01*
X13312682Y-14293008D02*
X13322205Y-14302531D01*
X13322205Y-14302531D02*
X13331729Y-14321579D01*
X13331729Y-14321579D02*
X13341253Y-14359674D01*
X13341253Y-14359674D02*
X13341253Y-14407293D01*
X13341253Y-14407293D02*
X13331729Y-14445388D01*
X13331729Y-14445388D02*
X13322205Y-14464436D01*
X13322205Y-14464436D02*
X13312682Y-14473960D01*
X13312682Y-14473960D02*
X13293634Y-14483484D01*
X13293634Y-14483484D02*
X13274586Y-14483484D01*
X13274586Y-14483484D02*
X13255539Y-14473960D01*
X13255539Y-14473960D02*
X13246015Y-14464436D01*
X13246015Y-14464436D02*
X13236491Y-14445388D01*
X13236491Y-14445388D02*
X13226967Y-14407293D01*
X13226967Y-14407293D02*
X13226967Y-14359674D01*
X13226967Y-14359674D02*
X13236491Y-14321579D01*
X13236491Y-14321579D02*
X13246015Y-14302531D01*
X13246015Y-14302531D02*
X13255539Y-14293008D01*
X13255539Y-14293008D02*
X13274586Y-14283484D01*
X13465062Y-14283484D02*
X13484110Y-14283484D01*
X13484110Y-14283484D02*
X13503158Y-14293008D01*
X13503158Y-14293008D02*
X13512682Y-14302531D01*
X13512682Y-14302531D02*
X13522205Y-14321579D01*
X13522205Y-14321579D02*
X13531729Y-14359674D01*
X13531729Y-14359674D02*
X13531729Y-14407293D01*
X13531729Y-14407293D02*
X13522205Y-14445388D01*
X13522205Y-14445388D02*
X13512682Y-14464436D01*
X13512682Y-14464436D02*
X13503158Y-14473960D01*
X13503158Y-14473960D02*
X13484110Y-14483484D01*
X13484110Y-14483484D02*
X13465062Y-14483484D01*
X13465062Y-14483484D02*
X13446015Y-14473960D01*
X13446015Y-14473960D02*
X13436491Y-14464436D01*
X13436491Y-14464436D02*
X13426967Y-14445388D01*
X13426967Y-14445388D02*
X13417443Y-14407293D01*
X13417443Y-14407293D02*
X13417443Y-14359674D01*
X13417443Y-14359674D02*
X13426967Y-14321579D01*
X13426967Y-14321579D02*
X13436491Y-14302531D01*
X13436491Y-14302531D02*
X13446015Y-14293008D01*
X13446015Y-14293008D02*
X13465062Y-14283484D01*
X13655539Y-14283484D02*
X13674586Y-14283484D01*
X13674586Y-14283484D02*
X13693634Y-14293008D01*
X13693634Y-14293008D02*
X13703158Y-14302531D01*
X13703158Y-14302531D02*
X13712682Y-14321579D01*
X13712682Y-14321579D02*
X13722205Y-14359674D01*
X13722205Y-14359674D02*
X13722205Y-14407293D01*
X13722205Y-14407293D02*
X13712682Y-14445388D01*
X13712682Y-14445388D02*
X13703158Y-14464436D01*
X13703158Y-14464436D02*
X13693634Y-14473960D01*
X13693634Y-14473960D02*
X13674586Y-14483484D01*
X13674586Y-14483484D02*
X13655539Y-14483484D01*
X13655539Y-14483484D02*
X13636491Y-14473960D01*
X13636491Y-14473960D02*
X13626967Y-14464436D01*
X13626967Y-14464436D02*
X13617443Y-14445388D01*
X13617443Y-14445388D02*
X13607920Y-14407293D01*
X13607920Y-14407293D02*
X13607920Y-14359674D01*
X13607920Y-14359674D02*
X13617443Y-14321579D01*
X13617443Y-14321579D02*
X13626967Y-14302531D01*
X13626967Y-14302531D02*
X13636491Y-14293008D01*
X13636491Y-14293008D02*
X13655539Y-14283484D01*
X13807920Y-14483484D02*
X13807920Y-14350150D01*
X13807920Y-14369198D02*
X13817443Y-14359674D01*
X13817443Y-14359674D02*
X13836491Y-14350150D01*
X13836491Y-14350150D02*
X13865063Y-14350150D01*
X13865063Y-14350150D02*
X13884110Y-14359674D01*
X13884110Y-14359674D02*
X13893634Y-14378722D01*
X13893634Y-14378722D02*
X13893634Y-14483484D01*
X13893634Y-14378722D02*
X13903158Y-14359674D01*
X13903158Y-14359674D02*
X13922205Y-14350150D01*
X13922205Y-14350150D02*
X13950777Y-14350150D01*
X13950777Y-14350150D02*
X13969824Y-14359674D01*
X13969824Y-14359674D02*
X13979348Y-14378722D01*
X13979348Y-14378722D02*
X13979348Y-14483484D01*
X14074586Y-14483484D02*
X14074586Y-14350150D01*
X14074586Y-14369198D02*
X14084110Y-14359674D01*
X14084110Y-14359674D02*
X14103158Y-14350150D01*
X14103158Y-14350150D02*
X14131729Y-14350150D01*
X14131729Y-14350150D02*
X14150777Y-14359674D01*
X14150777Y-14359674D02*
X14160301Y-14378722D01*
X14160301Y-14378722D02*
X14160301Y-14483484D01*
X14160301Y-14378722D02*
X14169824Y-14359674D01*
X14169824Y-14359674D02*
X14188872Y-14350150D01*
X14188872Y-14350150D02*
X14217443Y-14350150D01*
X14217443Y-14350150D02*
X14236491Y-14359674D01*
X14236491Y-14359674D02*
X14246015Y-14378722D01*
X14246015Y-14378722D02*
X14246015Y-14483484D01*
X14636491Y-14273960D02*
X14465063Y-14531103D01*
X14893634Y-14283484D02*
X14912682Y-14283484D01*
X14912682Y-14283484D02*
X14931729Y-14293008D01*
X14931729Y-14293008D02*
X14941253Y-14302531D01*
X14941253Y-14302531D02*
X14950777Y-14321579D01*
X14950777Y-14321579D02*
X14960301Y-14359674D01*
X14960301Y-14359674D02*
X14960301Y-14407293D01*
X14960301Y-14407293D02*
X14950777Y-14445388D01*
X14950777Y-14445388D02*
X14941253Y-14464436D01*
X14941253Y-14464436D02*
X14931729Y-14473960D01*
X14931729Y-14473960D02*
X14912682Y-14483484D01*
X14912682Y-14483484D02*
X14893634Y-14483484D01*
X14893634Y-14483484D02*
X14874586Y-14473960D01*
X14874586Y-14473960D02*
X14865063Y-14464436D01*
X14865063Y-14464436D02*
X14855539Y-14445388D01*
X14855539Y-14445388D02*
X14846015Y-14407293D01*
X14846015Y-14407293D02*
X14846015Y-14359674D01*
X14846015Y-14359674D02*
X14855539Y-14321579D01*
X14855539Y-14321579D02*
X14865063Y-14302531D01*
X14865063Y-14302531D02*
X14874586Y-14293008D01*
X14874586Y-14293008D02*
X14893634Y-14283484D01*
X15046015Y-14464436D02*
X15055539Y-14473960D01*
X15055539Y-14473960D02*
X15046015Y-14483484D01*
X15046015Y-14483484D02*
X15036491Y-14473960D01*
X15036491Y-14473960D02*
X15046015Y-14464436D01*
X15046015Y-14464436D02*
X15046015Y-14483484D01*
X15179348Y-14283484D02*
X15198396Y-14283484D01*
X15198396Y-14283484D02*
X15217444Y-14293008D01*
X15217444Y-14293008D02*
X15226967Y-14302531D01*
X15226967Y-14302531D02*
X15236491Y-14321579D01*
X15236491Y-14321579D02*
X15246015Y-14359674D01*
X15246015Y-14359674D02*
X15246015Y-14407293D01*
X15246015Y-14407293D02*
X15236491Y-14445388D01*
X15236491Y-14445388D02*
X15226967Y-14464436D01*
X15226967Y-14464436D02*
X15217444Y-14473960D01*
X15217444Y-14473960D02*
X15198396Y-14483484D01*
X15198396Y-14483484D02*
X15179348Y-14483484D01*
X15179348Y-14483484D02*
X15160301Y-14473960D01*
X15160301Y-14473960D02*
X15150777Y-14464436D01*
X15150777Y-14464436D02*
X15141253Y-14445388D01*
X15141253Y-14445388D02*
X15131729Y-14407293D01*
X15131729Y-14407293D02*
X15131729Y-14359674D01*
X15131729Y-14359674D02*
X15141253Y-14321579D01*
X15141253Y-14321579D02*
X15150777Y-14302531D01*
X15150777Y-14302531D02*
X15160301Y-14293008D01*
X15160301Y-14293008D02*
X15179348Y-14283484D01*
X15312682Y-14283484D02*
X15436491Y-14283484D01*
X15436491Y-14283484D02*
X15369825Y-14359674D01*
X15369825Y-14359674D02*
X15398396Y-14359674D01*
X15398396Y-14359674D02*
X15417444Y-14369198D01*
X15417444Y-14369198D02*
X15426967Y-14378722D01*
X15426967Y-14378722D02*
X15436491Y-14397769D01*
X15436491Y-14397769D02*
X15436491Y-14445388D01*
X15436491Y-14445388D02*
X15426967Y-14464436D01*
X15426967Y-14464436D02*
X15417444Y-14473960D01*
X15417444Y-14473960D02*
X15398396Y-14483484D01*
X15398396Y-14483484D02*
X15341253Y-14483484D01*
X15341253Y-14483484D02*
X15322206Y-14473960D01*
X15322206Y-14473960D02*
X15312682Y-14464436D01*
X15531729Y-14483484D02*
X15569825Y-14483484D01*
X15569825Y-14483484D02*
X15588872Y-14473960D01*
X15588872Y-14473960D02*
X15598396Y-14464436D01*
X15598396Y-14464436D02*
X15617444Y-14435865D01*
X15617444Y-14435865D02*
X15626967Y-14397769D01*
X15626967Y-14397769D02*
X15626967Y-14321579D01*
X15626967Y-14321579D02*
X15617444Y-14302531D01*
X15617444Y-14302531D02*
X15607920Y-14293008D01*
X15607920Y-14293008D02*
X15588872Y-14283484D01*
X15588872Y-14283484D02*
X15550777Y-14283484D01*
X15550777Y-14283484D02*
X15531729Y-14293008D01*
X15531729Y-14293008D02*
X15522206Y-14302531D01*
X15522206Y-14302531D02*
X15512682Y-14321579D01*
X15512682Y-14321579D02*
X15512682Y-14369198D01*
X15512682Y-14369198D02*
X15522206Y-14388246D01*
X15522206Y-14388246D02*
X15531729Y-14397769D01*
X15531729Y-14397769D02*
X15550777Y-14407293D01*
X15550777Y-14407293D02*
X15588872Y-14407293D01*
X15588872Y-14407293D02*
X15607920Y-14397769D01*
X15607920Y-14397769D02*
X15617444Y-14388246D01*
X15617444Y-14388246D02*
X15626967Y-14369198D01*
X15798396Y-14350150D02*
X15798396Y-14483484D01*
X15750777Y-14273960D02*
X15703158Y-14416817D01*
X15703158Y-14416817D02*
X15826967Y-14416817D01*
X15893634Y-14283484D02*
X15893634Y-14321579D01*
X15969825Y-14283484D02*
X15969825Y-14321579D01*
X16265063Y-14559674D02*
X16255539Y-14550150D01*
X16255539Y-14550150D02*
X16236491Y-14521579D01*
X16236491Y-14521579D02*
X16226968Y-14502531D01*
X16226968Y-14502531D02*
X16217444Y-14473960D01*
X16217444Y-14473960D02*
X16207920Y-14426341D01*
X16207920Y-14426341D02*
X16207920Y-14388246D01*
X16207920Y-14388246D02*
X16217444Y-14340627D01*
X16217444Y-14340627D02*
X16226968Y-14312055D01*
X16226968Y-14312055D02*
X16236491Y-14293008D01*
X16236491Y-14293008D02*
X16255539Y-14264436D01*
X16255539Y-14264436D02*
X16265063Y-14254912D01*
X16426968Y-14350150D02*
X16426968Y-14483484D01*
X16379348Y-14273960D02*
X16331729Y-14416817D01*
X16331729Y-14416817D02*
X16455539Y-14416817D01*
X16522206Y-14302531D02*
X16531729Y-14293008D01*
X16531729Y-14293008D02*
X16550777Y-14283484D01*
X16550777Y-14283484D02*
X16598396Y-14283484D01*
X16598396Y-14283484D02*
X16617444Y-14293008D01*
X16617444Y-14293008D02*
X16626968Y-14302531D01*
X16626968Y-14302531D02*
X16636491Y-14321579D01*
X16636491Y-14321579D02*
X16636491Y-14340627D01*
X16636491Y-14340627D02*
X16626968Y-14369198D01*
X16626968Y-14369198D02*
X16512682Y-14483484D01*
X16512682Y-14483484D02*
X16636491Y-14483484D01*
X16874587Y-14483484D02*
X16874587Y-14283484D01*
X16960301Y-14483484D02*
X16960301Y-14378722D01*
X16960301Y-14378722D02*
X16950777Y-14359674D01*
X16950777Y-14359674D02*
X16931730Y-14350150D01*
X16931730Y-14350150D02*
X16903158Y-14350150D01*
X16903158Y-14350150D02*
X16884111Y-14359674D01*
X16884111Y-14359674D02*
X16874587Y-14369198D01*
X17084111Y-14483484D02*
X17065063Y-14473960D01*
X17065063Y-14473960D02*
X17055539Y-14464436D01*
X17055539Y-14464436D02*
X17046015Y-14445388D01*
X17046015Y-14445388D02*
X17046015Y-14388246D01*
X17046015Y-14388246D02*
X17055539Y-14369198D01*
X17055539Y-14369198D02*
X17065063Y-14359674D01*
X17065063Y-14359674D02*
X17084111Y-14350150D01*
X17084111Y-14350150D02*
X17112682Y-14350150D01*
X17112682Y-14350150D02*
X17131730Y-14359674D01*
X17131730Y-14359674D02*
X17141253Y-14369198D01*
X17141253Y-14369198D02*
X17150777Y-14388246D01*
X17150777Y-14388246D02*
X17150777Y-14445388D01*
X17150777Y-14445388D02*
X17141253Y-14464436D01*
X17141253Y-14464436D02*
X17131730Y-14473960D01*
X17131730Y-14473960D02*
X17112682Y-14483484D01*
X17112682Y-14483484D02*
X17084111Y-14483484D01*
X17265063Y-14483484D02*
X17246015Y-14473960D01*
X17246015Y-14473960D02*
X17236492Y-14454912D01*
X17236492Y-14454912D02*
X17236492Y-14283484D01*
X17417444Y-14473960D02*
X17398396Y-14483484D01*
X17398396Y-14483484D02*
X17360301Y-14483484D01*
X17360301Y-14483484D02*
X17341253Y-14473960D01*
X17341253Y-14473960D02*
X17331730Y-14454912D01*
X17331730Y-14454912D02*
X17331730Y-14378722D01*
X17331730Y-14378722D02*
X17341253Y-14359674D01*
X17341253Y-14359674D02*
X17360301Y-14350150D01*
X17360301Y-14350150D02*
X17398396Y-14350150D01*
X17398396Y-14350150D02*
X17417444Y-14359674D01*
X17417444Y-14359674D02*
X17426968Y-14378722D01*
X17426968Y-14378722D02*
X17426968Y-14397769D01*
X17426968Y-14397769D02*
X17331730Y-14416817D01*
X17503158Y-14473960D02*
X17522206Y-14483484D01*
X17522206Y-14483484D02*
X17560301Y-14483484D01*
X17560301Y-14483484D02*
X17579349Y-14473960D01*
X17579349Y-14473960D02*
X17588873Y-14454912D01*
X17588873Y-14454912D02*
X17588873Y-14445388D01*
X17588873Y-14445388D02*
X17579349Y-14426341D01*
X17579349Y-14426341D02*
X17560301Y-14416817D01*
X17560301Y-14416817D02*
X17531730Y-14416817D01*
X17531730Y-14416817D02*
X17512682Y-14407293D01*
X17512682Y-14407293D02*
X17503158Y-14388246D01*
X17503158Y-14388246D02*
X17503158Y-14378722D01*
X17503158Y-14378722D02*
X17512682Y-14359674D01*
X17512682Y-14359674D02*
X17531730Y-14350150D01*
X17531730Y-14350150D02*
X17560301Y-14350150D01*
X17560301Y-14350150D02*
X17579349Y-14359674D01*
X17655539Y-14559674D02*
X17665063Y-14550150D01*
X17665063Y-14550150D02*
X17684111Y-14521579D01*
X17684111Y-14521579D02*
X17693634Y-14502531D01*
X17693634Y-14502531D02*
X17703158Y-14473960D01*
X17703158Y-14473960D02*
X17712682Y-14426341D01*
X17712682Y-14426341D02*
X17712682Y-14388246D01*
X17712682Y-14388246D02*
X17703158Y-14340627D01*
X17703158Y-14340627D02*
X17693634Y-14312055D01*
X17693634Y-14312055D02*
X17684111Y-14293008D01*
X17684111Y-14293008D02*
X17665063Y-14264436D01*
X17665063Y-14264436D02*
X17655539Y-14254912D01*
D12*
X12635000Y-14711000D02*
X12690000Y-14656000D01*
X12635000Y-14601000D01*
X12580000Y-14656000D01*
X12635000Y-14711000D01*
D10*
X13055539Y-14747484D02*
X12941253Y-14747484D01*
X12998396Y-14747484D02*
X12998396Y-14547484D01*
X12998396Y-14547484D02*
X12979348Y-14576055D01*
X12979348Y-14576055D02*
X12960301Y-14595103D01*
X12960301Y-14595103D02*
X12941253Y-14604627D01*
X13141253Y-14728436D02*
X13150777Y-14737960D01*
X13150777Y-14737960D02*
X13141253Y-14747484D01*
X13141253Y-14747484D02*
X13131729Y-14737960D01*
X13131729Y-14737960D02*
X13141253Y-14728436D01*
X13141253Y-14728436D02*
X13141253Y-14747484D01*
X13341253Y-14747484D02*
X13226967Y-14747484D01*
X13284110Y-14747484D02*
X13284110Y-14547484D01*
X13284110Y-14547484D02*
X13265062Y-14576055D01*
X13265062Y-14576055D02*
X13246015Y-14595103D01*
X13246015Y-14595103D02*
X13226967Y-14604627D01*
X13465062Y-14547484D02*
X13484110Y-14547484D01*
X13484110Y-14547484D02*
X13503158Y-14557008D01*
X13503158Y-14557008D02*
X13512682Y-14566531D01*
X13512682Y-14566531D02*
X13522205Y-14585579D01*
X13522205Y-14585579D02*
X13531729Y-14623674D01*
X13531729Y-14623674D02*
X13531729Y-14671293D01*
X13531729Y-14671293D02*
X13522205Y-14709388D01*
X13522205Y-14709388D02*
X13512682Y-14728436D01*
X13512682Y-14728436D02*
X13503158Y-14737960D01*
X13503158Y-14737960D02*
X13484110Y-14747484D01*
X13484110Y-14747484D02*
X13465062Y-14747484D01*
X13465062Y-14747484D02*
X13446015Y-14737960D01*
X13446015Y-14737960D02*
X13436491Y-14728436D01*
X13436491Y-14728436D02*
X13426967Y-14709388D01*
X13426967Y-14709388D02*
X13417443Y-14671293D01*
X13417443Y-14671293D02*
X13417443Y-14623674D01*
X13417443Y-14623674D02*
X13426967Y-14585579D01*
X13426967Y-14585579D02*
X13436491Y-14566531D01*
X13436491Y-14566531D02*
X13446015Y-14557008D01*
X13446015Y-14557008D02*
X13465062Y-14547484D01*
X13655539Y-14547484D02*
X13674586Y-14547484D01*
X13674586Y-14547484D02*
X13693634Y-14557008D01*
X13693634Y-14557008D02*
X13703158Y-14566531D01*
X13703158Y-14566531D02*
X13712682Y-14585579D01*
X13712682Y-14585579D02*
X13722205Y-14623674D01*
X13722205Y-14623674D02*
X13722205Y-14671293D01*
X13722205Y-14671293D02*
X13712682Y-14709388D01*
X13712682Y-14709388D02*
X13703158Y-14728436D01*
X13703158Y-14728436D02*
X13693634Y-14737960D01*
X13693634Y-14737960D02*
X13674586Y-14747484D01*
X13674586Y-14747484D02*
X13655539Y-14747484D01*
X13655539Y-14747484D02*
X13636491Y-14737960D01*
X13636491Y-14737960D02*
X13626967Y-14728436D01*
X13626967Y-14728436D02*
X13617443Y-14709388D01*
X13617443Y-14709388D02*
X13607920Y-14671293D01*
X13607920Y-14671293D02*
X13607920Y-14623674D01*
X13607920Y-14623674D02*
X13617443Y-14585579D01*
X13617443Y-14585579D02*
X13626967Y-14566531D01*
X13626967Y-14566531D02*
X13636491Y-14557008D01*
X13636491Y-14557008D02*
X13655539Y-14547484D01*
X13807920Y-14747484D02*
X13807920Y-14614150D01*
X13807920Y-14633198D02*
X13817443Y-14623674D01*
X13817443Y-14623674D02*
X13836491Y-14614150D01*
X13836491Y-14614150D02*
X13865063Y-14614150D01*
X13865063Y-14614150D02*
X13884110Y-14623674D01*
X13884110Y-14623674D02*
X13893634Y-14642722D01*
X13893634Y-14642722D02*
X13893634Y-14747484D01*
X13893634Y-14642722D02*
X13903158Y-14623674D01*
X13903158Y-14623674D02*
X13922205Y-14614150D01*
X13922205Y-14614150D02*
X13950777Y-14614150D01*
X13950777Y-14614150D02*
X13969824Y-14623674D01*
X13969824Y-14623674D02*
X13979348Y-14642722D01*
X13979348Y-14642722D02*
X13979348Y-14747484D01*
X14074586Y-14747484D02*
X14074586Y-14614150D01*
X14074586Y-14633198D02*
X14084110Y-14623674D01*
X14084110Y-14623674D02*
X14103158Y-14614150D01*
X14103158Y-14614150D02*
X14131729Y-14614150D01*
X14131729Y-14614150D02*
X14150777Y-14623674D01*
X14150777Y-14623674D02*
X14160301Y-14642722D01*
X14160301Y-14642722D02*
X14160301Y-14747484D01*
X14160301Y-14642722D02*
X14169824Y-14623674D01*
X14169824Y-14623674D02*
X14188872Y-14614150D01*
X14188872Y-14614150D02*
X14217443Y-14614150D01*
X14217443Y-14614150D02*
X14236491Y-14623674D01*
X14236491Y-14623674D02*
X14246015Y-14642722D01*
X14246015Y-14642722D02*
X14246015Y-14747484D01*
X14636491Y-14537960D02*
X14465063Y-14795103D01*
X14893634Y-14547484D02*
X14912682Y-14547484D01*
X14912682Y-14547484D02*
X14931729Y-14557008D01*
X14931729Y-14557008D02*
X14941253Y-14566531D01*
X14941253Y-14566531D02*
X14950777Y-14585579D01*
X14950777Y-14585579D02*
X14960301Y-14623674D01*
X14960301Y-14623674D02*
X14960301Y-14671293D01*
X14960301Y-14671293D02*
X14950777Y-14709388D01*
X14950777Y-14709388D02*
X14941253Y-14728436D01*
X14941253Y-14728436D02*
X14931729Y-14737960D01*
X14931729Y-14737960D02*
X14912682Y-14747484D01*
X14912682Y-14747484D02*
X14893634Y-14747484D01*
X14893634Y-14747484D02*
X14874586Y-14737960D01*
X14874586Y-14737960D02*
X14865063Y-14728436D01*
X14865063Y-14728436D02*
X14855539Y-14709388D01*
X14855539Y-14709388D02*
X14846015Y-14671293D01*
X14846015Y-14671293D02*
X14846015Y-14623674D01*
X14846015Y-14623674D02*
X14855539Y-14585579D01*
X14855539Y-14585579D02*
X14865063Y-14566531D01*
X14865063Y-14566531D02*
X14874586Y-14557008D01*
X14874586Y-14557008D02*
X14893634Y-14547484D01*
X15046015Y-14728436D02*
X15055539Y-14737960D01*
X15055539Y-14737960D02*
X15046015Y-14747484D01*
X15046015Y-14747484D02*
X15036491Y-14737960D01*
X15036491Y-14737960D02*
X15046015Y-14728436D01*
X15046015Y-14728436D02*
X15046015Y-14747484D01*
X15179348Y-14547484D02*
X15198396Y-14547484D01*
X15198396Y-14547484D02*
X15217444Y-14557008D01*
X15217444Y-14557008D02*
X15226967Y-14566531D01*
X15226967Y-14566531D02*
X15236491Y-14585579D01*
X15236491Y-14585579D02*
X15246015Y-14623674D01*
X15246015Y-14623674D02*
X15246015Y-14671293D01*
X15246015Y-14671293D02*
X15236491Y-14709388D01*
X15236491Y-14709388D02*
X15226967Y-14728436D01*
X15226967Y-14728436D02*
X15217444Y-14737960D01*
X15217444Y-14737960D02*
X15198396Y-14747484D01*
X15198396Y-14747484D02*
X15179348Y-14747484D01*
X15179348Y-14747484D02*
X15160301Y-14737960D01*
X15160301Y-14737960D02*
X15150777Y-14728436D01*
X15150777Y-14728436D02*
X15141253Y-14709388D01*
X15141253Y-14709388D02*
X15131729Y-14671293D01*
X15131729Y-14671293D02*
X15131729Y-14623674D01*
X15131729Y-14623674D02*
X15141253Y-14585579D01*
X15141253Y-14585579D02*
X15150777Y-14566531D01*
X15150777Y-14566531D02*
X15160301Y-14557008D01*
X15160301Y-14557008D02*
X15179348Y-14547484D01*
X15417444Y-14614150D02*
X15417444Y-14747484D01*
X15369825Y-14537960D02*
X15322206Y-14680817D01*
X15322206Y-14680817D02*
X15446015Y-14680817D01*
X15503158Y-14547484D02*
X15626967Y-14547484D01*
X15626967Y-14547484D02*
X15560301Y-14623674D01*
X15560301Y-14623674D02*
X15588872Y-14623674D01*
X15588872Y-14623674D02*
X15607920Y-14633198D01*
X15607920Y-14633198D02*
X15617444Y-14642722D01*
X15617444Y-14642722D02*
X15626967Y-14661769D01*
X15626967Y-14661769D02*
X15626967Y-14709388D01*
X15626967Y-14709388D02*
X15617444Y-14728436D01*
X15617444Y-14728436D02*
X15607920Y-14737960D01*
X15607920Y-14737960D02*
X15588872Y-14747484D01*
X15588872Y-14747484D02*
X15531729Y-14747484D01*
X15531729Y-14747484D02*
X15512682Y-14737960D01*
X15512682Y-14737960D02*
X15503158Y-14728436D01*
X15693634Y-14547484D02*
X15817444Y-14547484D01*
X15817444Y-14547484D02*
X15750777Y-14623674D01*
X15750777Y-14623674D02*
X15779348Y-14623674D01*
X15779348Y-14623674D02*
X15798396Y-14633198D01*
X15798396Y-14633198D02*
X15807920Y-14642722D01*
X15807920Y-14642722D02*
X15817444Y-14661769D01*
X15817444Y-14661769D02*
X15817444Y-14709388D01*
X15817444Y-14709388D02*
X15807920Y-14728436D01*
X15807920Y-14728436D02*
X15798396Y-14737960D01*
X15798396Y-14737960D02*
X15779348Y-14747484D01*
X15779348Y-14747484D02*
X15722206Y-14747484D01*
X15722206Y-14747484D02*
X15703158Y-14737960D01*
X15703158Y-14737960D02*
X15693634Y-14728436D01*
X15893634Y-14547484D02*
X15893634Y-14585579D01*
X15969825Y-14547484D02*
X15969825Y-14585579D01*
X16265063Y-14823674D02*
X16255539Y-14814150D01*
X16255539Y-14814150D02*
X16236491Y-14785579D01*
X16236491Y-14785579D02*
X16226968Y-14766531D01*
X16226968Y-14766531D02*
X16217444Y-14737960D01*
X16217444Y-14737960D02*
X16207920Y-14690341D01*
X16207920Y-14690341D02*
X16207920Y-14652246D01*
X16207920Y-14652246D02*
X16217444Y-14604627D01*
X16217444Y-14604627D02*
X16226968Y-14576055D01*
X16226968Y-14576055D02*
X16236491Y-14557008D01*
X16236491Y-14557008D02*
X16255539Y-14528436D01*
X16255539Y-14528436D02*
X16265063Y-14518912D01*
X16331729Y-14566531D02*
X16341253Y-14557008D01*
X16341253Y-14557008D02*
X16360301Y-14547484D01*
X16360301Y-14547484D02*
X16407920Y-14547484D01*
X16407920Y-14547484D02*
X16426968Y-14557008D01*
X16426968Y-14557008D02*
X16436491Y-14566531D01*
X16436491Y-14566531D02*
X16446015Y-14585579D01*
X16446015Y-14585579D02*
X16446015Y-14604627D01*
X16446015Y-14604627D02*
X16436491Y-14633198D01*
X16436491Y-14633198D02*
X16322206Y-14747484D01*
X16322206Y-14747484D02*
X16446015Y-14747484D01*
X16684110Y-14747484D02*
X16684110Y-14547484D01*
X16769825Y-14747484D02*
X16769825Y-14642722D01*
X16769825Y-14642722D02*
X16760301Y-14623674D01*
X16760301Y-14623674D02*
X16741253Y-14614150D01*
X16741253Y-14614150D02*
X16712682Y-14614150D01*
X16712682Y-14614150D02*
X16693634Y-14623674D01*
X16693634Y-14623674D02*
X16684110Y-14633198D01*
X16893634Y-14747484D02*
X16874587Y-14737960D01*
X16874587Y-14737960D02*
X16865063Y-14728436D01*
X16865063Y-14728436D02*
X16855539Y-14709388D01*
X16855539Y-14709388D02*
X16855539Y-14652246D01*
X16855539Y-14652246D02*
X16865063Y-14633198D01*
X16865063Y-14633198D02*
X16874587Y-14623674D01*
X16874587Y-14623674D02*
X16893634Y-14614150D01*
X16893634Y-14614150D02*
X16922206Y-14614150D01*
X16922206Y-14614150D02*
X16941253Y-14623674D01*
X16941253Y-14623674D02*
X16950777Y-14633198D01*
X16950777Y-14633198D02*
X16960301Y-14652246D01*
X16960301Y-14652246D02*
X16960301Y-14709388D01*
X16960301Y-14709388D02*
X16950777Y-14728436D01*
X16950777Y-14728436D02*
X16941253Y-14737960D01*
X16941253Y-14737960D02*
X16922206Y-14747484D01*
X16922206Y-14747484D02*
X16893634Y-14747484D01*
X17074587Y-14747484D02*
X17055539Y-14737960D01*
X17055539Y-14737960D02*
X17046015Y-14718912D01*
X17046015Y-14718912D02*
X17046015Y-14547484D01*
X17226968Y-14737960D02*
X17207920Y-14747484D01*
X17207920Y-14747484D02*
X17169825Y-14747484D01*
X17169825Y-14747484D02*
X17150777Y-14737960D01*
X17150777Y-14737960D02*
X17141253Y-14718912D01*
X17141253Y-14718912D02*
X17141253Y-14642722D01*
X17141253Y-14642722D02*
X17150777Y-14623674D01*
X17150777Y-14623674D02*
X17169825Y-14614150D01*
X17169825Y-14614150D02*
X17207920Y-14614150D01*
X17207920Y-14614150D02*
X17226968Y-14623674D01*
X17226968Y-14623674D02*
X17236492Y-14642722D01*
X17236492Y-14642722D02*
X17236492Y-14661769D01*
X17236492Y-14661769D02*
X17141253Y-14680817D01*
X17312682Y-14737960D02*
X17331730Y-14747484D01*
X17331730Y-14747484D02*
X17369825Y-14747484D01*
X17369825Y-14747484D02*
X17388873Y-14737960D01*
X17388873Y-14737960D02*
X17398396Y-14718912D01*
X17398396Y-14718912D02*
X17398396Y-14709388D01*
X17398396Y-14709388D02*
X17388873Y-14690341D01*
X17388873Y-14690341D02*
X17369825Y-14680817D01*
X17369825Y-14680817D02*
X17341253Y-14680817D01*
X17341253Y-14680817D02*
X17322206Y-14671293D01*
X17322206Y-14671293D02*
X17312682Y-14652246D01*
X17312682Y-14652246D02*
X17312682Y-14642722D01*
X17312682Y-14642722D02*
X17322206Y-14623674D01*
X17322206Y-14623674D02*
X17341253Y-14614150D01*
X17341253Y-14614150D02*
X17369825Y-14614150D01*
X17369825Y-14614150D02*
X17388873Y-14623674D01*
X17465063Y-14823674D02*
X17474587Y-14814150D01*
X17474587Y-14814150D02*
X17493634Y-14785579D01*
X17493634Y-14785579D02*
X17503158Y-14766531D01*
X17503158Y-14766531D02*
X17512682Y-14737960D01*
X17512682Y-14737960D02*
X17522206Y-14690341D01*
X17522206Y-14690341D02*
X17522206Y-14652246D01*
X17522206Y-14652246D02*
X17512682Y-14604627D01*
X17512682Y-14604627D02*
X17503158Y-14576055D01*
X17503158Y-14576055D02*
X17493634Y-14557008D01*
X17493634Y-14557008D02*
X17474587Y-14528436D01*
X17474587Y-14528436D02*
X17465063Y-14518912D01*
D13*
X12560000Y-14855000D02*
X12690000Y-14985000D01*
X12690000Y-14855000D02*
X12560000Y-14985000D01*
X12690000Y-14920000D02*
G75*
G02*
X12560000Y-14920000I-65000J0D01*
G01*
X12560000Y-14920000D02*
G75*
G02*
X12690000Y-14920000I65000J0D01*
G01*
D10*
X13055539Y-15011484D02*
X12941253Y-15011484D01*
X12998396Y-15011484D02*
X12998396Y-14811484D01*
X12998396Y-14811484D02*
X12979348Y-14840055D01*
X12979348Y-14840055D02*
X12960301Y-14859103D01*
X12960301Y-14859103D02*
X12941253Y-14868627D01*
X13141253Y-14992436D02*
X13150777Y-15001960D01*
X13150777Y-15001960D02*
X13141253Y-15011484D01*
X13141253Y-15011484D02*
X13131729Y-15001960D01*
X13131729Y-15001960D02*
X13141253Y-14992436D01*
X13141253Y-14992436D02*
X13141253Y-15011484D01*
X13217443Y-14811484D02*
X13341253Y-14811484D01*
X13341253Y-14811484D02*
X13274586Y-14887674D01*
X13274586Y-14887674D02*
X13303158Y-14887674D01*
X13303158Y-14887674D02*
X13322205Y-14897198D01*
X13322205Y-14897198D02*
X13331729Y-14906722D01*
X13331729Y-14906722D02*
X13341253Y-14925769D01*
X13341253Y-14925769D02*
X13341253Y-14973388D01*
X13341253Y-14973388D02*
X13331729Y-14992436D01*
X13331729Y-14992436D02*
X13322205Y-15001960D01*
X13322205Y-15001960D02*
X13303158Y-15011484D01*
X13303158Y-15011484D02*
X13246015Y-15011484D01*
X13246015Y-15011484D02*
X13226967Y-15001960D01*
X13226967Y-15001960D02*
X13217443Y-14992436D01*
X13465062Y-14811484D02*
X13484110Y-14811484D01*
X13484110Y-14811484D02*
X13503158Y-14821008D01*
X13503158Y-14821008D02*
X13512682Y-14830531D01*
X13512682Y-14830531D02*
X13522205Y-14849579D01*
X13522205Y-14849579D02*
X13531729Y-14887674D01*
X13531729Y-14887674D02*
X13531729Y-14935293D01*
X13531729Y-14935293D02*
X13522205Y-14973388D01*
X13522205Y-14973388D02*
X13512682Y-14992436D01*
X13512682Y-14992436D02*
X13503158Y-15001960D01*
X13503158Y-15001960D02*
X13484110Y-15011484D01*
X13484110Y-15011484D02*
X13465062Y-15011484D01*
X13465062Y-15011484D02*
X13446015Y-15001960D01*
X13446015Y-15001960D02*
X13436491Y-14992436D01*
X13436491Y-14992436D02*
X13426967Y-14973388D01*
X13426967Y-14973388D02*
X13417443Y-14935293D01*
X13417443Y-14935293D02*
X13417443Y-14887674D01*
X13417443Y-14887674D02*
X13426967Y-14849579D01*
X13426967Y-14849579D02*
X13436491Y-14830531D01*
X13436491Y-14830531D02*
X13446015Y-14821008D01*
X13446015Y-14821008D02*
X13465062Y-14811484D01*
X13655539Y-14811484D02*
X13674586Y-14811484D01*
X13674586Y-14811484D02*
X13693634Y-14821008D01*
X13693634Y-14821008D02*
X13703158Y-14830531D01*
X13703158Y-14830531D02*
X13712682Y-14849579D01*
X13712682Y-14849579D02*
X13722205Y-14887674D01*
X13722205Y-14887674D02*
X13722205Y-14935293D01*
X13722205Y-14935293D02*
X13712682Y-14973388D01*
X13712682Y-14973388D02*
X13703158Y-14992436D01*
X13703158Y-14992436D02*
X13693634Y-15001960D01*
X13693634Y-15001960D02*
X13674586Y-15011484D01*
X13674586Y-15011484D02*
X13655539Y-15011484D01*
X13655539Y-15011484D02*
X13636491Y-15001960D01*
X13636491Y-15001960D02*
X13626967Y-14992436D01*
X13626967Y-14992436D02*
X13617443Y-14973388D01*
X13617443Y-14973388D02*
X13607920Y-14935293D01*
X13607920Y-14935293D02*
X13607920Y-14887674D01*
X13607920Y-14887674D02*
X13617443Y-14849579D01*
X13617443Y-14849579D02*
X13626967Y-14830531D01*
X13626967Y-14830531D02*
X13636491Y-14821008D01*
X13636491Y-14821008D02*
X13655539Y-14811484D01*
X13807920Y-15011484D02*
X13807920Y-14878150D01*
X13807920Y-14897198D02*
X13817443Y-14887674D01*
X13817443Y-14887674D02*
X13836491Y-14878150D01*
X13836491Y-14878150D02*
X13865063Y-14878150D01*
X13865063Y-14878150D02*
X13884110Y-14887674D01*
X13884110Y-14887674D02*
X13893634Y-14906722D01*
X13893634Y-14906722D02*
X13893634Y-15011484D01*
X13893634Y-14906722D02*
X13903158Y-14887674D01*
X13903158Y-14887674D02*
X13922205Y-14878150D01*
X13922205Y-14878150D02*
X13950777Y-14878150D01*
X13950777Y-14878150D02*
X13969824Y-14887674D01*
X13969824Y-14887674D02*
X13979348Y-14906722D01*
X13979348Y-14906722D02*
X13979348Y-15011484D01*
X14074586Y-15011484D02*
X14074586Y-14878150D01*
X14074586Y-14897198D02*
X14084110Y-14887674D01*
X14084110Y-14887674D02*
X14103158Y-14878150D01*
X14103158Y-14878150D02*
X14131729Y-14878150D01*
X14131729Y-14878150D02*
X14150777Y-14887674D01*
X14150777Y-14887674D02*
X14160301Y-14906722D01*
X14160301Y-14906722D02*
X14160301Y-15011484D01*
X14160301Y-14906722D02*
X14169824Y-14887674D01*
X14169824Y-14887674D02*
X14188872Y-14878150D01*
X14188872Y-14878150D02*
X14217443Y-14878150D01*
X14217443Y-14878150D02*
X14236491Y-14887674D01*
X14236491Y-14887674D02*
X14246015Y-14906722D01*
X14246015Y-14906722D02*
X14246015Y-15011484D01*
X14636491Y-14801960D02*
X14465063Y-15059103D01*
X14893634Y-14811484D02*
X14912682Y-14811484D01*
X14912682Y-14811484D02*
X14931729Y-14821008D01*
X14931729Y-14821008D02*
X14941253Y-14830531D01*
X14941253Y-14830531D02*
X14950777Y-14849579D01*
X14950777Y-14849579D02*
X14960301Y-14887674D01*
X14960301Y-14887674D02*
X14960301Y-14935293D01*
X14960301Y-14935293D02*
X14950777Y-14973388D01*
X14950777Y-14973388D02*
X14941253Y-14992436D01*
X14941253Y-14992436D02*
X14931729Y-15001960D01*
X14931729Y-15001960D02*
X14912682Y-15011484D01*
X14912682Y-15011484D02*
X14893634Y-15011484D01*
X14893634Y-15011484D02*
X14874586Y-15001960D01*
X14874586Y-15001960D02*
X14865063Y-14992436D01*
X14865063Y-14992436D02*
X14855539Y-14973388D01*
X14855539Y-14973388D02*
X14846015Y-14935293D01*
X14846015Y-14935293D02*
X14846015Y-14887674D01*
X14846015Y-14887674D02*
X14855539Y-14849579D01*
X14855539Y-14849579D02*
X14865063Y-14830531D01*
X14865063Y-14830531D02*
X14874586Y-14821008D01*
X14874586Y-14821008D02*
X14893634Y-14811484D01*
X15046015Y-14992436D02*
X15055539Y-15001960D01*
X15055539Y-15001960D02*
X15046015Y-15011484D01*
X15046015Y-15011484D02*
X15036491Y-15001960D01*
X15036491Y-15001960D02*
X15046015Y-14992436D01*
X15046015Y-14992436D02*
X15046015Y-15011484D01*
X15179348Y-14811484D02*
X15198396Y-14811484D01*
X15198396Y-14811484D02*
X15217444Y-14821008D01*
X15217444Y-14821008D02*
X15226967Y-14830531D01*
X15226967Y-14830531D02*
X15236491Y-14849579D01*
X15236491Y-14849579D02*
X15246015Y-14887674D01*
X15246015Y-14887674D02*
X15246015Y-14935293D01*
X15246015Y-14935293D02*
X15236491Y-14973388D01*
X15236491Y-14973388D02*
X15226967Y-14992436D01*
X15226967Y-14992436D02*
X15217444Y-15001960D01*
X15217444Y-15001960D02*
X15198396Y-15011484D01*
X15198396Y-15011484D02*
X15179348Y-15011484D01*
X15179348Y-15011484D02*
X15160301Y-15001960D01*
X15160301Y-15001960D02*
X15150777Y-14992436D01*
X15150777Y-14992436D02*
X15141253Y-14973388D01*
X15141253Y-14973388D02*
X15131729Y-14935293D01*
X15131729Y-14935293D02*
X15131729Y-14887674D01*
X15131729Y-14887674D02*
X15141253Y-14849579D01*
X15141253Y-14849579D02*
X15150777Y-14830531D01*
X15150777Y-14830531D02*
X15160301Y-14821008D01*
X15160301Y-14821008D02*
X15179348Y-14811484D01*
X15426967Y-14811484D02*
X15331729Y-14811484D01*
X15331729Y-14811484D02*
X15322206Y-14906722D01*
X15322206Y-14906722D02*
X15331729Y-14897198D01*
X15331729Y-14897198D02*
X15350777Y-14887674D01*
X15350777Y-14887674D02*
X15398396Y-14887674D01*
X15398396Y-14887674D02*
X15417444Y-14897198D01*
X15417444Y-14897198D02*
X15426967Y-14906722D01*
X15426967Y-14906722D02*
X15436491Y-14925769D01*
X15436491Y-14925769D02*
X15436491Y-14973388D01*
X15436491Y-14973388D02*
X15426967Y-14992436D01*
X15426967Y-14992436D02*
X15417444Y-15001960D01*
X15417444Y-15001960D02*
X15398396Y-15011484D01*
X15398396Y-15011484D02*
X15350777Y-15011484D01*
X15350777Y-15011484D02*
X15331729Y-15001960D01*
X15331729Y-15001960D02*
X15322206Y-14992436D01*
X15626967Y-15011484D02*
X15512682Y-15011484D01*
X15569825Y-15011484D02*
X15569825Y-14811484D01*
X15569825Y-14811484D02*
X15550777Y-14840055D01*
X15550777Y-14840055D02*
X15531729Y-14859103D01*
X15531729Y-14859103D02*
X15512682Y-14868627D01*
X15703158Y-14830531D02*
X15712682Y-14821008D01*
X15712682Y-14821008D02*
X15731729Y-14811484D01*
X15731729Y-14811484D02*
X15779348Y-14811484D01*
X15779348Y-14811484D02*
X15798396Y-14821008D01*
X15798396Y-14821008D02*
X15807920Y-14830531D01*
X15807920Y-14830531D02*
X15817444Y-14849579D01*
X15817444Y-14849579D02*
X15817444Y-14868627D01*
X15817444Y-14868627D02*
X15807920Y-14897198D01*
X15807920Y-14897198D02*
X15693634Y-15011484D01*
X15693634Y-15011484D02*
X15817444Y-15011484D01*
X15893634Y-14811484D02*
X15893634Y-14849579D01*
X15969825Y-14811484D02*
X15969825Y-14849579D01*
X16265063Y-15087674D02*
X16255539Y-15078150D01*
X16255539Y-15078150D02*
X16236491Y-15049579D01*
X16236491Y-15049579D02*
X16226968Y-15030531D01*
X16226968Y-15030531D02*
X16217444Y-15001960D01*
X16217444Y-15001960D02*
X16207920Y-14954341D01*
X16207920Y-14954341D02*
X16207920Y-14916246D01*
X16207920Y-14916246D02*
X16217444Y-14868627D01*
X16217444Y-14868627D02*
X16226968Y-14840055D01*
X16226968Y-14840055D02*
X16236491Y-14821008D01*
X16236491Y-14821008D02*
X16255539Y-14792436D01*
X16255539Y-14792436D02*
X16265063Y-14782912D01*
X16322206Y-14811484D02*
X16446015Y-14811484D01*
X16446015Y-14811484D02*
X16379348Y-14887674D01*
X16379348Y-14887674D02*
X16407920Y-14887674D01*
X16407920Y-14887674D02*
X16426968Y-14897198D01*
X16426968Y-14897198D02*
X16436491Y-14906722D01*
X16436491Y-14906722D02*
X16446015Y-14925769D01*
X16446015Y-14925769D02*
X16446015Y-14973388D01*
X16446015Y-14973388D02*
X16436491Y-14992436D01*
X16436491Y-14992436D02*
X16426968Y-15001960D01*
X16426968Y-15001960D02*
X16407920Y-15011484D01*
X16407920Y-15011484D02*
X16350777Y-15011484D01*
X16350777Y-15011484D02*
X16331729Y-15001960D01*
X16331729Y-15001960D02*
X16322206Y-14992436D01*
X16684110Y-15011484D02*
X16684110Y-14811484D01*
X16769825Y-15011484D02*
X16769825Y-14906722D01*
X16769825Y-14906722D02*
X16760301Y-14887674D01*
X16760301Y-14887674D02*
X16741253Y-14878150D01*
X16741253Y-14878150D02*
X16712682Y-14878150D01*
X16712682Y-14878150D02*
X16693634Y-14887674D01*
X16693634Y-14887674D02*
X16684110Y-14897198D01*
X16893634Y-15011484D02*
X16874587Y-15001960D01*
X16874587Y-15001960D02*
X16865063Y-14992436D01*
X16865063Y-14992436D02*
X16855539Y-14973388D01*
X16855539Y-14973388D02*
X16855539Y-14916246D01*
X16855539Y-14916246D02*
X16865063Y-14897198D01*
X16865063Y-14897198D02*
X16874587Y-14887674D01*
X16874587Y-14887674D02*
X16893634Y-14878150D01*
X16893634Y-14878150D02*
X16922206Y-14878150D01*
X16922206Y-14878150D02*
X16941253Y-14887674D01*
X16941253Y-14887674D02*
X16950777Y-14897198D01*
X16950777Y-14897198D02*
X16960301Y-14916246D01*
X16960301Y-14916246D02*
X16960301Y-14973388D01*
X16960301Y-14973388D02*
X16950777Y-14992436D01*
X16950777Y-14992436D02*
X16941253Y-15001960D01*
X16941253Y-15001960D02*
X16922206Y-15011484D01*
X16922206Y-15011484D02*
X16893634Y-15011484D01*
X17074587Y-15011484D02*
X17055539Y-15001960D01*
X17055539Y-15001960D02*
X17046015Y-14982912D01*
X17046015Y-14982912D02*
X17046015Y-14811484D01*
X17226968Y-15001960D02*
X17207920Y-15011484D01*
X17207920Y-15011484D02*
X17169825Y-15011484D01*
X17169825Y-15011484D02*
X17150777Y-15001960D01*
X17150777Y-15001960D02*
X17141253Y-14982912D01*
X17141253Y-14982912D02*
X17141253Y-14906722D01*
X17141253Y-14906722D02*
X17150777Y-14887674D01*
X17150777Y-14887674D02*
X17169825Y-14878150D01*
X17169825Y-14878150D02*
X17207920Y-14878150D01*
X17207920Y-14878150D02*
X17226968Y-14887674D01*
X17226968Y-14887674D02*
X17236492Y-14906722D01*
X17236492Y-14906722D02*
X17236492Y-14925769D01*
X17236492Y-14925769D02*
X17141253Y-14944817D01*
X17312682Y-15001960D02*
X17331730Y-15011484D01*
X17331730Y-15011484D02*
X17369825Y-15011484D01*
X17369825Y-15011484D02*
X17388873Y-15001960D01*
X17388873Y-15001960D02*
X17398396Y-14982912D01*
X17398396Y-14982912D02*
X17398396Y-14973388D01*
X17398396Y-14973388D02*
X17388873Y-14954341D01*
X17388873Y-14954341D02*
X17369825Y-14944817D01*
X17369825Y-14944817D02*
X17341253Y-14944817D01*
X17341253Y-14944817D02*
X17322206Y-14935293D01*
X17322206Y-14935293D02*
X17312682Y-14916246D01*
X17312682Y-14916246D02*
X17312682Y-14906722D01*
X17312682Y-14906722D02*
X17322206Y-14887674D01*
X17322206Y-14887674D02*
X17341253Y-14878150D01*
X17341253Y-14878150D02*
X17369825Y-14878150D01*
X17369825Y-14878150D02*
X17388873Y-14887674D01*
X17465063Y-15087674D02*
X17474587Y-15078150D01*
X17474587Y-15078150D02*
X17493634Y-15049579D01*
X17493634Y-15049579D02*
X17503158Y-15030531D01*
X17503158Y-15030531D02*
X17512682Y-15001960D01*
X17512682Y-15001960D02*
X17522206Y-14954341D01*
X17522206Y-14954341D02*
X17522206Y-14916246D01*
X17522206Y-14916246D02*
X17512682Y-14868627D01*
X17512682Y-14868627D02*
X17503158Y-14840055D01*
X17503158Y-14840055D02*
X17493634Y-14821008D01*
X17493634Y-14821008D02*
X17474587Y-14792436D01*
X17474587Y-14792436D02*
X17465063Y-14782912D01*
X12490000Y-15084000D02*
X12690000Y-15284000D01*
X12690000Y-15084000D02*
X12490000Y-15284000D01*
X12590000Y-15084000D02*
X12590000Y-15284000D01*
X12490000Y-15184000D02*
X12690000Y-15184000D01*
X12931729Y-15075484D02*
X13055539Y-15075484D01*
X13055539Y-15075484D02*
X12988872Y-15151674D01*
X12988872Y-15151674D02*
X13017443Y-15151674D01*
X13017443Y-15151674D02*
X13036491Y-15161198D01*
X13036491Y-15161198D02*
X13046015Y-15170722D01*
X13046015Y-15170722D02*
X13055539Y-15189769D01*
X13055539Y-15189769D02*
X13055539Y-15237388D01*
X13055539Y-15237388D02*
X13046015Y-15256436D01*
X13046015Y-15256436D02*
X13036491Y-15265960D01*
X13036491Y-15265960D02*
X13017443Y-15275484D01*
X13017443Y-15275484D02*
X12960301Y-15275484D01*
X12960301Y-15275484D02*
X12941253Y-15265960D01*
X12941253Y-15265960D02*
X12931729Y-15256436D01*
X13141253Y-15256436D02*
X13150777Y-15265960D01*
X13150777Y-15265960D02*
X13141253Y-15275484D01*
X13141253Y-15275484D02*
X13131729Y-15265960D01*
X13131729Y-15265960D02*
X13141253Y-15256436D01*
X13141253Y-15256436D02*
X13141253Y-15275484D01*
X13226967Y-15094531D02*
X13236491Y-15085008D01*
X13236491Y-15085008D02*
X13255539Y-15075484D01*
X13255539Y-15075484D02*
X13303158Y-15075484D01*
X13303158Y-15075484D02*
X13322205Y-15085008D01*
X13322205Y-15085008D02*
X13331729Y-15094531D01*
X13331729Y-15094531D02*
X13341253Y-15113579D01*
X13341253Y-15113579D02*
X13341253Y-15132627D01*
X13341253Y-15132627D02*
X13331729Y-15161198D01*
X13331729Y-15161198D02*
X13217443Y-15275484D01*
X13217443Y-15275484D02*
X13341253Y-15275484D01*
X13465062Y-15075484D02*
X13484110Y-15075484D01*
X13484110Y-15075484D02*
X13503158Y-15085008D01*
X13503158Y-15085008D02*
X13512682Y-15094531D01*
X13512682Y-15094531D02*
X13522205Y-15113579D01*
X13522205Y-15113579D02*
X13531729Y-15151674D01*
X13531729Y-15151674D02*
X13531729Y-15199293D01*
X13531729Y-15199293D02*
X13522205Y-15237388D01*
X13522205Y-15237388D02*
X13512682Y-15256436D01*
X13512682Y-15256436D02*
X13503158Y-15265960D01*
X13503158Y-15265960D02*
X13484110Y-15275484D01*
X13484110Y-15275484D02*
X13465062Y-15275484D01*
X13465062Y-15275484D02*
X13446015Y-15265960D01*
X13446015Y-15265960D02*
X13436491Y-15256436D01*
X13436491Y-15256436D02*
X13426967Y-15237388D01*
X13426967Y-15237388D02*
X13417443Y-15199293D01*
X13417443Y-15199293D02*
X13417443Y-15151674D01*
X13417443Y-15151674D02*
X13426967Y-15113579D01*
X13426967Y-15113579D02*
X13436491Y-15094531D01*
X13436491Y-15094531D02*
X13446015Y-15085008D01*
X13446015Y-15085008D02*
X13465062Y-15075484D01*
X13655539Y-15075484D02*
X13674586Y-15075484D01*
X13674586Y-15075484D02*
X13693634Y-15085008D01*
X13693634Y-15085008D02*
X13703158Y-15094531D01*
X13703158Y-15094531D02*
X13712682Y-15113579D01*
X13712682Y-15113579D02*
X13722205Y-15151674D01*
X13722205Y-15151674D02*
X13722205Y-15199293D01*
X13722205Y-15199293D02*
X13712682Y-15237388D01*
X13712682Y-15237388D02*
X13703158Y-15256436D01*
X13703158Y-15256436D02*
X13693634Y-15265960D01*
X13693634Y-15265960D02*
X13674586Y-15275484D01*
X13674586Y-15275484D02*
X13655539Y-15275484D01*
X13655539Y-15275484D02*
X13636491Y-15265960D01*
X13636491Y-15265960D02*
X13626967Y-15256436D01*
X13626967Y-15256436D02*
X13617443Y-15237388D01*
X13617443Y-15237388D02*
X13607920Y-15199293D01*
X13607920Y-15199293D02*
X13607920Y-15151674D01*
X13607920Y-15151674D02*
X13617443Y-15113579D01*
X13617443Y-15113579D02*
X13626967Y-15094531D01*
X13626967Y-15094531D02*
X13636491Y-15085008D01*
X13636491Y-15085008D02*
X13655539Y-15075484D01*
X13807920Y-15275484D02*
X13807920Y-15142150D01*
X13807920Y-15161198D02*
X13817443Y-15151674D01*
X13817443Y-15151674D02*
X13836491Y-15142150D01*
X13836491Y-15142150D02*
X13865063Y-15142150D01*
X13865063Y-15142150D02*
X13884110Y-15151674D01*
X13884110Y-15151674D02*
X13893634Y-15170722D01*
X13893634Y-15170722D02*
X13893634Y-15275484D01*
X13893634Y-15170722D02*
X13903158Y-15151674D01*
X13903158Y-15151674D02*
X13922205Y-15142150D01*
X13922205Y-15142150D02*
X13950777Y-15142150D01*
X13950777Y-15142150D02*
X13969824Y-15151674D01*
X13969824Y-15151674D02*
X13979348Y-15170722D01*
X13979348Y-15170722D02*
X13979348Y-15275484D01*
X14074586Y-15275484D02*
X14074586Y-15142150D01*
X14074586Y-15161198D02*
X14084110Y-15151674D01*
X14084110Y-15151674D02*
X14103158Y-15142150D01*
X14103158Y-15142150D02*
X14131729Y-15142150D01*
X14131729Y-15142150D02*
X14150777Y-15151674D01*
X14150777Y-15151674D02*
X14160301Y-15170722D01*
X14160301Y-15170722D02*
X14160301Y-15275484D01*
X14160301Y-15170722D02*
X14169824Y-15151674D01*
X14169824Y-15151674D02*
X14188872Y-15142150D01*
X14188872Y-15142150D02*
X14217443Y-15142150D01*
X14217443Y-15142150D02*
X14236491Y-15151674D01*
X14236491Y-15151674D02*
X14246015Y-15170722D01*
X14246015Y-15170722D02*
X14246015Y-15275484D01*
X14636491Y-15065960D02*
X14465063Y-15323103D01*
X14893634Y-15075484D02*
X14912682Y-15075484D01*
X14912682Y-15075484D02*
X14931729Y-15085008D01*
X14931729Y-15085008D02*
X14941253Y-15094531D01*
X14941253Y-15094531D02*
X14950777Y-15113579D01*
X14950777Y-15113579D02*
X14960301Y-15151674D01*
X14960301Y-15151674D02*
X14960301Y-15199293D01*
X14960301Y-15199293D02*
X14950777Y-15237388D01*
X14950777Y-15237388D02*
X14941253Y-15256436D01*
X14941253Y-15256436D02*
X14931729Y-15265960D01*
X14931729Y-15265960D02*
X14912682Y-15275484D01*
X14912682Y-15275484D02*
X14893634Y-15275484D01*
X14893634Y-15275484D02*
X14874586Y-15265960D01*
X14874586Y-15265960D02*
X14865063Y-15256436D01*
X14865063Y-15256436D02*
X14855539Y-15237388D01*
X14855539Y-15237388D02*
X14846015Y-15199293D01*
X14846015Y-15199293D02*
X14846015Y-15151674D01*
X14846015Y-15151674D02*
X14855539Y-15113579D01*
X14855539Y-15113579D02*
X14865063Y-15094531D01*
X14865063Y-15094531D02*
X14874586Y-15085008D01*
X14874586Y-15085008D02*
X14893634Y-15075484D01*
X15046015Y-15256436D02*
X15055539Y-15265960D01*
X15055539Y-15265960D02*
X15046015Y-15275484D01*
X15046015Y-15275484D02*
X15036491Y-15265960D01*
X15036491Y-15265960D02*
X15046015Y-15256436D01*
X15046015Y-15256436D02*
X15046015Y-15275484D01*
X15246015Y-15275484D02*
X15131729Y-15275484D01*
X15188872Y-15275484D02*
X15188872Y-15075484D01*
X15188872Y-15075484D02*
X15169825Y-15104055D01*
X15169825Y-15104055D02*
X15150777Y-15123103D01*
X15150777Y-15123103D02*
X15131729Y-15132627D01*
X15322206Y-15094531D02*
X15331729Y-15085008D01*
X15331729Y-15085008D02*
X15350777Y-15075484D01*
X15350777Y-15075484D02*
X15398396Y-15075484D01*
X15398396Y-15075484D02*
X15417444Y-15085008D01*
X15417444Y-15085008D02*
X15426967Y-15094531D01*
X15426967Y-15094531D02*
X15436491Y-15113579D01*
X15436491Y-15113579D02*
X15436491Y-15132627D01*
X15436491Y-15132627D02*
X15426967Y-15161198D01*
X15426967Y-15161198D02*
X15312682Y-15275484D01*
X15312682Y-15275484D02*
X15436491Y-15275484D01*
X15607920Y-15075484D02*
X15569825Y-15075484D01*
X15569825Y-15075484D02*
X15550777Y-15085008D01*
X15550777Y-15085008D02*
X15541253Y-15094531D01*
X15541253Y-15094531D02*
X15522206Y-15123103D01*
X15522206Y-15123103D02*
X15512682Y-15161198D01*
X15512682Y-15161198D02*
X15512682Y-15237388D01*
X15512682Y-15237388D02*
X15522206Y-15256436D01*
X15522206Y-15256436D02*
X15531729Y-15265960D01*
X15531729Y-15265960D02*
X15550777Y-15275484D01*
X15550777Y-15275484D02*
X15588872Y-15275484D01*
X15588872Y-15275484D02*
X15607920Y-15265960D01*
X15607920Y-15265960D02*
X15617444Y-15256436D01*
X15617444Y-15256436D02*
X15626967Y-15237388D01*
X15626967Y-15237388D02*
X15626967Y-15189769D01*
X15626967Y-15189769D02*
X15617444Y-15170722D01*
X15617444Y-15170722D02*
X15607920Y-15161198D01*
X15607920Y-15161198D02*
X15588872Y-15151674D01*
X15588872Y-15151674D02*
X15550777Y-15151674D01*
X15550777Y-15151674D02*
X15531729Y-15161198D01*
X15531729Y-15161198D02*
X15522206Y-15170722D01*
X15522206Y-15170722D02*
X15512682Y-15189769D01*
X15750777Y-15075484D02*
X15769825Y-15075484D01*
X15769825Y-15075484D02*
X15788872Y-15085008D01*
X15788872Y-15085008D02*
X15798396Y-15094531D01*
X15798396Y-15094531D02*
X15807920Y-15113579D01*
X15807920Y-15113579D02*
X15817444Y-15151674D01*
X15817444Y-15151674D02*
X15817444Y-15199293D01*
X15817444Y-15199293D02*
X15807920Y-15237388D01*
X15807920Y-15237388D02*
X15798396Y-15256436D01*
X15798396Y-15256436D02*
X15788872Y-15265960D01*
X15788872Y-15265960D02*
X15769825Y-15275484D01*
X15769825Y-15275484D02*
X15750777Y-15275484D01*
X15750777Y-15275484D02*
X15731729Y-15265960D01*
X15731729Y-15265960D02*
X15722206Y-15256436D01*
X15722206Y-15256436D02*
X15712682Y-15237388D01*
X15712682Y-15237388D02*
X15703158Y-15199293D01*
X15703158Y-15199293D02*
X15703158Y-15151674D01*
X15703158Y-15151674D02*
X15712682Y-15113579D01*
X15712682Y-15113579D02*
X15722206Y-15094531D01*
X15722206Y-15094531D02*
X15731729Y-15085008D01*
X15731729Y-15085008D02*
X15750777Y-15075484D01*
X15893634Y-15075484D02*
X15893634Y-15113579D01*
X15969825Y-15075484D02*
X15969825Y-15113579D01*
X16265063Y-15351674D02*
X16255539Y-15342150D01*
X16255539Y-15342150D02*
X16236491Y-15313579D01*
X16236491Y-15313579D02*
X16226968Y-15294531D01*
X16226968Y-15294531D02*
X16217444Y-15265960D01*
X16217444Y-15265960D02*
X16207920Y-15218341D01*
X16207920Y-15218341D02*
X16207920Y-15180246D01*
X16207920Y-15180246D02*
X16217444Y-15132627D01*
X16217444Y-15132627D02*
X16226968Y-15104055D01*
X16226968Y-15104055D02*
X16236491Y-15085008D01*
X16236491Y-15085008D02*
X16255539Y-15056436D01*
X16255539Y-15056436D02*
X16265063Y-15046912D01*
X16446015Y-15275484D02*
X16331729Y-15275484D01*
X16388872Y-15275484D02*
X16388872Y-15075484D01*
X16388872Y-15075484D02*
X16369825Y-15104055D01*
X16369825Y-15104055D02*
X16350777Y-15123103D01*
X16350777Y-15123103D02*
X16331729Y-15132627D01*
X16684110Y-15275484D02*
X16684110Y-15075484D01*
X16769825Y-15275484D02*
X16769825Y-15170722D01*
X16769825Y-15170722D02*
X16760301Y-15151674D01*
X16760301Y-15151674D02*
X16741253Y-15142150D01*
X16741253Y-15142150D02*
X16712682Y-15142150D01*
X16712682Y-15142150D02*
X16693634Y-15151674D01*
X16693634Y-15151674D02*
X16684110Y-15161198D01*
X16893634Y-15275484D02*
X16874587Y-15265960D01*
X16874587Y-15265960D02*
X16865063Y-15256436D01*
X16865063Y-15256436D02*
X16855539Y-15237388D01*
X16855539Y-15237388D02*
X16855539Y-15180246D01*
X16855539Y-15180246D02*
X16865063Y-15161198D01*
X16865063Y-15161198D02*
X16874587Y-15151674D01*
X16874587Y-15151674D02*
X16893634Y-15142150D01*
X16893634Y-15142150D02*
X16922206Y-15142150D01*
X16922206Y-15142150D02*
X16941253Y-15151674D01*
X16941253Y-15151674D02*
X16950777Y-15161198D01*
X16950777Y-15161198D02*
X16960301Y-15180246D01*
X16960301Y-15180246D02*
X16960301Y-15237388D01*
X16960301Y-15237388D02*
X16950777Y-15256436D01*
X16950777Y-15256436D02*
X16941253Y-15265960D01*
X16941253Y-15265960D02*
X16922206Y-15275484D01*
X16922206Y-15275484D02*
X16893634Y-15275484D01*
X17074587Y-15275484D02*
X17055539Y-15265960D01*
X17055539Y-15265960D02*
X17046015Y-15246912D01*
X17046015Y-15246912D02*
X17046015Y-15075484D01*
X17226968Y-15265960D02*
X17207920Y-15275484D01*
X17207920Y-15275484D02*
X17169825Y-15275484D01*
X17169825Y-15275484D02*
X17150777Y-15265960D01*
X17150777Y-15265960D02*
X17141253Y-15246912D01*
X17141253Y-15246912D02*
X17141253Y-15170722D01*
X17141253Y-15170722D02*
X17150777Y-15151674D01*
X17150777Y-15151674D02*
X17169825Y-15142150D01*
X17169825Y-15142150D02*
X17207920Y-15142150D01*
X17207920Y-15142150D02*
X17226968Y-15151674D01*
X17226968Y-15151674D02*
X17236492Y-15170722D01*
X17236492Y-15170722D02*
X17236492Y-15189769D01*
X17236492Y-15189769D02*
X17141253Y-15208817D01*
X17303158Y-15351674D02*
X17312682Y-15342150D01*
X17312682Y-15342150D02*
X17331730Y-15313579D01*
X17331730Y-15313579D02*
X17341253Y-15294531D01*
X17341253Y-15294531D02*
X17350777Y-15265960D01*
X17350777Y-15265960D02*
X17360301Y-15218341D01*
X17360301Y-15218341D02*
X17360301Y-15180246D01*
X17360301Y-15180246D02*
X17350777Y-15132627D01*
X17350777Y-15132627D02*
X17341253Y-15104055D01*
X17341253Y-15104055D02*
X17331730Y-15085008D01*
X17331730Y-15085008D02*
X17312682Y-15056436D01*
X17312682Y-15056436D02*
X17303158Y-15046912D01*
M02*
