%TF.GenerationSoftware,KiCad,Pcbnew,9.0.4*%
%TF.CreationDate,2025-09-13T17:29:18-04:00*%
%TF.ProjectId,AppleII-Disk-Clacker,4170706c-6549-4492-9d44-69736b2d436c,A*%
%TF.SameCoordinates,Original*%
%TF.FileFunction,Copper,L2,Bot*%
%TF.FilePolarity,Positive*%
%FSLAX46Y46*%
G04 Gerber Fmt 4.6, Leading zero omitted, Abs format (unit mm)*
G04 Created by KiCad (PCBNEW 9.0.4) date 2025-09-13 17:29:18*
%MOMM*%
%LPD*%
G01*
G04 APERTURE LIST*
G04 Aperture macros list*
%AMRoundRect*
0 Rectangle with rounded corners*
0 $1 Rounding radius*
0 $2 $3 $4 $5 $6 $7 $8 $9 X,Y pos of 4 corners*
0 Add a 4 corners polygon primitive as box body*
4,1,4,$2,$3,$4,$5,$6,$7,$8,$9,$2,$3,0*
0 Add four circle primitives for the rounded corners*
1,1,$1+$1,$2,$3*
1,1,$1+$1,$4,$5*
1,1,$1+$1,$6,$7*
1,1,$1+$1,$8,$9*
0 Add four rect primitives between the rounded corners*
20,1,$1+$1,$2,$3,$4,$5,0*
20,1,$1+$1,$4,$5,$6,$7,0*
20,1,$1+$1,$6,$7,$8,$9,0*
20,1,$1+$1,$8,$9,$2,$3,0*%
%AMFreePoly0*
4,1,23,0.500000,-0.750000,0.000000,-0.750000,0.000000,-0.745722,-0.065263,-0.745722,-0.191342,-0.711940,-0.304381,-0.646677,-0.396677,-0.554381,-0.461940,-0.441342,-0.495722,-0.315263,-0.495722,-0.250000,-0.500000,-0.250000,-0.500000,0.250000,-0.495722,0.250000,-0.495722,0.315263,-0.461940,0.441342,-0.396677,0.554381,-0.304381,0.646677,-0.191342,0.711940,-0.065263,0.745722,0.000000,0.745722,
0.000000,0.750000,0.500000,0.750000,0.500000,-0.750000,0.500000,-0.750000,$1*%
%AMFreePoly1*
4,1,23,0.000000,0.745722,0.065263,0.745722,0.191342,0.711940,0.304381,0.646677,0.396677,0.554381,0.461940,0.441342,0.495722,0.315263,0.495722,0.250000,0.500000,0.250000,0.500000,-0.250000,0.495722,-0.250000,0.495722,-0.315263,0.461940,-0.441342,0.396677,-0.554381,0.304381,-0.646677,0.191342,-0.711940,0.065263,-0.745722,0.000000,-0.745722,0.000000,-0.750000,-0.500000,-0.750000,
-0.500000,0.750000,0.000000,0.750000,0.000000,0.745722,0.000000,0.745722,$1*%
G04 Aperture macros list end*
%TA.AperFunction,EtchedComponent*%
%ADD10C,0.000000*%
%TD*%
%TA.AperFunction,EtchedComponent*%
%ADD11C,0.010000*%
%TD*%
%TA.AperFunction,ComponentPad*%
%ADD12RoundRect,0.250000X-0.550000X0.550000X-0.550000X-0.550000X0.550000X-0.550000X0.550000X0.550000X0*%
%TD*%
%TA.AperFunction,ComponentPad*%
%ADD13C,1.600000*%
%TD*%
%TA.AperFunction,ComponentPad*%
%ADD14C,3.000000*%
%TD*%
%TA.AperFunction,ComponentPad*%
%ADD15C,2.500000*%
%TD*%
%TA.AperFunction,ComponentPad*%
%ADD16RoundRect,0.249999X0.850001X-0.850001X0.850001X0.850001X-0.850001X0.850001X-0.850001X-0.850001X0*%
%TD*%
%TA.AperFunction,ComponentPad*%
%ADD17C,2.200000*%
%TD*%
%TA.AperFunction,ComponentPad*%
%ADD18C,6.400000*%
%TD*%
%TA.AperFunction,ComponentPad*%
%ADD19RoundRect,0.250000X-0.600000X-0.600000X0.600000X-0.600000X0.600000X0.600000X-0.600000X0.600000X0*%
%TD*%
%TA.AperFunction,ComponentPad*%
%ADD20C,1.700000*%
%TD*%
%TA.AperFunction,ComponentPad*%
%ADD21RoundRect,0.250000X0.550000X-0.550000X0.550000X0.550000X-0.550000X0.550000X-0.550000X-0.550000X0*%
%TD*%
%TA.AperFunction,ComponentPad*%
%ADD22R,1.500000X1.500000*%
%TD*%
%TA.AperFunction,ComponentPad*%
%ADD23C,1.500000*%
%TD*%
%TA.AperFunction,SMDPad,CuDef*%
%ADD24FreePoly0,180.000000*%
%TD*%
%TA.AperFunction,SMDPad,CuDef*%
%ADD25FreePoly1,180.000000*%
%TD*%
%TA.AperFunction,ViaPad*%
%ADD26C,0.800000*%
%TD*%
%TA.AperFunction,ViaPad*%
%ADD27C,0.600000*%
%TD*%
%TA.AperFunction,Conductor*%
%ADD28C,0.500000*%
%TD*%
%TA.AperFunction,Conductor*%
%ADD29C,0.200000*%
%TD*%
G04 APERTURE END LIST*
D10*
%TA.AperFunction,EtchedComponent*%
%TO.C,JP1*%
G36*
X146920000Y-87930000D02*
G01*
X146420000Y-87930000D01*
X146420000Y-87330000D01*
X146920000Y-87330000D01*
X146920000Y-87930000D01*
G37*
%TD.AperFunction*%
D11*
%TO.C,REF\u002A\u002A*%
X128292829Y-121966097D02*
X128352753Y-121988355D01*
X128377673Y-122005080D01*
X128402910Y-122029043D01*
X128420912Y-122059526D01*
X128432858Y-122101023D01*
X128439930Y-122158032D01*
X128443308Y-122235047D01*
X128444171Y-122336565D01*
X128444002Y-122389027D01*
X128443153Y-122460715D01*
X128441711Y-122517925D01*
X128439814Y-122555809D01*
X128437597Y-122569514D01*
X128423172Y-122564981D01*
X128394054Y-122552670D01*
X128393181Y-122552272D01*
X128378060Y-122544356D01*
X128367891Y-122533495D01*
X128361691Y-122514471D01*
X128358478Y-122482069D01*
X128357270Y-122431071D01*
X128357086Y-122356261D01*
X128356714Y-122308804D01*
X128352750Y-122219615D01*
X128343673Y-122154287D01*
X128328524Y-122109393D01*
X128306345Y-122081507D01*
X128276175Y-122067203D01*
X128271990Y-122066206D01*
X128215480Y-122065427D01*
X128171410Y-122090744D01*
X128140972Y-122141502D01*
X128135544Y-122156175D01*
X128123171Y-122188649D01*
X128116905Y-122203572D01*
X128104036Y-122201516D01*
X128075933Y-122190357D01*
X128049721Y-122171927D01*
X128037771Y-122137098D01*
X128041336Y-122112151D01*
X128063235Y-122061547D01*
X128098644Y-122014128D01*
X128140052Y-121981334D01*
X128157400Y-121973752D01*
X128223089Y-121961076D01*
X128292829Y-121966097D01*
%TA.AperFunction,EtchedComponent*%
G36*
X128292829Y-121966097D02*
G01*
X128352753Y-121988355D01*
X128377673Y-122005080D01*
X128402910Y-122029043D01*
X128420912Y-122059526D01*
X128432858Y-122101023D01*
X128439930Y-122158032D01*
X128443308Y-122235047D01*
X128444171Y-122336565D01*
X128444002Y-122389027D01*
X128443153Y-122460715D01*
X128441711Y-122517925D01*
X128439814Y-122555809D01*
X128437597Y-122569514D01*
X128423172Y-122564981D01*
X128394054Y-122552670D01*
X128393181Y-122552272D01*
X128378060Y-122544356D01*
X128367891Y-122533495D01*
X128361691Y-122514471D01*
X128358478Y-122482069D01*
X128357270Y-122431071D01*
X128357086Y-122356261D01*
X128356714Y-122308804D01*
X128352750Y-122219615D01*
X128343673Y-122154287D01*
X128328524Y-122109393D01*
X128306345Y-122081507D01*
X128276175Y-122067203D01*
X128271990Y-122066206D01*
X128215480Y-122065427D01*
X128171410Y-122090744D01*
X128140972Y-122141502D01*
X128135544Y-122156175D01*
X128123171Y-122188649D01*
X128116905Y-122203572D01*
X128104036Y-122201516D01*
X128075933Y-122190357D01*
X128049721Y-122171927D01*
X128037771Y-122137098D01*
X128041336Y-122112151D01*
X128063235Y-122061547D01*
X128098644Y-122014128D01*
X128140052Y-121981334D01*
X128157400Y-121973752D01*
X128223089Y-121961076D01*
X128292829Y-121966097D01*
G37*
%TD.AperFunction*%
X132241020Y-121932822D02*
X132308810Y-121964680D01*
X132364366Y-122019770D01*
X132375881Y-122037016D01*
X132385432Y-122056562D01*
X132392206Y-122081198D01*
X132396819Y-122115711D01*
X132399888Y-122164889D01*
X132402029Y-122233519D01*
X132403859Y-122326389D01*
X132408404Y-122584007D01*
X132370225Y-122569491D01*
X132335268Y-122556156D01*
X132309097Y-122543323D01*
X132292013Y-122526780D01*
X132282086Y-122501465D01*
X132277386Y-122462316D01*
X132275982Y-122404268D01*
X132275943Y-122322261D01*
X132275744Y-122256895D01*
X132274559Y-122194173D01*
X132271729Y-122151334D01*
X132266609Y-122123220D01*
X132258553Y-122104675D01*
X132246914Y-122090543D01*
X132218303Y-122070600D01*
X132170239Y-122063083D01*
X132122688Y-122082079D01*
X132119550Y-122084511D01*
X132109769Y-122095748D01*
X132102553Y-122113770D01*
X132097299Y-122143026D01*
X132093402Y-122187962D01*
X132090256Y-122253028D01*
X132087257Y-122342670D01*
X132080000Y-122582697D01*
X132018314Y-122555044D01*
X131956629Y-122527391D01*
X131956629Y-122308246D01*
X131956884Y-122248711D01*
X131959086Y-122165892D01*
X131964661Y-122104227D01*
X131974941Y-122058748D01*
X131991258Y-122024484D01*
X132014943Y-121996466D01*
X132047328Y-121969723D01*
X132093907Y-121942780D01*
X132167287Y-121925191D01*
X132241020Y-121932822D01*
%TA.AperFunction,EtchedComponent*%
G36*
X132241020Y-121932822D02*
G01*
X132308810Y-121964680D01*
X132364366Y-122019770D01*
X132375881Y-122037016D01*
X132385432Y-122056562D01*
X132392206Y-122081198D01*
X132396819Y-122115711D01*
X132399888Y-122164889D01*
X132402029Y-122233519D01*
X132403859Y-122326389D01*
X132408404Y-122584007D01*
X132370225Y-122569491D01*
X132335268Y-122556156D01*
X132309097Y-122543323D01*
X132292013Y-122526780D01*
X132282086Y-122501465D01*
X132277386Y-122462316D01*
X132275982Y-122404268D01*
X132275943Y-122322261D01*
X132275744Y-122256895D01*
X132274559Y-122194173D01*
X132271729Y-122151334D01*
X132266609Y-122123220D01*
X132258553Y-122104675D01*
X132246914Y-122090543D01*
X132218303Y-122070600D01*
X132170239Y-122063083D01*
X132122688Y-122082079D01*
X132119550Y-122084511D01*
X132109769Y-122095748D01*
X132102553Y-122113770D01*
X132097299Y-122143026D01*
X132093402Y-122187962D01*
X132090256Y-122253028D01*
X132087257Y-122342670D01*
X132080000Y-122582697D01*
X132018314Y-122555044D01*
X131956629Y-122527391D01*
X131956629Y-122308246D01*
X131956884Y-122248711D01*
X131959086Y-122165892D01*
X131964661Y-122104227D01*
X131974941Y-122058748D01*
X131991258Y-122024484D01*
X132014943Y-121996466D01*
X132047328Y-121969723D01*
X132093907Y-121942780D01*
X132167287Y-121925191D01*
X132241020Y-121932822D01*
G37*
%TD.AperFunction*%
X130417691Y-121981467D02*
X130422273Y-121984003D01*
X130459704Y-122013057D01*
X130493170Y-122050410D01*
X130499007Y-122058852D01*
X130510165Y-122078553D01*
X130518136Y-122101935D01*
X130523618Y-122134067D01*
X130527307Y-122180019D01*
X130529899Y-122244859D01*
X130532092Y-122333657D01*
X130532402Y-122348669D01*
X130533400Y-122445999D01*
X130531994Y-122514934D01*
X130528164Y-122555948D01*
X130521889Y-122569514D01*
X130502898Y-122565452D01*
X130470638Y-122553144D01*
X130463041Y-122549545D01*
X130451176Y-122541398D01*
X130442994Y-122528004D01*
X130437643Y-122504608D01*
X130434269Y-122466455D01*
X130432019Y-122408790D01*
X130430040Y-122326857D01*
X130429498Y-122302907D01*
X130427403Y-122227266D01*
X130424683Y-122174328D01*
X130420515Y-122139075D01*
X130414079Y-122116487D01*
X130404550Y-122101544D01*
X130391106Y-122089227D01*
X130351305Y-122067634D01*
X130302341Y-122063476D01*
X130258529Y-122079999D01*
X130227008Y-122114210D01*
X130214914Y-122163114D01*
X130214578Y-122176407D01*
X130207972Y-122200472D01*
X130188470Y-122204144D01*
X130150283Y-122189813D01*
X130141438Y-122185217D01*
X130117534Y-122158186D01*
X130117061Y-122117994D01*
X130139836Y-122062409D01*
X130160727Y-122032117D01*
X130214142Y-121989084D01*
X130280074Y-121964755D01*
X130350574Y-121961443D01*
X130417691Y-121981467D01*
%TA.AperFunction,EtchedComponent*%
G36*
X130417691Y-121981467D02*
G01*
X130422273Y-121984003D01*
X130459704Y-122013057D01*
X130493170Y-122050410D01*
X130499007Y-122058852D01*
X130510165Y-122078553D01*
X130518136Y-122101935D01*
X130523618Y-122134067D01*
X130527307Y-122180019D01*
X130529899Y-122244859D01*
X130532092Y-122333657D01*
X130532402Y-122348669D01*
X130533400Y-122445999D01*
X130531994Y-122514934D01*
X130528164Y-122555948D01*
X130521889Y-122569514D01*
X130502898Y-122565452D01*
X130470638Y-122553144D01*
X130463041Y-122549545D01*
X130451176Y-122541398D01*
X130442994Y-122528004D01*
X130437643Y-122504608D01*
X130434269Y-122466455D01*
X130432019Y-122408790D01*
X130430040Y-122326857D01*
X130429498Y-122302907D01*
X130427403Y-122227266D01*
X130424683Y-122174328D01*
X130420515Y-122139075D01*
X130414079Y-122116487D01*
X130404550Y-122101544D01*
X130391106Y-122089227D01*
X130351305Y-122067634D01*
X130302341Y-122063476D01*
X130258529Y-122079999D01*
X130227008Y-122114210D01*
X130214914Y-122163114D01*
X130214578Y-122176407D01*
X130207972Y-122200472D01*
X130188470Y-122204144D01*
X130150283Y-122189813D01*
X130141438Y-122185217D01*
X130117534Y-122158186D01*
X130117061Y-122117994D01*
X130139836Y-122062409D01*
X130160727Y-122032117D01*
X130214142Y-121989084D01*
X130280074Y-121964755D01*
X130350574Y-121961443D01*
X130417691Y-121981467D01*
G37*
%TD.AperFunction*%
X129463941Y-121964282D02*
X129495774Y-121976758D01*
X129532743Y-121993602D01*
X129532743Y-122480196D01*
X129486812Y-122526127D01*
X129476320Y-122536427D01*
X129447255Y-122559320D01*
X129417943Y-122566735D01*
X129374326Y-122563321D01*
X129356568Y-122561114D01*
X129310767Y-122556445D01*
X129278743Y-122554585D01*
X129269244Y-122554869D01*
X129230274Y-122557948D01*
X129183160Y-122563321D01*
X129168085Y-122565168D01*
X129130110Y-122565893D01*
X129102325Y-122554429D01*
X129070674Y-122526127D01*
X129024743Y-122480196D01*
X129024743Y-122220055D01*
X129025101Y-122143180D01*
X129026216Y-122069886D01*
X129027952Y-122011850D01*
X129030167Y-121973663D01*
X129032721Y-121959914D01*
X129033256Y-121959951D01*
X129051808Y-121966793D01*
X129083153Y-121981868D01*
X129125608Y-122003822D01*
X129129604Y-122232240D01*
X129133600Y-122460657D01*
X129220686Y-122460657D01*
X129224657Y-122210286D01*
X129225916Y-122142227D01*
X129227718Y-122069482D01*
X129229671Y-122011730D01*
X129231612Y-121973648D01*
X129233377Y-121959914D01*
X129233885Y-121959962D01*
X129251482Y-121965015D01*
X129283834Y-121975849D01*
X129329543Y-121991783D01*
X129329765Y-122211706D01*
X129329988Y-122249909D01*
X129331531Y-122324146D01*
X129334292Y-122386145D01*
X129337977Y-122430308D01*
X129342292Y-122451041D01*
X129357732Y-122462131D01*
X129389241Y-122465556D01*
X129423886Y-122460657D01*
X129427857Y-122210286D01*
X129429278Y-122146663D01*
X129432225Y-122071356D01*
X129436079Y-122012286D01*
X129440542Y-121973718D01*
X129445317Y-121959914D01*
X129463941Y-121964282D01*
%TA.AperFunction,EtchedComponent*%
G36*
X129463941Y-121964282D02*
G01*
X129495774Y-121976758D01*
X129532743Y-121993602D01*
X129532743Y-122480196D01*
X129486812Y-122526127D01*
X129476320Y-122536427D01*
X129447255Y-122559320D01*
X129417943Y-122566735D01*
X129374326Y-122563321D01*
X129356568Y-122561114D01*
X129310767Y-122556445D01*
X129278743Y-122554585D01*
X129269244Y-122554869D01*
X129230274Y-122557948D01*
X129183160Y-122563321D01*
X129168085Y-122565168D01*
X129130110Y-122565893D01*
X129102325Y-122554429D01*
X129070674Y-122526127D01*
X129024743Y-122480196D01*
X129024743Y-122220055D01*
X129025101Y-122143180D01*
X129026216Y-122069886D01*
X129027952Y-122011850D01*
X129030167Y-121973663D01*
X129032721Y-121959914D01*
X129033256Y-121959951D01*
X129051808Y-121966793D01*
X129083153Y-121981868D01*
X129125608Y-122003822D01*
X129129604Y-122232240D01*
X129133600Y-122460657D01*
X129220686Y-122460657D01*
X129224657Y-122210286D01*
X129225916Y-122142227D01*
X129227718Y-122069482D01*
X129229671Y-122011730D01*
X129231612Y-121973648D01*
X129233377Y-121959914D01*
X129233885Y-121959962D01*
X129251482Y-121965015D01*
X129283834Y-121975849D01*
X129329543Y-121991783D01*
X129329765Y-122211706D01*
X129329988Y-122249909D01*
X129331531Y-122324146D01*
X129334292Y-122386145D01*
X129337977Y-122430308D01*
X129342292Y-122451041D01*
X129357732Y-122462131D01*
X129389241Y-122465556D01*
X129423886Y-122460657D01*
X129427857Y-122210286D01*
X129429278Y-122146663D01*
X129432225Y-122071356D01*
X129436079Y-122012286D01*
X129440542Y-121973718D01*
X129445317Y-121959914D01*
X129463941Y-121964282D01*
G37*
%TD.AperFunction*%
X131488543Y-121764444D02*
X131535714Y-121784342D01*
X131535714Y-122181509D01*
X131535519Y-122284498D01*
X131534998Y-122377141D01*
X131534199Y-122455700D01*
X131533172Y-122516439D01*
X131531963Y-122555623D01*
X131530623Y-122569514D01*
X131530099Y-122569468D01*
X131512287Y-122564420D01*
X131479823Y-122553580D01*
X131434114Y-122537646D01*
X131434114Y-122333173D01*
X131433824Y-122252832D01*
X131432474Y-122194562D01*
X131429369Y-122154909D01*
X131423812Y-122128618D01*
X131415107Y-122110436D01*
X131402556Y-122095107D01*
X131393999Y-122086955D01*
X131347728Y-122064375D01*
X131296728Y-122066375D01*
X131249993Y-122093073D01*
X131243189Y-122099698D01*
X131232293Y-122113456D01*
X131224836Y-122131642D01*
X131220169Y-122159177D01*
X131217642Y-122200981D01*
X131216602Y-122261973D01*
X131216400Y-122347073D01*
X131216303Y-122390234D01*
X131215674Y-122461224D01*
X131214556Y-122518076D01*
X131213063Y-122555828D01*
X131211309Y-122569514D01*
X131210785Y-122569468D01*
X131192973Y-122564420D01*
X131160509Y-122553580D01*
X131114800Y-122537646D01*
X131114823Y-122332237D01*
X131114857Y-122313951D01*
X131116778Y-122218626D01*
X131122678Y-122146543D01*
X131134001Y-122092813D01*
X131152187Y-122052549D01*
X131178679Y-122020861D01*
X131214918Y-121992861D01*
X131250263Y-121975333D01*
X131306773Y-121961785D01*
X131362356Y-121961015D01*
X131405086Y-121974195D01*
X131408298Y-121976015D01*
X131418205Y-121975820D01*
X131424975Y-121960572D01*
X131429861Y-121925613D01*
X131434114Y-121866289D01*
X131441371Y-121744547D01*
X131488543Y-121764444D01*
%TA.AperFunction,EtchedComponent*%
G36*
X131488543Y-121764444D02*
G01*
X131535714Y-121784342D01*
X131535714Y-122181509D01*
X131535519Y-122284498D01*
X131534998Y-122377141D01*
X131534199Y-122455700D01*
X131533172Y-122516439D01*
X131531963Y-122555623D01*
X131530623Y-122569514D01*
X131530099Y-122569468D01*
X131512287Y-122564420D01*
X131479823Y-122553580D01*
X131434114Y-122537646D01*
X131434114Y-122333173D01*
X131433824Y-122252832D01*
X131432474Y-122194562D01*
X131429369Y-122154909D01*
X131423812Y-122128618D01*
X131415107Y-122110436D01*
X131402556Y-122095107D01*
X131393999Y-122086955D01*
X131347728Y-122064375D01*
X131296728Y-122066375D01*
X131249993Y-122093073D01*
X131243189Y-122099698D01*
X131232293Y-122113456D01*
X131224836Y-122131642D01*
X131220169Y-122159177D01*
X131217642Y-122200981D01*
X131216602Y-122261973D01*
X131216400Y-122347073D01*
X131216303Y-122390234D01*
X131215674Y-122461224D01*
X131214556Y-122518076D01*
X131213063Y-122555828D01*
X131211309Y-122569514D01*
X131210785Y-122569468D01*
X131192973Y-122564420D01*
X131160509Y-122553580D01*
X131114800Y-122537646D01*
X131114823Y-122332237D01*
X131114857Y-122313951D01*
X131116778Y-122218626D01*
X131122678Y-122146543D01*
X131134001Y-122092813D01*
X131152187Y-122052549D01*
X131178679Y-122020861D01*
X131214918Y-121992861D01*
X131250263Y-121975333D01*
X131306773Y-121961785D01*
X131362356Y-121961015D01*
X131405086Y-121974195D01*
X131408298Y-121976015D01*
X131418205Y-121975820D01*
X131424975Y-121960572D01*
X131429861Y-121925613D01*
X131434114Y-121866289D01*
X131441371Y-121744547D01*
X131488543Y-121764444D01*
G37*
%TD.AperFunction*%
X134075714Y-122250200D02*
X134075701Y-122265935D01*
X134074914Y-122336119D01*
X134072210Y-122385022D01*
X134066606Y-122419178D01*
X134057119Y-122445124D01*
X134042768Y-122469397D01*
X134039237Y-122474433D01*
X134001878Y-122514143D01*
X133959311Y-122544092D01*
X133937452Y-122553810D01*
X133858908Y-122570020D01*
X133781231Y-122559535D01*
X133709645Y-122523707D01*
X133649374Y-122463887D01*
X133644286Y-122455873D01*
X133627730Y-122409342D01*
X133616573Y-122344552D01*
X133611160Y-122269727D01*
X133611768Y-122200513D01*
X133758248Y-122200513D01*
X133759402Y-122296399D01*
X133759866Y-122302569D01*
X133766629Y-122355478D01*
X133778671Y-122389029D01*
X133799005Y-122412016D01*
X133833097Y-122433548D01*
X133866814Y-122434680D01*
X133901543Y-122409857D01*
X133907584Y-122403325D01*
X133919417Y-122383779D01*
X133926404Y-122355386D01*
X133929727Y-122311430D01*
X133930571Y-122245192D01*
X133929125Y-122183150D01*
X133921907Y-122124042D01*
X133907006Y-122086686D01*
X133882636Y-122067152D01*
X133847008Y-122061514D01*
X133833440Y-122062635D01*
X133795430Y-122083194D01*
X133770312Y-122129299D01*
X133758248Y-122200513D01*
X133611768Y-122200513D01*
X133611833Y-122193096D01*
X133618937Y-122122882D01*
X133632815Y-122067312D01*
X133650649Y-122030301D01*
X133700855Y-121972733D01*
X133768885Y-121936962D01*
X133852158Y-121924665D01*
X133874398Y-121925331D01*
X133939891Y-121938947D01*
X133993687Y-121973249D01*
X134043057Y-122032338D01*
X134045995Y-122036722D01*
X134059287Y-122060299D01*
X134067932Y-122086949D01*
X134072904Y-122123159D01*
X134075174Y-122175413D01*
X134075678Y-122245192D01*
X134075714Y-122250200D01*
%TA.AperFunction,EtchedComponent*%
G36*
X134075714Y-122250200D02*
G01*
X134075701Y-122265935D01*
X134074914Y-122336119D01*
X134072210Y-122385022D01*
X134066606Y-122419178D01*
X134057119Y-122445124D01*
X134042768Y-122469397D01*
X134039237Y-122474433D01*
X134001878Y-122514143D01*
X133959311Y-122544092D01*
X133937452Y-122553810D01*
X133858908Y-122570020D01*
X133781231Y-122559535D01*
X133709645Y-122523707D01*
X133649374Y-122463887D01*
X133644286Y-122455873D01*
X133627730Y-122409342D01*
X133616573Y-122344552D01*
X133611160Y-122269727D01*
X133611768Y-122200513D01*
X133758248Y-122200513D01*
X133759402Y-122296399D01*
X133759866Y-122302569D01*
X133766629Y-122355478D01*
X133778671Y-122389029D01*
X133799005Y-122412016D01*
X133833097Y-122433548D01*
X133866814Y-122434680D01*
X133901543Y-122409857D01*
X133907584Y-122403325D01*
X133919417Y-122383779D01*
X133926404Y-122355386D01*
X133929727Y-122311430D01*
X133930571Y-122245192D01*
X133929125Y-122183150D01*
X133921907Y-122124042D01*
X133907006Y-122086686D01*
X133882636Y-122067152D01*
X133847008Y-122061514D01*
X133833440Y-122062635D01*
X133795430Y-122083194D01*
X133770312Y-122129299D01*
X133758248Y-122200513D01*
X133611768Y-122200513D01*
X133611833Y-122193096D01*
X133618937Y-122122882D01*
X133632815Y-122067312D01*
X133650649Y-122030301D01*
X133700855Y-121972733D01*
X133768885Y-121936962D01*
X133852158Y-121924665D01*
X133874398Y-121925331D01*
X133939891Y-121938947D01*
X133993687Y-121973249D01*
X134043057Y-122032338D01*
X134045995Y-122036722D01*
X134059287Y-122060299D01*
X134067932Y-122086949D01*
X134072904Y-122123159D01*
X134075174Y-122175413D01*
X134075678Y-122245192D01*
X134075714Y-122250200D01*
G37*
%TD.AperFunction*%
X127950590Y-122267622D02*
X127950307Y-122306305D01*
X127946762Y-122382521D01*
X127937483Y-122438294D01*
X127920375Y-122479613D01*
X127893344Y-122512467D01*
X127854292Y-122542846D01*
X127829445Y-122556660D01*
X127789615Y-122565965D01*
X127733665Y-122565230D01*
X127702385Y-122562283D01*
X127664653Y-122553283D01*
X127634494Y-122533720D01*
X127599408Y-122497267D01*
X127594720Y-122491943D01*
X127563177Y-122450969D01*
X127548128Y-122415283D01*
X127544286Y-122372966D01*
X127544286Y-122310779D01*
X127587742Y-122327182D01*
X127619424Y-122346356D01*
X127646962Y-122391347D01*
X127652711Y-122405752D01*
X127684855Y-122446546D01*
X127728611Y-122467081D01*
X127776254Y-122465235D01*
X127820057Y-122438886D01*
X127835111Y-122422455D01*
X127848763Y-122397667D01*
X127844493Y-122375144D01*
X127819916Y-122351964D01*
X127772651Y-122325202D01*
X127700314Y-122291934D01*
X127551543Y-122226816D01*
X127547595Y-122162308D01*
X127549079Y-122121220D01*
X127646010Y-122121220D01*
X127653368Y-122146657D01*
X127686848Y-122173814D01*
X127747614Y-122204714D01*
X127757669Y-122209190D01*
X127805751Y-122230017D01*
X127841726Y-122244665D01*
X127858444Y-122250200D01*
X127860977Y-122246126D01*
X127861993Y-122221247D01*
X127858369Y-122181257D01*
X127849242Y-122142152D01*
X127820773Y-122092884D01*
X127779678Y-122065122D01*
X127730590Y-122061364D01*
X127678144Y-122084109D01*
X127663609Y-122095481D01*
X127646010Y-122121220D01*
X127549079Y-122121220D01*
X127549338Y-122114064D01*
X127571281Y-122053096D01*
X127598979Y-122019497D01*
X127656405Y-121981966D01*
X127724527Y-121963006D01*
X127794947Y-121964507D01*
X127859267Y-121988355D01*
X127873426Y-121997513D01*
X127905904Y-122025849D01*
X127928116Y-122061695D01*
X127941804Y-122110384D01*
X127948715Y-122177249D01*
X127949628Y-122221247D01*
X127950590Y-122267622D01*
%TA.AperFunction,EtchedComponent*%
G36*
X127950590Y-122267622D02*
G01*
X127950307Y-122306305D01*
X127946762Y-122382521D01*
X127937483Y-122438294D01*
X127920375Y-122479613D01*
X127893344Y-122512467D01*
X127854292Y-122542846D01*
X127829445Y-122556660D01*
X127789615Y-122565965D01*
X127733665Y-122565230D01*
X127702385Y-122562283D01*
X127664653Y-122553283D01*
X127634494Y-122533720D01*
X127599408Y-122497267D01*
X127594720Y-122491943D01*
X127563177Y-122450969D01*
X127548128Y-122415283D01*
X127544286Y-122372966D01*
X127544286Y-122310779D01*
X127587742Y-122327182D01*
X127619424Y-122346356D01*
X127646962Y-122391347D01*
X127652711Y-122405752D01*
X127684855Y-122446546D01*
X127728611Y-122467081D01*
X127776254Y-122465235D01*
X127820057Y-122438886D01*
X127835111Y-122422455D01*
X127848763Y-122397667D01*
X127844493Y-122375144D01*
X127819916Y-122351964D01*
X127772651Y-122325202D01*
X127700314Y-122291934D01*
X127551543Y-122226816D01*
X127547595Y-122162308D01*
X127549079Y-122121220D01*
X127646010Y-122121220D01*
X127653368Y-122146657D01*
X127686848Y-122173814D01*
X127747614Y-122204714D01*
X127757669Y-122209190D01*
X127805751Y-122230017D01*
X127841726Y-122244665D01*
X127858444Y-122250200D01*
X127860977Y-122246126D01*
X127861993Y-122221247D01*
X127858369Y-122181257D01*
X127849242Y-122142152D01*
X127820773Y-122092884D01*
X127779678Y-122065122D01*
X127730590Y-122061364D01*
X127678144Y-122084109D01*
X127663609Y-122095481D01*
X127646010Y-122121220D01*
X127549079Y-122121220D01*
X127549338Y-122114064D01*
X127571281Y-122053096D01*
X127598979Y-122019497D01*
X127656405Y-121981966D01*
X127724527Y-121963006D01*
X127794947Y-121964507D01*
X127859267Y-121988355D01*
X127873426Y-121997513D01*
X127905904Y-122025849D01*
X127928116Y-122061695D01*
X127941804Y-122110384D01*
X127948715Y-122177249D01*
X127949628Y-122221247D01*
X127950590Y-122267622D01*
G37*
%TD.AperFunction*%
X130040698Y-122264714D02*
X130039537Y-122321313D01*
X130031345Y-122398462D01*
X130013519Y-122456276D01*
X129983975Y-122500422D01*
X129940625Y-122536568D01*
X129899332Y-122557463D01*
X129829987Y-122569090D01*
X129760736Y-122556377D01*
X129698145Y-122520945D01*
X129648779Y-122464418D01*
X129642818Y-122453995D01*
X129634945Y-122435733D01*
X129629106Y-122412429D01*
X129624999Y-122380085D01*
X129622325Y-122334704D01*
X129620781Y-122272287D01*
X129620734Y-122266748D01*
X129721429Y-122266748D01*
X129721772Y-122319577D01*
X129723942Y-122367362D01*
X129729307Y-122398209D01*
X129739217Y-122418935D01*
X129755021Y-122436356D01*
X129758724Y-122439705D01*
X129806299Y-122464419D01*
X129856635Y-122461890D01*
X129903517Y-122432288D01*
X129917477Y-122416953D01*
X129929160Y-122396622D01*
X129935686Y-122368514D01*
X129938524Y-122325550D01*
X129939143Y-122260647D01*
X129938837Y-122211122D01*
X129936722Y-122162782D01*
X129931390Y-122131587D01*
X129921460Y-122110647D01*
X129905550Y-122093073D01*
X129896204Y-122085159D01*
X129847776Y-122063843D01*
X129797040Y-122067198D01*
X129752987Y-122095107D01*
X129743504Y-122106173D01*
X129731939Y-122127009D01*
X129725252Y-122156106D01*
X129722173Y-122200381D01*
X129721429Y-122266748D01*
X129620734Y-122266748D01*
X129620067Y-122188837D01*
X129619883Y-122080358D01*
X129619829Y-121743601D01*
X129667000Y-121763362D01*
X129679472Y-121768770D01*
X129699324Y-121780985D01*
X129710687Y-121799482D01*
X129716933Y-121831829D01*
X129721429Y-121885593D01*
X129725535Y-121933866D01*
X129730963Y-121965557D01*
X129738739Y-121977383D01*
X129750457Y-121974212D01*
X129780318Y-121963067D01*
X129833684Y-121960304D01*
X129891093Y-121970625D01*
X129940625Y-121992861D01*
X129967876Y-122013443D01*
X130002865Y-122053600D01*
X130025274Y-122105086D01*
X130037190Y-122173568D01*
X130040542Y-122260647D01*
X130040698Y-122264714D01*
%TA.AperFunction,EtchedComponent*%
G36*
X130040698Y-122264714D02*
G01*
X130039537Y-122321313D01*
X130031345Y-122398462D01*
X130013519Y-122456276D01*
X129983975Y-122500422D01*
X129940625Y-122536568D01*
X129899332Y-122557463D01*
X129829987Y-122569090D01*
X129760736Y-122556377D01*
X129698145Y-122520945D01*
X129648779Y-122464418D01*
X129642818Y-122453995D01*
X129634945Y-122435733D01*
X129629106Y-122412429D01*
X129624999Y-122380085D01*
X129622325Y-122334704D01*
X129620781Y-122272287D01*
X129620734Y-122266748D01*
X129721429Y-122266748D01*
X129721772Y-122319577D01*
X129723942Y-122367362D01*
X129729307Y-122398209D01*
X129739217Y-122418935D01*
X129755021Y-122436356D01*
X129758724Y-122439705D01*
X129806299Y-122464419D01*
X129856635Y-122461890D01*
X129903517Y-122432288D01*
X129917477Y-122416953D01*
X129929160Y-122396622D01*
X129935686Y-122368514D01*
X129938524Y-122325550D01*
X129939143Y-122260647D01*
X129938837Y-122211122D01*
X129936722Y-122162782D01*
X129931390Y-122131587D01*
X129921460Y-122110647D01*
X129905550Y-122093073D01*
X129896204Y-122085159D01*
X129847776Y-122063843D01*
X129797040Y-122067198D01*
X129752987Y-122095107D01*
X129743504Y-122106173D01*
X129731939Y-122127009D01*
X129725252Y-122156106D01*
X129722173Y-122200381D01*
X129721429Y-122266748D01*
X129620734Y-122266748D01*
X129620067Y-122188837D01*
X129619883Y-122080358D01*
X129619829Y-121743601D01*
X129667000Y-121763362D01*
X129679472Y-121768770D01*
X129699324Y-121780985D01*
X129710687Y-121799482D01*
X129716933Y-121831829D01*
X129721429Y-121885593D01*
X129725535Y-121933866D01*
X129730963Y-121965557D01*
X129738739Y-121977383D01*
X129750457Y-121974212D01*
X129780318Y-121963067D01*
X129833684Y-121960304D01*
X129891093Y-121970625D01*
X129940625Y-121992861D01*
X129967876Y-122013443D01*
X130002865Y-122053600D01*
X130025274Y-122105086D01*
X130037190Y-122173568D01*
X130040542Y-122260647D01*
X130040698Y-122264714D01*
G37*
%TD.AperFunction*%
X132972299Y-122209055D02*
X132967684Y-122319078D01*
X132965078Y-122342387D01*
X132945660Y-122425352D01*
X132910573Y-122488448D01*
X132857212Y-122536808D01*
X132854196Y-122538804D01*
X132786362Y-122567185D01*
X132715535Y-122569711D01*
X132647289Y-122548097D01*
X132587196Y-122504062D01*
X132540829Y-122439322D01*
X132540050Y-122437761D01*
X132524643Y-122397558D01*
X132513357Y-122351866D01*
X132507370Y-122308972D01*
X132507861Y-122277160D01*
X132516007Y-122264714D01*
X132523244Y-122265471D01*
X132557851Y-122279235D01*
X132597078Y-122304546D01*
X132630448Y-122333845D01*
X132647483Y-122359572D01*
X132665192Y-122394471D01*
X132701485Y-122426212D01*
X132743630Y-122438886D01*
X132759077Y-122435221D01*
X132789569Y-122416774D01*
X132816128Y-122391166D01*
X132827486Y-122367934D01*
X132827482Y-122367848D01*
X132814596Y-122357179D01*
X132780241Y-122337933D01*
X132729593Y-122312813D01*
X132667829Y-122284524D01*
X132667489Y-122284374D01*
X132600388Y-122254498D01*
X132555411Y-122232973D01*
X132528145Y-122216437D01*
X132514178Y-122201531D01*
X132509097Y-122184893D01*
X132508490Y-122163162D01*
X132512712Y-122122013D01*
X132656000Y-122122013D01*
X132670791Y-122134949D01*
X132707644Y-122154333D01*
X132708725Y-122154881D01*
X132752205Y-122175587D01*
X132791102Y-122192105D01*
X132815778Y-122199093D01*
X132825676Y-122189753D01*
X132827486Y-122157748D01*
X132819966Y-122117915D01*
X132793897Y-122081717D01*
X132756154Y-122062950D01*
X132714077Y-122064845D01*
X132675005Y-122090632D01*
X132659647Y-122108451D01*
X132656000Y-122122013D01*
X132512712Y-122122013D01*
X132513833Y-122111086D01*
X132540251Y-122040335D01*
X132584473Y-121984735D01*
X132641697Y-121946239D01*
X132707120Y-121926797D01*
X132775937Y-121928359D01*
X132843347Y-121952878D01*
X132904544Y-122002302D01*
X132938450Y-122051212D01*
X132962806Y-122121027D01*
X132966767Y-122157748D01*
X132972299Y-122209055D01*
%TA.AperFunction,EtchedComponent*%
G36*
X132972299Y-122209055D02*
G01*
X132967684Y-122319078D01*
X132965078Y-122342387D01*
X132945660Y-122425352D01*
X132910573Y-122488448D01*
X132857212Y-122536808D01*
X132854196Y-122538804D01*
X132786362Y-122567185D01*
X132715535Y-122569711D01*
X132647289Y-122548097D01*
X132587196Y-122504062D01*
X132540829Y-122439322D01*
X132540050Y-122437761D01*
X132524643Y-122397558D01*
X132513357Y-122351866D01*
X132507370Y-122308972D01*
X132507861Y-122277160D01*
X132516007Y-122264714D01*
X132523244Y-122265471D01*
X132557851Y-122279235D01*
X132597078Y-122304546D01*
X132630448Y-122333845D01*
X132647483Y-122359572D01*
X132665192Y-122394471D01*
X132701485Y-122426212D01*
X132743630Y-122438886D01*
X132759077Y-122435221D01*
X132789569Y-122416774D01*
X132816128Y-122391166D01*
X132827486Y-122367934D01*
X132827482Y-122367848D01*
X132814596Y-122357179D01*
X132780241Y-122337933D01*
X132729593Y-122312813D01*
X132667829Y-122284524D01*
X132667489Y-122284374D01*
X132600388Y-122254498D01*
X132555411Y-122232973D01*
X132528145Y-122216437D01*
X132514178Y-122201531D01*
X132509097Y-122184893D01*
X132508490Y-122163162D01*
X132512712Y-122122013D01*
X132656000Y-122122013D01*
X132670791Y-122134949D01*
X132707644Y-122154333D01*
X132708725Y-122154881D01*
X132752205Y-122175587D01*
X132791102Y-122192105D01*
X132815778Y-122199093D01*
X132825676Y-122189753D01*
X132827486Y-122157748D01*
X132819966Y-122117915D01*
X132793897Y-122081717D01*
X132756154Y-122062950D01*
X132714077Y-122064845D01*
X132675005Y-122090632D01*
X132659647Y-122108451D01*
X132656000Y-122122013D01*
X132512712Y-122122013D01*
X132513833Y-122111086D01*
X132540251Y-122040335D01*
X132584473Y-121984735D01*
X132641697Y-121946239D01*
X132707120Y-121926797D01*
X132775937Y-121928359D01*
X132843347Y-121952878D01*
X132904544Y-122002302D01*
X132938450Y-122051212D01*
X132962806Y-122121027D01*
X132966767Y-122157748D01*
X132972299Y-122209055D01*
G37*
%TD.AperFunction*%
X130899483Y-121975569D02*
X130949376Y-122004661D01*
X130971325Y-122027327D01*
X131013504Y-122095082D01*
X131027714Y-122168950D01*
X131027714Y-122219770D01*
X130980999Y-122200128D01*
X130948692Y-122180308D01*
X130923231Y-122139160D01*
X130920616Y-122130675D01*
X130892478Y-122087451D01*
X130850067Y-122064103D01*
X130801370Y-122063100D01*
X130754373Y-122086914D01*
X130747357Y-122093056D01*
X130723893Y-122119745D01*
X130720019Y-122143014D01*
X130737768Y-122165862D01*
X130779179Y-122191287D01*
X130846286Y-122222288D01*
X130850824Y-122224252D01*
X130925322Y-122258990D01*
X130976203Y-122289763D01*
X131007525Y-122320488D01*
X131023343Y-122355082D01*
X131027714Y-122397462D01*
X131021986Y-122444446D01*
X130993062Y-122504585D01*
X130942178Y-122547788D01*
X130905374Y-122560759D01*
X130853434Y-122567856D01*
X130802999Y-122566340D01*
X130766983Y-122555632D01*
X130763158Y-122552966D01*
X130752998Y-122534337D01*
X130760048Y-122501505D01*
X130772297Y-122475735D01*
X130791939Y-122465006D01*
X130829191Y-122465539D01*
X130880908Y-122462462D01*
X130914701Y-122441212D01*
X130926114Y-122401877D01*
X130926104Y-122400747D01*
X130919187Y-122377913D01*
X130895659Y-122356963D01*
X130849914Y-122332815D01*
X130787704Y-122303741D01*
X130746499Y-122287925D01*
X130722712Y-122288944D01*
X130711597Y-122309837D01*
X130708408Y-122353641D01*
X130708400Y-122423393D01*
X130708044Y-122466452D01*
X130706413Y-122519626D01*
X130703761Y-122556022D01*
X130700422Y-122569514D01*
X130699530Y-122569423D01*
X130680237Y-122562110D01*
X130648284Y-122546678D01*
X130604124Y-122523842D01*
X130609371Y-122318078D01*
X130609736Y-122304432D01*
X130613904Y-122208651D01*
X130621268Y-122136462D01*
X130633330Y-122083058D01*
X130651593Y-122043633D01*
X130677560Y-122013380D01*
X130712733Y-121987493D01*
X130713384Y-121987087D01*
X130770256Y-121965968D01*
X130836033Y-121962400D01*
X130899483Y-121975569D01*
%TA.AperFunction,EtchedComponent*%
G36*
X130899483Y-121975569D02*
G01*
X130949376Y-122004661D01*
X130971325Y-122027327D01*
X131013504Y-122095082D01*
X131027714Y-122168950D01*
X131027714Y-122219770D01*
X130980999Y-122200128D01*
X130948692Y-122180308D01*
X130923231Y-122139160D01*
X130920616Y-122130675D01*
X130892478Y-122087451D01*
X130850067Y-122064103D01*
X130801370Y-122063100D01*
X130754373Y-122086914D01*
X130747357Y-122093056D01*
X130723893Y-122119745D01*
X130720019Y-122143014D01*
X130737768Y-122165862D01*
X130779179Y-122191287D01*
X130846286Y-122222288D01*
X130850824Y-122224252D01*
X130925322Y-122258990D01*
X130976203Y-122289763D01*
X131007525Y-122320488D01*
X131023343Y-122355082D01*
X131027714Y-122397462D01*
X131021986Y-122444446D01*
X130993062Y-122504585D01*
X130942178Y-122547788D01*
X130905374Y-122560759D01*
X130853434Y-122567856D01*
X130802999Y-122566340D01*
X130766983Y-122555632D01*
X130763158Y-122552966D01*
X130752998Y-122534337D01*
X130760048Y-122501505D01*
X130772297Y-122475735D01*
X130791939Y-122465006D01*
X130829191Y-122465539D01*
X130880908Y-122462462D01*
X130914701Y-122441212D01*
X130926114Y-122401877D01*
X130926104Y-122400747D01*
X130919187Y-122377913D01*
X130895659Y-122356963D01*
X130849914Y-122332815D01*
X130787704Y-122303741D01*
X130746499Y-122287925D01*
X130722712Y-122288944D01*
X130711597Y-122309837D01*
X130708408Y-122353641D01*
X130708400Y-122423393D01*
X130708044Y-122466452D01*
X130706413Y-122519626D01*
X130703761Y-122556022D01*
X130700422Y-122569514D01*
X130699530Y-122569423D01*
X130680237Y-122562110D01*
X130648284Y-122546678D01*
X130604124Y-122523842D01*
X130609371Y-122318078D01*
X130609736Y-122304432D01*
X130613904Y-122208651D01*
X130621268Y-122136462D01*
X130633330Y-122083058D01*
X130651593Y-122043633D01*
X130677560Y-122013380D01*
X130712733Y-121987493D01*
X130713384Y-121987087D01*
X130770256Y-121965968D01*
X130836033Y-121962400D01*
X130899483Y-121975569D01*
G37*
%TD.AperFunction*%
X128777495Y-121961220D02*
X128808599Y-121969121D01*
X128837559Y-121988817D01*
X128874831Y-122025484D01*
X128898801Y-122051378D01*
X128923770Y-122084997D01*
X128935031Y-122116506D01*
X128937657Y-122156485D01*
X128937657Y-122221917D01*
X128893035Y-122198842D01*
X128857673Y-122170724D01*
X128833451Y-122132848D01*
X128829291Y-122122551D01*
X128797594Y-122082637D01*
X128753554Y-122062624D01*
X128705531Y-122064572D01*
X128661886Y-122090543D01*
X128643420Y-122111635D01*
X128632663Y-122138619D01*
X128644178Y-122162634D01*
X128679981Y-122186791D01*
X128742090Y-122214199D01*
X128751515Y-122217985D01*
X128808058Y-122242759D01*
X128856580Y-122267189D01*
X128887451Y-122286486D01*
X128918371Y-122320953D01*
X128938927Y-122375957D01*
X128936744Y-122434983D01*
X128912424Y-122490845D01*
X128866568Y-122536355D01*
X128829438Y-122555727D01*
X128757711Y-122569292D01*
X128717852Y-122567462D01*
X128680953Y-122557568D01*
X128666797Y-122536806D01*
X128672091Y-122502613D01*
X128673631Y-122498092D01*
X128685842Y-122474116D01*
X128706174Y-122465042D01*
X128744908Y-122465649D01*
X128772257Y-122466474D01*
X128804257Y-122459392D01*
X128826182Y-122438219D01*
X128838670Y-122412152D01*
X128840062Y-122384845D01*
X128839998Y-122384685D01*
X128823807Y-122369930D01*
X128789155Y-122348457D01*
X128744321Y-122324458D01*
X128697582Y-122302125D01*
X128657217Y-122285652D01*
X128631504Y-122279229D01*
X128627679Y-122285518D01*
X128622864Y-122315115D01*
X128619566Y-122363447D01*
X128618343Y-122424372D01*
X128618058Y-122466542D01*
X128616718Y-122519653D01*
X128614528Y-122556025D01*
X128611769Y-122569514D01*
X128597344Y-122564981D01*
X128568226Y-122552670D01*
X128531257Y-122535826D01*
X128531257Y-122319721D01*
X128531493Y-122264327D01*
X128533729Y-122180207D01*
X128539423Y-122117800D01*
X128549903Y-122072358D01*
X128566497Y-122039133D01*
X128590531Y-122013378D01*
X128623333Y-121990344D01*
X128665124Y-121971335D01*
X128742287Y-121959914D01*
X128777495Y-121961220D01*
%TA.AperFunction,EtchedComponent*%
G36*
X128777495Y-121961220D02*
G01*
X128808599Y-121969121D01*
X128837559Y-121988817D01*
X128874831Y-122025484D01*
X128898801Y-122051378D01*
X128923770Y-122084997D01*
X128935031Y-122116506D01*
X128937657Y-122156485D01*
X128937657Y-122221917D01*
X128893035Y-122198842D01*
X128857673Y-122170724D01*
X128833451Y-122132848D01*
X128829291Y-122122551D01*
X128797594Y-122082637D01*
X128753554Y-122062624D01*
X128705531Y-122064572D01*
X128661886Y-122090543D01*
X128643420Y-122111635D01*
X128632663Y-122138619D01*
X128644178Y-122162634D01*
X128679981Y-122186791D01*
X128742090Y-122214199D01*
X128751515Y-122217985D01*
X128808058Y-122242759D01*
X128856580Y-122267189D01*
X128887451Y-122286486D01*
X128918371Y-122320953D01*
X128938927Y-122375957D01*
X128936744Y-122434983D01*
X128912424Y-122490845D01*
X128866568Y-122536355D01*
X128829438Y-122555727D01*
X128757711Y-122569292D01*
X128717852Y-122567462D01*
X128680953Y-122557568D01*
X128666797Y-122536806D01*
X128672091Y-122502613D01*
X128673631Y-122498092D01*
X128685842Y-122474116D01*
X128706174Y-122465042D01*
X128744908Y-122465649D01*
X128772257Y-122466474D01*
X128804257Y-122459392D01*
X128826182Y-122438219D01*
X128838670Y-122412152D01*
X128840062Y-122384845D01*
X128839998Y-122384685D01*
X128823807Y-122369930D01*
X128789155Y-122348457D01*
X128744321Y-122324458D01*
X128697582Y-122302125D01*
X128657217Y-122285652D01*
X128631504Y-122279229D01*
X128627679Y-122285518D01*
X128622864Y-122315115D01*
X128619566Y-122363447D01*
X128618343Y-122424372D01*
X128618058Y-122466542D01*
X128616718Y-122519653D01*
X128614528Y-122556025D01*
X128611769Y-122569514D01*
X128597344Y-122564981D01*
X128568226Y-122552670D01*
X128531257Y-122535826D01*
X128531257Y-122319721D01*
X128531493Y-122264327D01*
X128533729Y-122180207D01*
X128539423Y-122117800D01*
X128549903Y-122072358D01*
X128566497Y-122039133D01*
X128590531Y-122013378D01*
X128623333Y-121990344D01*
X128665124Y-121971335D01*
X128742287Y-121959914D01*
X128777495Y-121961220D01*
G37*
%TD.AperFunction*%
X133519815Y-122316524D02*
X133521252Y-122428000D01*
X133521651Y-122460339D01*
X133522929Y-122568455D01*
X133523185Y-122651186D01*
X133521634Y-122711426D01*
X133517490Y-122752073D01*
X133509964Y-122776023D01*
X133498271Y-122786171D01*
X133481624Y-122785414D01*
X133459236Y-122776648D01*
X133430321Y-122762769D01*
X133424142Y-122759808D01*
X133398413Y-122745311D01*
X133384976Y-122728065D01*
X133379834Y-122699308D01*
X133378990Y-122650283D01*
X133378952Y-122562257D01*
X133288276Y-122562257D01*
X133232498Y-122559815D01*
X133188640Y-122549908D01*
X133152218Y-122529886D01*
X133149503Y-122527929D01*
X133112546Y-122494869D01*
X133086826Y-122454931D01*
X133070606Y-122402657D01*
X133062148Y-122332588D01*
X133060083Y-122253430D01*
X133204857Y-122253430D01*
X133204882Y-122266697D01*
X133206261Y-122326584D01*
X133210687Y-122365732D01*
X133219461Y-122391153D01*
X133233886Y-122409857D01*
X133234784Y-122410750D01*
X133270237Y-122434952D01*
X133304596Y-122432567D01*
X133343403Y-122403260D01*
X133352895Y-122393244D01*
X133366876Y-122372708D01*
X133374760Y-122345997D01*
X133378245Y-122305499D01*
X133379029Y-122243603D01*
X133378350Y-122206130D01*
X133370983Y-122137980D01*
X133354168Y-122093330D01*
X133326234Y-122068926D01*
X133285509Y-122061514D01*
X133268350Y-122063094D01*
X133238660Y-122078766D01*
X133219031Y-122113691D01*
X133208188Y-122170901D01*
X133204857Y-122253430D01*
X133060083Y-122253430D01*
X133059714Y-122239267D01*
X133060253Y-122171169D01*
X133062707Y-122119587D01*
X133068158Y-122083816D01*
X133077686Y-122057015D01*
X133092371Y-122032338D01*
X133105852Y-122013480D01*
X133154799Y-121962568D01*
X133210256Y-121934918D01*
X133279928Y-121926165D01*
X133359664Y-121934890D01*
X133428595Y-121966185D01*
X133483113Y-122021381D01*
X133487223Y-122027224D01*
X133496808Y-122042753D01*
X133504151Y-122060498D01*
X133509612Y-122084290D01*
X133513550Y-122117958D01*
X133516323Y-122165333D01*
X133518292Y-122230245D01*
X133518528Y-122243603D01*
X133519815Y-122316524D01*
%TA.AperFunction,EtchedComponent*%
G36*
X133519815Y-122316524D02*
G01*
X133521252Y-122428000D01*
X133521651Y-122460339D01*
X133522929Y-122568455D01*
X133523185Y-122651186D01*
X133521634Y-122711426D01*
X133517490Y-122752073D01*
X133509964Y-122776023D01*
X133498271Y-122786171D01*
X133481624Y-122785414D01*
X133459236Y-122776648D01*
X133430321Y-122762769D01*
X133424142Y-122759808D01*
X133398413Y-122745311D01*
X133384976Y-122728065D01*
X133379834Y-122699308D01*
X133378990Y-122650283D01*
X133378952Y-122562257D01*
X133288276Y-122562257D01*
X133232498Y-122559815D01*
X133188640Y-122549908D01*
X133152218Y-122529886D01*
X133149503Y-122527929D01*
X133112546Y-122494869D01*
X133086826Y-122454931D01*
X133070606Y-122402657D01*
X133062148Y-122332588D01*
X133060083Y-122253430D01*
X133204857Y-122253430D01*
X133204882Y-122266697D01*
X133206261Y-122326584D01*
X133210687Y-122365732D01*
X133219461Y-122391153D01*
X133233886Y-122409857D01*
X133234784Y-122410750D01*
X133270237Y-122434952D01*
X133304596Y-122432567D01*
X133343403Y-122403260D01*
X133352895Y-122393244D01*
X133366876Y-122372708D01*
X133374760Y-122345997D01*
X133378245Y-122305499D01*
X133379029Y-122243603D01*
X133378350Y-122206130D01*
X133370983Y-122137980D01*
X133354168Y-122093330D01*
X133326234Y-122068926D01*
X133285509Y-122061514D01*
X133268350Y-122063094D01*
X133238660Y-122078766D01*
X133219031Y-122113691D01*
X133208188Y-122170901D01*
X133204857Y-122253430D01*
X133060083Y-122253430D01*
X133059714Y-122239267D01*
X133060253Y-122171169D01*
X133062707Y-122119587D01*
X133068158Y-122083816D01*
X133077686Y-122057015D01*
X133092371Y-122032338D01*
X133105852Y-122013480D01*
X133154799Y-121962568D01*
X133210256Y-121934918D01*
X133279928Y-121926165D01*
X133359664Y-121934890D01*
X133428595Y-121966185D01*
X133483113Y-122021381D01*
X133487223Y-122027224D01*
X133496808Y-122042753D01*
X133504151Y-122060498D01*
X133509612Y-122084290D01*
X133513550Y-122117958D01*
X133516323Y-122165333D01*
X133518292Y-122230245D01*
X133518528Y-122243603D01*
X133519815Y-122316524D01*
G37*
%TD.AperFunction*%
X130923933Y-117257371D02*
X130999856Y-117257865D01*
X131054491Y-117259135D01*
X131091500Y-117261547D01*
X131114547Y-117265467D01*
X131127296Y-117271262D01*
X131133411Y-117279299D01*
X131136556Y-117289943D01*
X131136646Y-117290325D01*
X131141814Y-117315347D01*
X131151209Y-117363681D01*
X131163867Y-117430260D01*
X131178825Y-117510014D01*
X131195119Y-117597875D01*
X131196448Y-117605064D01*
X131212691Y-117690340D01*
X131227805Y-117765242D01*
X131240808Y-117825219D01*
X131250715Y-117865717D01*
X131256544Y-117882184D01*
X131256575Y-117882210D01*
X131274943Y-117891320D01*
X131312640Y-117906457D01*
X131361543Y-117924358D01*
X131364297Y-117925330D01*
X131426817Y-117948959D01*
X131499543Y-117978595D01*
X131567294Y-118008062D01*
X131678703Y-118058626D01*
X131925399Y-117890160D01*
X131942775Y-117878311D01*
X132017202Y-117827947D01*
X132083614Y-117783612D01*
X132138039Y-117747916D01*
X132176506Y-117723471D01*
X132195042Y-117712889D01*
X132207743Y-117715315D01*
X132236579Y-117734110D01*
X132281143Y-117771330D01*
X132342670Y-117828020D01*
X132422398Y-117905227D01*
X132429532Y-117912255D01*
X132492796Y-117975222D01*
X132548990Y-118032268D01*
X132594677Y-118079817D01*
X132626414Y-118114297D01*
X132640764Y-118132131D01*
X132640810Y-118132217D01*
X132642633Y-118145795D01*
X132635910Y-118167820D01*
X132618946Y-118201304D01*
X132590044Y-118249261D01*
X132547508Y-118314704D01*
X132489644Y-118400645D01*
X132479783Y-118415151D01*
X132429913Y-118488635D01*
X132385905Y-118553687D01*
X132350380Y-118606417D01*
X132325959Y-118642936D01*
X132315264Y-118659356D01*
X132314458Y-118662834D01*
X132319518Y-118688785D01*
X132334677Y-118731159D01*
X132357463Y-118782728D01*
X132388429Y-118850170D01*
X132423004Y-118930195D01*
X132452366Y-119002629D01*
X132459645Y-119021377D01*
X132478710Y-119069246D01*
X132492715Y-119102596D01*
X132499041Y-119115114D01*
X132506025Y-119116050D01*
X132537413Y-119121461D01*
X132588787Y-119130806D01*
X132654802Y-119143069D01*
X132730113Y-119157232D01*
X132809375Y-119172280D01*
X132887243Y-119187195D01*
X132958370Y-119200961D01*
X133017412Y-119212562D01*
X133059022Y-119220980D01*
X133077857Y-119225199D01*
X133080980Y-119226389D01*
X133088591Y-119232805D01*
X133094254Y-119246465D01*
X133098251Y-119270999D01*
X133100866Y-119310038D01*
X133102384Y-119367213D01*
X133103086Y-119446154D01*
X133103257Y-119550492D01*
X133103257Y-119867799D01*
X133027057Y-119882839D01*
X133017840Y-119884642D01*
X132968891Y-119893980D01*
X132901205Y-119906669D01*
X132822478Y-119921273D01*
X132740400Y-119936355D01*
X132708078Y-119942422D01*
X132635855Y-119957181D01*
X132575666Y-119971137D01*
X132533040Y-119982952D01*
X132513510Y-119991287D01*
X132504660Y-120004905D01*
X132488548Y-120040938D01*
X132472065Y-120087572D01*
X132466263Y-120105034D01*
X132444906Y-120162358D01*
X132417359Y-120230201D01*
X132388107Y-120297355D01*
X132372463Y-120332430D01*
X132350174Y-120384822D01*
X132334857Y-120424058D01*
X132329162Y-120443563D01*
X132329478Y-120445036D01*
X132340281Y-120465729D01*
X132364638Y-120505665D01*
X132400081Y-120560972D01*
X132444136Y-120627781D01*
X132494332Y-120702220D01*
X132659501Y-120944623D01*
X132442503Y-121161983D01*
X132421516Y-121182899D01*
X132357342Y-121245505D01*
X132299990Y-121299495D01*
X132252820Y-121341826D01*
X132219192Y-121369457D01*
X132202467Y-121379343D01*
X132184303Y-121371821D01*
X132146265Y-121350227D01*
X132092726Y-121317151D01*
X132027884Y-121275191D01*
X131955940Y-121226943D01*
X131885275Y-121179291D01*
X131821526Y-121137328D01*
X131769513Y-121104165D01*
X131733279Y-121082378D01*
X131716867Y-121074543D01*
X131715905Y-121074614D01*
X131694103Y-121082338D01*
X131655440Y-121100323D01*
X131607612Y-121125013D01*
X131607110Y-121125284D01*
X131543587Y-121157099D01*
X131500060Y-121172642D01*
X131473052Y-121172685D01*
X131459090Y-121158000D01*
X131453180Y-121143544D01*
X131437229Y-121104831D01*
X131412660Y-121045316D01*
X131380779Y-120968165D01*
X131342893Y-120876541D01*
X131300310Y-120773607D01*
X131254337Y-120662526D01*
X131212667Y-120561472D01*
X131170268Y-120457780D01*
X131132756Y-120365119D01*
X131101388Y-120286642D01*
X131077425Y-120225500D01*
X131062123Y-120184843D01*
X131056743Y-120167825D01*
X131067018Y-120152219D01*
X131095563Y-120126162D01*
X131135971Y-120095887D01*
X131232979Y-120016684D01*
X131319793Y-119915475D01*
X131383322Y-119804116D01*
X131423177Y-119685893D01*
X131438965Y-119564095D01*
X131430296Y-119442010D01*
X131396778Y-119322925D01*
X131338021Y-119210129D01*
X131253632Y-119106911D01*
X131209631Y-119066713D01*
X131104211Y-118995638D01*
X130991410Y-118949301D01*
X130874525Y-118926599D01*
X130756853Y-118926428D01*
X130641690Y-118947687D01*
X130532335Y-118989270D01*
X130432083Y-119050076D01*
X130344233Y-119129001D01*
X130272080Y-119224941D01*
X130218922Y-119336795D01*
X130188057Y-119463457D01*
X130182392Y-119524507D01*
X130190185Y-119656776D01*
X130225284Y-119782266D01*
X130286649Y-119898759D01*
X130373243Y-120004039D01*
X130484029Y-120095887D01*
X130522931Y-120124930D01*
X130552104Y-120151272D01*
X130563257Y-120167800D01*
X130558810Y-120182209D01*
X130544378Y-120220815D01*
X130521173Y-120280201D01*
X130490452Y-120357215D01*
X130453474Y-120448703D01*
X130411496Y-120551516D01*
X130365778Y-120662502D01*
X130324178Y-120763072D01*
X130281222Y-120866947D01*
X130242829Y-120959819D01*
X130210305Y-121038525D01*
X130184958Y-121099899D01*
X130168095Y-121140779D01*
X130161025Y-121158000D01*
X130160943Y-121158204D01*
X130146798Y-121172745D01*
X130119659Y-121172579D01*
X130076023Y-121156927D01*
X130012388Y-121125013D01*
X130007379Y-121122326D01*
X129960125Y-121098150D01*
X129922811Y-121081037D01*
X129903133Y-121074543D01*
X129887005Y-121082218D01*
X129850959Y-121103871D01*
X129799092Y-121136928D01*
X129735445Y-121178810D01*
X129664060Y-121226943D01*
X129593724Y-121274131D01*
X129528670Y-121316267D01*
X129474820Y-121349578D01*
X129436374Y-121371469D01*
X129417534Y-121379343D01*
X129414325Y-121378343D01*
X129391954Y-121362584D01*
X129353733Y-121330033D01*
X129303021Y-121283733D01*
X129243181Y-121226726D01*
X129177571Y-121162058D01*
X128960648Y-120944772D01*
X129129601Y-120696253D01*
X129298553Y-120447733D01*
X129247183Y-120336595D01*
X129247031Y-120336266D01*
X129216183Y-120265418D01*
X129184661Y-120186523D01*
X129159266Y-120116600D01*
X129155423Y-120105322D01*
X129136047Y-120052967D01*
X129118574Y-120012283D01*
X129106388Y-119991287D01*
X129101426Y-119988322D01*
X129071634Y-119978375D01*
X129021047Y-119965505D01*
X128955194Y-119951053D01*
X128879600Y-119936355D01*
X128856957Y-119932210D01*
X128775038Y-119917116D01*
X128698600Y-119902899D01*
X128635337Y-119890995D01*
X128592943Y-119882839D01*
X128516743Y-119867799D01*
X128516743Y-119550492D01*
X128516760Y-119511476D01*
X128517082Y-119416292D01*
X128518033Y-119345255D01*
X128519896Y-119294734D01*
X128522955Y-119261098D01*
X128527494Y-119240718D01*
X128533795Y-119229962D01*
X128542143Y-119225199D01*
X128550224Y-119223270D01*
X128583172Y-119216445D01*
X128635736Y-119206022D01*
X128702569Y-119193018D01*
X128778328Y-119178449D01*
X128857665Y-119163333D01*
X128935237Y-119148685D01*
X129005698Y-119135523D01*
X129063702Y-119124863D01*
X129103904Y-119117721D01*
X129120959Y-119115114D01*
X129122112Y-119113541D01*
X129131385Y-119093119D01*
X129147432Y-119054045D01*
X129167635Y-119002629D01*
X129195672Y-118933353D01*
X129230186Y-118853290D01*
X129262538Y-118782728D01*
X129269952Y-118766889D01*
X129290755Y-118717293D01*
X129303219Y-118679038D01*
X129304863Y-118659356D01*
X129304015Y-118657962D01*
X129290548Y-118637420D01*
X129263850Y-118597516D01*
X129226539Y-118542140D01*
X129181234Y-118475177D01*
X129130552Y-118400517D01*
X129073445Y-118315692D01*
X129030607Y-118249800D01*
X129001460Y-118201478D01*
X128984317Y-118167733D01*
X128977495Y-118145572D01*
X128979306Y-118132002D01*
X128979915Y-118130984D01*
X128996297Y-118111210D01*
X129029695Y-118075175D01*
X129076671Y-118026451D01*
X129133786Y-117968612D01*
X129197603Y-117905227D01*
X129263802Y-117840905D01*
X129328648Y-117780447D01*
X129376299Y-117739655D01*
X129407990Y-117717484D01*
X129424958Y-117712889D01*
X129427175Y-117713921D01*
X129450524Y-117727837D01*
X129492912Y-117755030D01*
X129550369Y-117792889D01*
X129618923Y-117838803D01*
X129694601Y-117890160D01*
X129941298Y-118058626D01*
X130052706Y-118008062D01*
X130055943Y-118006597D01*
X130124343Y-117976965D01*
X130196907Y-117947493D01*
X130258457Y-117924358D01*
X130258729Y-117924262D01*
X130307595Y-117906367D01*
X130345212Y-117891253D01*
X130363457Y-117882184D01*
X130363752Y-117881855D01*
X130369946Y-117863282D01*
X130380139Y-117821045D01*
X130393348Y-117759696D01*
X130408590Y-117683789D01*
X130424881Y-117597875D01*
X130425449Y-117594796D01*
X130441713Y-117507128D01*
X130456608Y-117427741D01*
X130469171Y-117361701D01*
X130478438Y-117314079D01*
X130483444Y-117289943D01*
X130483764Y-117288605D01*
X130487060Y-117278273D01*
X130493738Y-117270506D01*
X130507462Y-117264940D01*
X130531895Y-117261207D01*
X130570702Y-117258942D01*
X130627546Y-117257778D01*
X130706090Y-117257348D01*
X130810000Y-117257286D01*
X130823056Y-117257286D01*
X130923933Y-117257371D01*
%TA.AperFunction,EtchedComponent*%
G36*
X130923933Y-117257371D02*
G01*
X130999856Y-117257865D01*
X131054491Y-117259135D01*
X131091500Y-117261547D01*
X131114547Y-117265467D01*
X131127296Y-117271262D01*
X131133411Y-117279299D01*
X131136556Y-117289943D01*
X131136646Y-117290325D01*
X131141814Y-117315347D01*
X131151209Y-117363681D01*
X131163867Y-117430260D01*
X131178825Y-117510014D01*
X131195119Y-117597875D01*
X131196448Y-117605064D01*
X131212691Y-117690340D01*
X131227805Y-117765242D01*
X131240808Y-117825219D01*
X131250715Y-117865717D01*
X131256544Y-117882184D01*
X131256575Y-117882210D01*
X131274943Y-117891320D01*
X131312640Y-117906457D01*
X131361543Y-117924358D01*
X131364297Y-117925330D01*
X131426817Y-117948959D01*
X131499543Y-117978595D01*
X131567294Y-118008062D01*
X131678703Y-118058626D01*
X131925399Y-117890160D01*
X131942775Y-117878311D01*
X132017202Y-117827947D01*
X132083614Y-117783612D01*
X132138039Y-117747916D01*
X132176506Y-117723471D01*
X132195042Y-117712889D01*
X132207743Y-117715315D01*
X132236579Y-117734110D01*
X132281143Y-117771330D01*
X132342670Y-117828020D01*
X132422398Y-117905227D01*
X132429532Y-117912255D01*
X132492796Y-117975222D01*
X132548990Y-118032268D01*
X132594677Y-118079817D01*
X132626414Y-118114297D01*
X132640764Y-118132131D01*
X132640810Y-118132217D01*
X132642633Y-118145795D01*
X132635910Y-118167820D01*
X132618946Y-118201304D01*
X132590044Y-118249261D01*
X132547508Y-118314704D01*
X132489644Y-118400645D01*
X132479783Y-118415151D01*
X132429913Y-118488635D01*
X132385905Y-118553687D01*
X132350380Y-118606417D01*
X132325959Y-118642936D01*
X132315264Y-118659356D01*
X132314458Y-118662834D01*
X132319518Y-118688785D01*
X132334677Y-118731159D01*
X132357463Y-118782728D01*
X132388429Y-118850170D01*
X132423004Y-118930195D01*
X132452366Y-119002629D01*
X132459645Y-119021377D01*
X132478710Y-119069246D01*
X132492715Y-119102596D01*
X132499041Y-119115114D01*
X132506025Y-119116050D01*
X132537413Y-119121461D01*
X132588787Y-119130806D01*
X132654802Y-119143069D01*
X132730113Y-119157232D01*
X132809375Y-119172280D01*
X132887243Y-119187195D01*
X132958370Y-119200961D01*
X133017412Y-119212562D01*
X133059022Y-119220980D01*
X133077857Y-119225199D01*
X133080980Y-119226389D01*
X133088591Y-119232805D01*
X133094254Y-119246465D01*
X133098251Y-119270999D01*
X133100866Y-119310038D01*
X133102384Y-119367213D01*
X133103086Y-119446154D01*
X133103257Y-119550492D01*
X133103257Y-119867799D01*
X133027057Y-119882839D01*
X133017840Y-119884642D01*
X132968891Y-119893980D01*
X132901205Y-119906669D01*
X132822478Y-119921273D01*
X132740400Y-119936355D01*
X132708078Y-119942422D01*
X132635855Y-119957181D01*
X132575666Y-119971137D01*
X132533040Y-119982952D01*
X132513510Y-119991287D01*
X132504660Y-120004905D01*
X132488548Y-120040938D01*
X132472065Y-120087572D01*
X132466263Y-120105034D01*
X132444906Y-120162358D01*
X132417359Y-120230201D01*
X132388107Y-120297355D01*
X132372463Y-120332430D01*
X132350174Y-120384822D01*
X132334857Y-120424058D01*
X132329162Y-120443563D01*
X132329478Y-120445036D01*
X132340281Y-120465729D01*
X132364638Y-120505665D01*
X132400081Y-120560972D01*
X132444136Y-120627781D01*
X132494332Y-120702220D01*
X132659501Y-120944623D01*
X132442503Y-121161983D01*
X132421516Y-121182899D01*
X132357342Y-121245505D01*
X132299990Y-121299495D01*
X132252820Y-121341826D01*
X132219192Y-121369457D01*
X132202467Y-121379343D01*
X132184303Y-121371821D01*
X132146265Y-121350227D01*
X132092726Y-121317151D01*
X132027884Y-121275191D01*
X131955940Y-121226943D01*
X131885275Y-121179291D01*
X131821526Y-121137328D01*
X131769513Y-121104165D01*
X131733279Y-121082378D01*
X131716867Y-121074543D01*
X131715905Y-121074614D01*
X131694103Y-121082338D01*
X131655440Y-121100323D01*
X131607612Y-121125013D01*
X131607110Y-121125284D01*
X131543587Y-121157099D01*
X131500060Y-121172642D01*
X131473052Y-121172685D01*
X131459090Y-121158000D01*
X131453180Y-121143544D01*
X131437229Y-121104831D01*
X131412660Y-121045316D01*
X131380779Y-120968165D01*
X131342893Y-120876541D01*
X131300310Y-120773607D01*
X131254337Y-120662526D01*
X131212667Y-120561472D01*
X131170268Y-120457780D01*
X131132756Y-120365119D01*
X131101388Y-120286642D01*
X131077425Y-120225500D01*
X131062123Y-120184843D01*
X131056743Y-120167825D01*
X131067018Y-120152219D01*
X131095563Y-120126162D01*
X131135971Y-120095887D01*
X131232979Y-120016684D01*
X131319793Y-119915475D01*
X131383322Y-119804116D01*
X131423177Y-119685893D01*
X131438965Y-119564095D01*
X131430296Y-119442010D01*
X131396778Y-119322925D01*
X131338021Y-119210129D01*
X131253632Y-119106911D01*
X131209631Y-119066713D01*
X131104211Y-118995638D01*
X130991410Y-118949301D01*
X130874525Y-118926599D01*
X130756853Y-118926428D01*
X130641690Y-118947687D01*
X130532335Y-118989270D01*
X130432083Y-119050076D01*
X130344233Y-119129001D01*
X130272080Y-119224941D01*
X130218922Y-119336795D01*
X130188057Y-119463457D01*
X130182392Y-119524507D01*
X130190185Y-119656776D01*
X130225284Y-119782266D01*
X130286649Y-119898759D01*
X130373243Y-120004039D01*
X130484029Y-120095887D01*
X130522931Y-120124930D01*
X130552104Y-120151272D01*
X130563257Y-120167800D01*
X130558810Y-120182209D01*
X130544378Y-120220815D01*
X130521173Y-120280201D01*
X130490452Y-120357215D01*
X130453474Y-120448703D01*
X130411496Y-120551516D01*
X130365778Y-120662502D01*
X130324178Y-120763072D01*
X130281222Y-120866947D01*
X130242829Y-120959819D01*
X130210305Y-121038525D01*
X130184958Y-121099899D01*
X130168095Y-121140779D01*
X130161025Y-121158000D01*
X130160943Y-121158204D01*
X130146798Y-121172745D01*
X130119659Y-121172579D01*
X130076023Y-121156927D01*
X130012388Y-121125013D01*
X130007379Y-121122326D01*
X129960125Y-121098150D01*
X129922811Y-121081037D01*
X129903133Y-121074543D01*
X129887005Y-121082218D01*
X129850959Y-121103871D01*
X129799092Y-121136928D01*
X129735445Y-121178810D01*
X129664060Y-121226943D01*
X129593724Y-121274131D01*
X129528670Y-121316267D01*
X129474820Y-121349578D01*
X129436374Y-121371469D01*
X129417534Y-121379343D01*
X129414325Y-121378343D01*
X129391954Y-121362584D01*
X129353733Y-121330033D01*
X129303021Y-121283733D01*
X129243181Y-121226726D01*
X129177571Y-121162058D01*
X128960648Y-120944772D01*
X129129601Y-120696253D01*
X129298553Y-120447733D01*
X129247183Y-120336595D01*
X129247031Y-120336266D01*
X129216183Y-120265418D01*
X129184661Y-120186523D01*
X129159266Y-120116600D01*
X129155423Y-120105322D01*
X129136047Y-120052967D01*
X129118574Y-120012283D01*
X129106388Y-119991287D01*
X129101426Y-119988322D01*
X129071634Y-119978375D01*
X129021047Y-119965505D01*
X128955194Y-119951053D01*
X128879600Y-119936355D01*
X128856957Y-119932210D01*
X128775038Y-119917116D01*
X128698600Y-119902899D01*
X128635337Y-119890995D01*
X128592943Y-119882839D01*
X128516743Y-119867799D01*
X128516743Y-119550492D01*
X128516760Y-119511476D01*
X128517082Y-119416292D01*
X128518033Y-119345255D01*
X128519896Y-119294734D01*
X128522955Y-119261098D01*
X128527494Y-119240718D01*
X128533795Y-119229962D01*
X128542143Y-119225199D01*
X128550224Y-119223270D01*
X128583172Y-119216445D01*
X128635736Y-119206022D01*
X128702569Y-119193018D01*
X128778328Y-119178449D01*
X128857665Y-119163333D01*
X128935237Y-119148685D01*
X129005698Y-119135523D01*
X129063702Y-119124863D01*
X129103904Y-119117721D01*
X129120959Y-119115114D01*
X129122112Y-119113541D01*
X129131385Y-119093119D01*
X129147432Y-119054045D01*
X129167635Y-119002629D01*
X129195672Y-118933353D01*
X129230186Y-118853290D01*
X129262538Y-118782728D01*
X129269952Y-118766889D01*
X129290755Y-118717293D01*
X129303219Y-118679038D01*
X129304863Y-118659356D01*
X129304015Y-118657962D01*
X129290548Y-118637420D01*
X129263850Y-118597516D01*
X129226539Y-118542140D01*
X129181234Y-118475177D01*
X129130552Y-118400517D01*
X129073445Y-118315692D01*
X129030607Y-118249800D01*
X129001460Y-118201478D01*
X128984317Y-118167733D01*
X128977495Y-118145572D01*
X128979306Y-118132002D01*
X128979915Y-118130984D01*
X128996297Y-118111210D01*
X129029695Y-118075175D01*
X129076671Y-118026451D01*
X129133786Y-117968612D01*
X129197603Y-117905227D01*
X129263802Y-117840905D01*
X129328648Y-117780447D01*
X129376299Y-117739655D01*
X129407990Y-117717484D01*
X129424958Y-117712889D01*
X129427175Y-117713921D01*
X129450524Y-117727837D01*
X129492912Y-117755030D01*
X129550369Y-117792889D01*
X129618923Y-117838803D01*
X129694601Y-117890160D01*
X129941298Y-118058626D01*
X130052706Y-118008062D01*
X130055943Y-118006597D01*
X130124343Y-117976965D01*
X130196907Y-117947493D01*
X130258457Y-117924358D01*
X130258729Y-117924262D01*
X130307595Y-117906367D01*
X130345212Y-117891253D01*
X130363457Y-117882184D01*
X130363752Y-117881855D01*
X130369946Y-117863282D01*
X130380139Y-117821045D01*
X130393348Y-117759696D01*
X130408590Y-117683789D01*
X130424881Y-117597875D01*
X130425449Y-117594796D01*
X130441713Y-117507128D01*
X130456608Y-117427741D01*
X130469171Y-117361701D01*
X130478438Y-117314079D01*
X130483444Y-117289943D01*
X130483764Y-117288605D01*
X130487060Y-117278273D01*
X130493738Y-117270506D01*
X130507462Y-117264940D01*
X130531895Y-117261207D01*
X130570702Y-117258942D01*
X130627546Y-117257778D01*
X130706090Y-117257348D01*
X130810000Y-117257286D01*
X130823056Y-117257286D01*
X130923933Y-117257371D01*
G37*
%TD.AperFunction*%
%TD*%
D12*
%TO.P,U1,1,~{RESET}/PB5*%
%TO.N,Net-(JP1-A)*%
X148590000Y-83820000D03*
D13*
%TO.P,U1,2,PB3*%
%TO.N,/PH0*%
X146050000Y-83820000D03*
%TO.P,U1,3,PB4*%
%TO.N,/PH1*%
X143510000Y-83820000D03*
%TO.P,U1,4,GND*%
%TO.N,GND*%
X140970000Y-83820000D03*
%TO.P,U1,5,PB0*%
%TO.N,/~{DRVEN}*%
X140970000Y-91440000D03*
%TO.P,U1,6,PB1*%
%TO.N,Net-(U1-PB1)*%
X143510000Y-91440000D03*
%TO.P,U1,7,PB2*%
%TO.N,/PH3*%
X146050000Y-91440000D03*
%TO.P,U1,8,VCC*%
%TO.N,/+5V*%
X148590000Y-91440000D03*
%TD*%
D14*
%TO.P,K1,1*%
%TO.N,unconnected-(K1-Pad1)*%
X146730000Y-121000000D03*
D15*
%TO.P,K1,2*%
%TO.N,Net-(D1-A)*%
X144780000Y-114950000D03*
D14*
%TO.P,K1,3*%
%TO.N,unconnected-(K1-Pad3)*%
X132580000Y-114950000D03*
%TO.P,K1,4*%
%TO.N,unconnected-(K1-Pad4)*%
X132530000Y-127000000D03*
D15*
%TO.P,K1,5*%
%TO.N,/+5V*%
X144780000Y-126950000D03*
%TD*%
D16*
%TO.P,D1,1,K*%
%TO.N,/+5V*%
X151130000Y-127000000D03*
D17*
%TO.P,D1,2,A*%
%TO.N,Net-(D1-A)*%
X151130000Y-116840000D03*
%TD*%
D13*
%TO.P,C1,1*%
%TO.N,/+5V*%
X150335000Y-80010000D03*
%TO.P,C1,2*%
%TO.N,GND*%
X140335000Y-80010000D03*
%TD*%
%TO.P,R1,1*%
%TO.N,Net-(U1-PB1)*%
X141605000Y-99060000D03*
%TO.P,R1,2*%
%TO.N,Net-(Q1-B)*%
X141605000Y-111760000D03*
%TD*%
D18*
%TO.P,H1,1,1*%
%TO.N,GND*%
X148000000Y-105000000D03*
%TD*%
D19*
%TO.P,J2,1,Pin_1*%
%TO.N,GND*%
X156210000Y-83820000D03*
D20*
%TO.P,J2,2,Pin_2*%
%TO.N,/PH0*%
X158750000Y-83820000D03*
%TO.P,J2,3,Pin_3*%
%TO.N,GND*%
X156210000Y-86360000D03*
%TO.P,J2,4,Pin_4*%
%TO.N,/PH1*%
X158750000Y-86360000D03*
%TO.P,J2,5,Pin_5*%
%TO.N,GND*%
X156210000Y-88900000D03*
%TO.P,J2,6,Pin_6*%
%TO.N,/PH2*%
X158750000Y-88900000D03*
%TO.P,J2,7,Pin_7*%
%TO.N,GND*%
X156210000Y-91440000D03*
%TO.P,J2,8,Pin_8*%
%TO.N,/PH3*%
X158750000Y-91440000D03*
%TO.P,J2,9,Pin_9*%
%TO.N,/-12V*%
X156210000Y-93980000D03*
%TO.P,J2,10,Pin_10*%
%TO.N,/WRREQ*%
X158750000Y-93980000D03*
%TO.P,J2,11,Pin_11*%
%TO.N,/+5V*%
X156210000Y-96520000D03*
%TO.P,J2,12,Pin_12*%
X158750000Y-96520000D03*
%TO.P,J2,13,Pin_13*%
%TO.N,/+12V*%
X156210000Y-99060000D03*
%TO.P,J2,14,Pin_14*%
%TO.N,/~{DRVEN}*%
X158750000Y-99060000D03*
%TO.P,J2,15,Pin_15*%
%TO.N,/+12V*%
X156210000Y-101600000D03*
%TO.P,J2,16,Pin_16*%
%TO.N,/RDDATA*%
X158750000Y-101600000D03*
%TO.P,J2,17,Pin_17*%
%TO.N,/+12V*%
X156210000Y-104140000D03*
%TO.P,J2,18,Pin_18*%
%TO.N,/WRDATA*%
X158750000Y-104140000D03*
%TO.P,J2,19,Pin_19*%
%TO.N,/+12V*%
X156210000Y-106680000D03*
%TO.P,J2,20,Pin_20*%
%TO.N,/WRPROT*%
X158750000Y-106680000D03*
%TD*%
D21*
%TO.P,C2,1*%
%TO.N,/+5V*%
X157480000Y-124420000D03*
D13*
%TO.P,C2,2*%
%TO.N,GND*%
X157480000Y-121920000D03*
%TD*%
D19*
%TO.P,J1,1,Pin_1*%
%TO.N,GND*%
X132080000Y-83820000D03*
D20*
%TO.P,J1,2,Pin_2*%
%TO.N,/PH0*%
X134620000Y-83820000D03*
%TO.P,J1,3,Pin_3*%
%TO.N,GND*%
X132080000Y-86360000D03*
%TO.P,J1,4,Pin_4*%
%TO.N,/PH1*%
X134620000Y-86360000D03*
%TO.P,J1,5,Pin_5*%
%TO.N,GND*%
X132080000Y-88900000D03*
%TO.P,J1,6,Pin_6*%
%TO.N,/PH2*%
X134620000Y-88900000D03*
%TO.P,J1,7,Pin_7*%
%TO.N,GND*%
X132080000Y-91440000D03*
%TO.P,J1,8,Pin_8*%
%TO.N,/PH3*%
X134620000Y-91440000D03*
%TO.P,J1,9,Pin_9*%
%TO.N,/-12V*%
X132080000Y-93980000D03*
%TO.P,J1,10,Pin_10*%
%TO.N,/WRREQ*%
X134620000Y-93980000D03*
%TO.P,J1,11,Pin_11*%
%TO.N,/+5V*%
X132080000Y-96520000D03*
%TO.P,J1,12,Pin_12*%
X134620000Y-96520000D03*
%TO.P,J1,13,Pin_13*%
%TO.N,/+12V*%
X132080000Y-99060000D03*
%TO.P,J1,14,Pin_14*%
%TO.N,/~{DRVEN}*%
X134620000Y-99060000D03*
%TO.P,J1,15,Pin_15*%
%TO.N,/+12V*%
X132080000Y-101600000D03*
%TO.P,J1,16,Pin_16*%
%TO.N,/RDDATA*%
X134620000Y-101600000D03*
%TO.P,J1,17,Pin_17*%
%TO.N,/+12V*%
X132080000Y-104140000D03*
%TO.P,J1,18,Pin_18*%
%TO.N,/WRDATA*%
X134620000Y-104140000D03*
%TO.P,J1,19,Pin_19*%
%TO.N,/+12V*%
X132080000Y-106680000D03*
%TO.P,J1,20,Pin_20*%
%TO.N,/WRPROT*%
X134620000Y-106680000D03*
%TD*%
D22*
%TO.P,Q1,1,E*%
%TO.N,GND*%
X160020000Y-114935000D03*
D23*
%TO.P,Q1,2,B*%
%TO.N,Net-(Q1-B)*%
X157480000Y-114935000D03*
%TO.P,Q1,3,C*%
%TO.N,Net-(D1-A)*%
X154940000Y-114935000D03*
%TD*%
D24*
%TO.P,JP1,1,A*%
%TO.N,Net-(JP1-A)*%
X147320000Y-87630000D03*
D25*
%TO.P,JP1,2,B*%
%TO.N,/PH2*%
X146020000Y-87630000D03*
%TD*%
D26*
%TO.N,/+5V*%
X148590000Y-96520000D03*
D27*
%TO.N,/PH1*%
X143510000Y-86360000D03*
%TO.N,/~{DRVEN}*%
X140970000Y-97790000D03*
%TO.N,Net-(JP1-A)*%
X148590000Y-87630000D03*
%TD*%
D28*
%TO.N,GND*%
X160020000Y-119380000D02*
X157480000Y-121920000D01*
X144780000Y-81915000D02*
X149860000Y-81915000D01*
X137160000Y-81915000D02*
X132715000Y-81915000D01*
X139065000Y-81915000D02*
X138430000Y-81915000D01*
X132080000Y-83820000D02*
X132080000Y-82550000D01*
X132715000Y-81915000D02*
X132080000Y-82550000D01*
X142875000Y-81915000D02*
X144780000Y-81915000D01*
X140335000Y-80010000D02*
X138430000Y-81915000D01*
X142240000Y-81915000D02*
X142875000Y-81915000D01*
X160020000Y-114935000D02*
X160020000Y-119380000D01*
X151765000Y-83820000D02*
X156210000Y-83820000D01*
X137160000Y-81915000D02*
X144780000Y-81915000D01*
X140970000Y-83820000D02*
X139065000Y-81915000D01*
X140970000Y-83820000D02*
X142875000Y-81915000D01*
X140335000Y-80010000D02*
X142240000Y-81915000D01*
X149860000Y-81915000D02*
X151765000Y-83820000D01*
X138430000Y-81915000D02*
X137160000Y-81915000D01*
%TO.N,/+5V*%
X161925000Y-119975000D02*
X157480000Y-124420000D01*
X153670000Y-127000000D02*
X156250000Y-124420000D01*
X158750000Y-96520000D02*
X160020000Y-96520000D01*
X132080000Y-96520000D02*
X134620000Y-96520000D01*
X161925000Y-98425000D02*
X161925000Y-119975000D01*
X151130000Y-127000000D02*
X153670000Y-127000000D01*
X156250000Y-124420000D02*
X157480000Y-124420000D01*
X144780000Y-126950000D02*
X151080000Y-126950000D01*
X134620000Y-96520000D02*
X156210000Y-96520000D01*
X158750000Y-96520000D02*
X156210000Y-96520000D01*
X160020000Y-96520000D02*
X161925000Y-98425000D01*
D29*
%TO.N,Net-(D1-A)*%
X151130000Y-114950000D02*
X144780000Y-114950000D01*
X154290000Y-114950000D02*
X151130000Y-114950000D01*
X154305000Y-114935000D02*
X154290000Y-114950000D01*
X151130000Y-116840000D02*
X151130000Y-114950000D01*
%TO.N,/PH3*%
X152400000Y-90170000D02*
X154940000Y-92710000D01*
X134620000Y-91440000D02*
X138430000Y-91440000D01*
X154940000Y-92710000D02*
X157480000Y-92710000D01*
X139700000Y-90170000D02*
X146050000Y-90170000D01*
X146050000Y-91440000D02*
X146050000Y-90170000D01*
X146050000Y-90170000D02*
X152400000Y-90170000D01*
X158750000Y-91440000D02*
X157480000Y-92710000D01*
X138430000Y-91440000D02*
X139700000Y-90170000D01*
%TO.N,/PH0*%
X157480000Y-85090000D02*
X158750000Y-83820000D01*
X146050000Y-85090000D02*
X157480000Y-85090000D01*
X146050000Y-83820000D02*
X146050000Y-85090000D01*
X138430000Y-85090000D02*
X137160000Y-83820000D01*
X137160000Y-83820000D02*
X134620000Y-83820000D01*
X138430000Y-85090000D02*
X146050000Y-85090000D01*
D28*
%TO.N,/+12V*%
X156210000Y-106680000D02*
X152481000Y-110409000D01*
X152481000Y-110409000D02*
X143429000Y-110409000D01*
X132080000Y-107950000D02*
X132080000Y-106680000D01*
X143429000Y-110409000D02*
X142240000Y-109220000D01*
X142240000Y-109220000D02*
X133350000Y-109220000D01*
X133350000Y-109220000D02*
X132080000Y-107950000D01*
D29*
%TO.N,/WRDATA*%
X158750000Y-104140000D02*
X157480000Y-102870000D01*
X151130000Y-100330000D02*
X145415000Y-100330000D01*
X153670000Y-102870000D02*
X151130000Y-100330000D01*
X157480000Y-102870000D02*
X153670000Y-102870000D01*
X145415000Y-100330000D02*
X141605000Y-104140000D01*
X141605000Y-104140000D02*
X134620000Y-104140000D01*
%TO.N,/PH2*%
X154940000Y-90170000D02*
X157480000Y-90170000D01*
X146020000Y-87630000D02*
X146020000Y-88870000D01*
X146020000Y-88870000D02*
X146050000Y-88900000D01*
X157480000Y-90170000D02*
X158750000Y-88900000D01*
X153670000Y-88900000D02*
X154940000Y-90170000D01*
X146050000Y-88900000D02*
X153670000Y-88900000D01*
X134620000Y-88900000D02*
X146050000Y-88900000D01*
%TO.N,/RDDATA*%
X142240000Y-101600000D02*
X144780000Y-99060000D01*
X134620000Y-101600000D02*
X142240000Y-101600000D01*
X152400000Y-99060000D02*
X153670000Y-100330000D01*
X144780000Y-99060000D02*
X152400000Y-99060000D01*
X157480000Y-100330000D02*
X158750000Y-101600000D01*
X153670000Y-100330000D02*
X157480000Y-100330000D01*
%TO.N,/WRREQ*%
X134620000Y-93980000D02*
X138430000Y-93980000D01*
X139700000Y-95250000D02*
X157480000Y-95250000D01*
X138430000Y-93980000D02*
X139700000Y-95250000D01*
X157480000Y-95250000D02*
X158750000Y-93980000D01*
%TO.N,/WRPROT*%
X151130000Y-109220000D02*
X144780000Y-109220000D01*
X154940000Y-105410000D02*
X151130000Y-109220000D01*
X157480000Y-105410000D02*
X154940000Y-105410000D01*
X144780000Y-109220000D02*
X142240000Y-106680000D01*
X142240000Y-106680000D02*
X134620000Y-106680000D01*
X158750000Y-106680000D02*
X157480000Y-105410000D01*
%TO.N,/-12V*%
X133350000Y-92710000D02*
X132080000Y-93980000D01*
X139065000Y-92710000D02*
X133350000Y-92710000D01*
X140335000Y-93980000D02*
X156210000Y-93980000D01*
X140335000Y-93980000D02*
X139065000Y-92710000D01*
%TO.N,/PH1*%
X157480000Y-87630000D02*
X158750000Y-86360000D01*
X154940000Y-87630000D02*
X157480000Y-87630000D01*
X134620000Y-86360000D02*
X153670000Y-86360000D01*
X153670000Y-86360000D02*
X154940000Y-87630000D01*
%TO.N,Net-(Q1-B)*%
X157480000Y-113030000D02*
X157480000Y-114935000D01*
X141605000Y-111760000D02*
X156210000Y-111760000D01*
X156210000Y-111760000D02*
X157480000Y-113030000D01*
%TO.N,/~{DRVEN}*%
X138430000Y-97790000D02*
X137160000Y-99060000D01*
X134620000Y-99060000D02*
X137160000Y-99060000D01*
X138430000Y-97790000D02*
X157480000Y-97790000D01*
X157480000Y-97790000D02*
X158750000Y-99060000D01*
%TO.N,Net-(JP1-A)*%
X148590000Y-87630000D02*
X147320000Y-87630000D01*
%TD*%
%TA.AperFunction,Conductor*%
%TO.N,GND*%
G36*
X161808363Y-78020185D02*
G01*
X161829005Y-78036819D01*
X162463181Y-78670995D01*
X162496666Y-78732318D01*
X162499500Y-78758676D01*
X162499500Y-97638770D01*
X162479815Y-97705809D01*
X162427011Y-97751564D01*
X162357853Y-97761508D01*
X162294297Y-97732483D01*
X162287819Y-97726451D01*
X160498413Y-95937045D01*
X160449179Y-95904150D01*
X160416355Y-95882218D01*
X160375495Y-95854916D01*
X160375494Y-95854915D01*
X160375492Y-95854914D01*
X160375490Y-95854913D01*
X160238917Y-95798343D01*
X160238907Y-95798340D01*
X160093920Y-95769500D01*
X160093918Y-95769500D01*
X159937221Y-95769500D01*
X159870182Y-95749815D01*
X159836903Y-95718385D01*
X159780107Y-95640211D01*
X159629786Y-95489890D01*
X159457820Y-95364951D01*
X159457115Y-95364591D01*
X159449054Y-95360485D01*
X159398259Y-95312512D01*
X159381463Y-95244692D01*
X159403999Y-95178556D01*
X159449054Y-95139515D01*
X159457816Y-95135051D01*
X159479789Y-95119086D01*
X159629786Y-95010109D01*
X159629788Y-95010106D01*
X159629792Y-95010104D01*
X159780104Y-94859792D01*
X159780106Y-94859788D01*
X159780109Y-94859786D01*
X159905048Y-94687820D01*
X159905047Y-94687820D01*
X159905051Y-94687816D01*
X160001557Y-94498412D01*
X160067246Y-94296243D01*
X160100500Y-94086287D01*
X160100500Y-93873713D01*
X160067246Y-93663757D01*
X160001557Y-93461588D01*
X159905051Y-93272184D01*
X159905049Y-93272181D01*
X159905048Y-93272179D01*
X159780109Y-93100213D01*
X159629786Y-92949890D01*
X159457820Y-92824951D01*
X159457115Y-92824591D01*
X159449054Y-92820485D01*
X159398259Y-92772512D01*
X159381463Y-92704692D01*
X159403999Y-92638556D01*
X159449054Y-92599515D01*
X159457816Y-92595051D01*
X159516680Y-92552284D01*
X159629786Y-92470109D01*
X159629788Y-92470106D01*
X159629792Y-92470104D01*
X159780104Y-92319792D01*
X159780106Y-92319788D01*
X159780109Y-92319786D01*
X159905048Y-92147820D01*
X159905047Y-92147820D01*
X159905051Y-92147816D01*
X160001557Y-91958412D01*
X160067246Y-91756243D01*
X160100500Y-91546287D01*
X160100500Y-91333713D01*
X160067246Y-91123757D01*
X160001557Y-90921588D01*
X159905051Y-90732184D01*
X159905049Y-90732181D01*
X159905048Y-90732179D01*
X159780109Y-90560213D01*
X159629786Y-90409890D01*
X159457820Y-90284951D01*
X159457115Y-90284591D01*
X159449054Y-90280485D01*
X159398259Y-90232512D01*
X159381463Y-90164692D01*
X159403999Y-90098556D01*
X159449054Y-90059515D01*
X159457816Y-90055051D01*
X159556187Y-89983581D01*
X159629786Y-89930109D01*
X159629788Y-89930106D01*
X159629792Y-89930104D01*
X159780104Y-89779792D01*
X159780106Y-89779788D01*
X159780109Y-89779786D01*
X159905048Y-89607820D01*
X159905050Y-89607817D01*
X159905051Y-89607816D01*
X160001557Y-89418412D01*
X160067246Y-89216243D01*
X160100500Y-89006287D01*
X160100500Y-88793713D01*
X160067246Y-88583757D01*
X160001557Y-88381588D01*
X159905051Y-88192184D01*
X159905049Y-88192181D01*
X159905048Y-88192179D01*
X159780109Y-88020213D01*
X159629786Y-87869890D01*
X159457820Y-87744951D01*
X159457115Y-87744591D01*
X159449054Y-87740485D01*
X159398259Y-87692512D01*
X159381463Y-87624692D01*
X159403999Y-87558556D01*
X159449054Y-87519515D01*
X159457816Y-87515051D01*
X159556187Y-87443581D01*
X159629786Y-87390109D01*
X159629788Y-87390106D01*
X159629792Y-87390104D01*
X159780104Y-87239792D01*
X159780106Y-87239788D01*
X159780109Y-87239786D01*
X159903902Y-87069397D01*
X159905051Y-87067816D01*
X160001557Y-86878412D01*
X160067246Y-86676243D01*
X160100500Y-86466287D01*
X160100500Y-86253713D01*
X160067246Y-86043757D01*
X160001557Y-85841588D01*
X159905051Y-85652184D01*
X159905049Y-85652181D01*
X159905048Y-85652179D01*
X159780109Y-85480213D01*
X159629786Y-85329890D01*
X159457820Y-85204951D01*
X159457115Y-85204591D01*
X159449054Y-85200485D01*
X159398259Y-85152512D01*
X159381463Y-85084692D01*
X159403999Y-85018556D01*
X159449054Y-84979515D01*
X159457816Y-84975051D01*
X159479789Y-84959086D01*
X159629786Y-84850109D01*
X159629788Y-84850106D01*
X159629792Y-84850104D01*
X159780104Y-84699792D01*
X159780106Y-84699788D01*
X159780109Y-84699786D01*
X159905048Y-84527820D01*
X159905047Y-84527820D01*
X159905051Y-84527816D01*
X160001557Y-84338412D01*
X160067246Y-84136243D01*
X160100500Y-83926287D01*
X160100500Y-83713713D01*
X160067246Y-83503757D01*
X160001557Y-83301588D01*
X159905051Y-83112184D01*
X159905049Y-83112181D01*
X159905048Y-83112179D01*
X159780109Y-82940213D01*
X159629786Y-82789890D01*
X159457820Y-82664951D01*
X159268414Y-82568444D01*
X159268413Y-82568443D01*
X159268412Y-82568443D01*
X159066243Y-82502754D01*
X159066241Y-82502753D01*
X159066240Y-82502753D01*
X158904957Y-82477208D01*
X158856287Y-82469500D01*
X158643713Y-82469500D01*
X158595042Y-82477208D01*
X158433760Y-82502753D01*
X158231585Y-82568444D01*
X158042179Y-82664951D01*
X157870213Y-82789890D01*
X157719892Y-82940211D01*
X157715974Y-82945605D01*
X157660643Y-82988270D01*
X157591029Y-82994248D01*
X157529235Y-82961641D01*
X157497951Y-82911723D01*
X157494357Y-82900878D01*
X157494356Y-82900875D01*
X157402315Y-82751654D01*
X157278345Y-82627684D01*
X157129124Y-82535643D01*
X157129119Y-82535641D01*
X156962697Y-82480494D01*
X156962690Y-82480493D01*
X156859986Y-82470000D01*
X156460000Y-82470000D01*
X156460000Y-83386988D01*
X156402993Y-83354075D01*
X156275826Y-83320000D01*
X156144174Y-83320000D01*
X156017007Y-83354075D01*
X155960000Y-83386988D01*
X155960000Y-82470000D01*
X155560028Y-82470000D01*
X155560012Y-82470001D01*
X155457302Y-82480494D01*
X155290880Y-82535641D01*
X155290875Y-82535643D01*
X155141654Y-82627684D01*
X155017684Y-82751654D01*
X154925643Y-82900875D01*
X154925641Y-82900880D01*
X154870494Y-83067302D01*
X154870493Y-83067309D01*
X154860000Y-83170013D01*
X154860000Y-83570000D01*
X155776988Y-83570000D01*
X155744075Y-83627007D01*
X155710000Y-83754174D01*
X155710000Y-83885826D01*
X155744075Y-84012993D01*
X155776988Y-84070000D01*
X154860001Y-84070000D01*
X154860001Y-84365500D01*
X154840316Y-84432539D01*
X154787512Y-84478294D01*
X154736001Y-84489500D01*
X150014500Y-84489500D01*
X149947461Y-84469815D01*
X149901706Y-84417011D01*
X149890500Y-84365500D01*
X149890499Y-83219998D01*
X149890498Y-83219983D01*
X149886359Y-83179466D01*
X149886359Y-83179465D01*
X149879999Y-83117203D01*
X149824814Y-82950666D01*
X149732712Y-82801344D01*
X149608656Y-82677288D01*
X149459334Y-82585186D01*
X149292797Y-82530001D01*
X149292795Y-82530000D01*
X149190010Y-82519500D01*
X147989998Y-82519500D01*
X147989981Y-82519501D01*
X147887203Y-82530000D01*
X147887200Y-82530001D01*
X147720668Y-82585185D01*
X147720663Y-82585187D01*
X147571342Y-82677289D01*
X147447289Y-82801342D01*
X147355187Y-82950663D01*
X147355186Y-82950666D01*
X147328045Y-83032571D01*
X147288271Y-83090016D01*
X147223755Y-83116838D01*
X147154979Y-83104522D01*
X147110021Y-83066452D01*
X147041966Y-82972781D01*
X146897219Y-82828034D01*
X146897213Y-82828028D01*
X146731613Y-82707715D01*
X146731612Y-82707714D01*
X146731610Y-82707713D01*
X146647681Y-82664949D01*
X146549223Y-82614781D01*
X146354534Y-82551522D01*
X146179995Y-82523878D01*
X146152352Y-82519500D01*
X145947648Y-82519500D01*
X145923329Y-82523351D01*
X145745465Y-82551522D01*
X145550776Y-82614781D01*
X145368386Y-82707715D01*
X145202786Y-82828028D01*
X145058028Y-82972786D01*
X144937715Y-83138386D01*
X144890485Y-83231080D01*
X144842510Y-83281876D01*
X144774689Y-83298671D01*
X144708554Y-83276134D01*
X144669515Y-83231080D01*
X144663614Y-83219499D01*
X144622287Y-83138390D01*
X144603248Y-83112185D01*
X144501971Y-82972786D01*
X144357213Y-82828028D01*
X144191613Y-82707715D01*
X144191612Y-82707714D01*
X144191610Y-82707713D01*
X144107681Y-82664949D01*
X144009223Y-82614781D01*
X143814534Y-82551522D01*
X143639995Y-82523878D01*
X143612352Y-82519500D01*
X143407648Y-82519500D01*
X143383329Y-82523351D01*
X143205465Y-82551522D01*
X143010776Y-82614781D01*
X142828386Y-82707715D01*
X142662786Y-82828028D01*
X142518028Y-82972786D01*
X142397713Y-83138388D01*
X142350203Y-83231630D01*
X142302228Y-83282426D01*
X142234407Y-83299220D01*
X142168272Y-83276682D01*
X142129234Y-83231628D01*
X142081861Y-83138652D01*
X142049474Y-83094077D01*
X142049474Y-83094076D01*
X141370000Y-83773551D01*
X141370000Y-83767339D01*
X141342741Y-83665606D01*
X141290080Y-83574394D01*
X141215606Y-83499920D01*
X141124394Y-83447259D01*
X141022661Y-83420000D01*
X141016446Y-83420000D01*
X141695922Y-82740524D01*
X141695921Y-82740523D01*
X141651359Y-82708147D01*
X141651350Y-82708141D01*
X141469031Y-82615244D01*
X141274417Y-82552009D01*
X141072317Y-82520000D01*
X140867683Y-82520000D01*
X140665582Y-82552009D01*
X140470968Y-82615244D01*
X140288644Y-82708143D01*
X140244077Y-82740523D01*
X140244077Y-82740524D01*
X140923554Y-83420000D01*
X140917339Y-83420000D01*
X140815606Y-83447259D01*
X140724394Y-83499920D01*
X140649920Y-83574394D01*
X140597259Y-83665606D01*
X140570000Y-83767339D01*
X140570000Y-83773553D01*
X139890524Y-83094077D01*
X139890523Y-83094077D01*
X139858143Y-83138644D01*
X139765244Y-83320968D01*
X139702009Y-83515582D01*
X139670000Y-83717682D01*
X139670000Y-83922317D01*
X139702009Y-84124417D01*
X139766749Y-84323660D01*
X139765487Y-84324069D01*
X139772303Y-84387530D01*
X139741022Y-84450006D01*
X139680929Y-84485652D01*
X139650276Y-84489500D01*
X138730097Y-84489500D01*
X138663058Y-84469815D01*
X138642416Y-84453181D01*
X137647590Y-83458355D01*
X137647588Y-83458352D01*
X137528717Y-83339481D01*
X137528716Y-83339480D01*
X137441904Y-83289360D01*
X137441904Y-83289359D01*
X137441900Y-83289358D01*
X137391785Y-83260423D01*
X137239057Y-83219499D01*
X137080943Y-83219499D01*
X137073347Y-83219499D01*
X137073331Y-83219500D01*
X135905719Y-83219500D01*
X135838680Y-83199815D01*
X135795235Y-83151795D01*
X135775052Y-83112185D01*
X135775051Y-83112184D01*
X135650109Y-82940213D01*
X135499786Y-82789890D01*
X135327820Y-82664951D01*
X135138414Y-82568444D01*
X135138413Y-82568443D01*
X135138412Y-82568443D01*
X134936243Y-82502754D01*
X134936241Y-82502753D01*
X134936240Y-82502753D01*
X134774957Y-82477208D01*
X134726287Y-82469500D01*
X134513713Y-82469500D01*
X134465042Y-82477208D01*
X134303760Y-82502753D01*
X134101585Y-82568444D01*
X133912179Y-82664951D01*
X133740213Y-82789890D01*
X133589892Y-82940211D01*
X133585974Y-82945605D01*
X133530643Y-82988270D01*
X133461029Y-82994248D01*
X133399235Y-82961641D01*
X133367951Y-82911723D01*
X133364357Y-82900878D01*
X133364356Y-82900875D01*
X133272315Y-82751654D01*
X133148345Y-82627684D01*
X132999124Y-82535643D01*
X132999119Y-82535641D01*
X132832697Y-82480494D01*
X132832690Y-82480493D01*
X132729986Y-82470000D01*
X132330000Y-82470000D01*
X132330000Y-83386988D01*
X132272993Y-83354075D01*
X132145826Y-83320000D01*
X132014174Y-83320000D01*
X131887007Y-83354075D01*
X131830000Y-83386988D01*
X131830000Y-82470000D01*
X131430028Y-82470000D01*
X131430012Y-82470001D01*
X131327302Y-82480494D01*
X131160880Y-82535641D01*
X131160875Y-82535643D01*
X131011654Y-82627684D01*
X130887684Y-82751654D01*
X130795643Y-82900875D01*
X130795641Y-82900880D01*
X130740494Y-83067302D01*
X130740493Y-83067309D01*
X130730000Y-83170013D01*
X130730000Y-83570000D01*
X131646988Y-83570000D01*
X131614075Y-83627007D01*
X131580000Y-83754174D01*
X131580000Y-83885826D01*
X131614075Y-84012993D01*
X131646988Y-84070000D01*
X130730001Y-84070000D01*
X130730001Y-84469986D01*
X130740494Y-84572697D01*
X130795641Y-84739119D01*
X130795643Y-84739124D01*
X130887684Y-84888345D01*
X131011654Y-85012315D01*
X131160875Y-85104356D01*
X131160882Y-85104359D01*
X131232809Y-85128193D01*
X131290254Y-85167965D01*
X131317078Y-85232481D01*
X131317245Y-85243691D01*
X131950591Y-85877037D01*
X131887007Y-85894075D01*
X131772993Y-85959901D01*
X131679901Y-86052993D01*
X131614075Y-86167007D01*
X131597037Y-86230591D01*
X130964728Y-85598282D01*
X130964727Y-85598282D01*
X130925380Y-85652439D01*
X130828904Y-85841782D01*
X130763242Y-86043869D01*
X130763242Y-86043872D01*
X130730000Y-86253753D01*
X130730000Y-86466246D01*
X130763242Y-86676127D01*
X130763242Y-86676130D01*
X130828904Y-86878217D01*
X130925375Y-87067550D01*
X130964728Y-87121716D01*
X131597037Y-86489408D01*
X131614075Y-86552993D01*
X131679901Y-86667007D01*
X131772993Y-86760099D01*
X131887007Y-86825925D01*
X131950591Y-86842962D01*
X131349971Y-87443581D01*
X131428711Y-87560895D01*
X131429920Y-87564729D01*
X131432844Y-87567491D01*
X131440343Y-87597778D01*
X131449727Y-87627529D01*
X131448671Y-87631408D01*
X131449638Y-87635312D01*
X131439573Y-87664844D01*
X131431383Y-87694947D01*
X131428397Y-87697640D01*
X131427100Y-87701447D01*
X131382051Y-87740483D01*
X131372440Y-87745380D01*
X131318282Y-87784727D01*
X131318282Y-87784728D01*
X131950591Y-88417037D01*
X131887007Y-88434075D01*
X131772993Y-88499901D01*
X131679901Y-88592993D01*
X131614075Y-88707007D01*
X131597037Y-88770591D01*
X130964728Y-88138282D01*
X130964727Y-88138282D01*
X130925380Y-88192439D01*
X130828904Y-88381782D01*
X130763242Y-88583869D01*
X130763242Y-88583872D01*
X130730000Y-88793753D01*
X130730000Y-89006246D01*
X130763242Y-89216127D01*
X130763242Y-89216130D01*
X130828904Y-89418217D01*
X130925375Y-89607550D01*
X130964728Y-89661716D01*
X131597037Y-89029408D01*
X131614075Y-89092993D01*
X131679901Y-89207007D01*
X131772993Y-89300099D01*
X131887007Y-89365925D01*
X131950591Y-89382962D01*
X131349971Y-89983581D01*
X131428711Y-90100895D01*
X131429920Y-90104729D01*
X131432844Y-90107491D01*
X131440343Y-90137778D01*
X131449727Y-90167529D01*
X131448671Y-90171408D01*
X131449638Y-90175312D01*
X131439573Y-90204844D01*
X131431383Y-90234947D01*
X131428397Y-90237640D01*
X131427100Y-90241447D01*
X131382051Y-90280483D01*
X131372440Y-90285380D01*
X131318282Y-90324727D01*
X131318282Y-90324728D01*
X131950591Y-90957037D01*
X131887007Y-90974075D01*
X131772993Y-91039901D01*
X131679901Y-91132993D01*
X131614075Y-91247007D01*
X131597037Y-91310591D01*
X130964728Y-90678282D01*
X130964727Y-90678282D01*
X130925380Y-90732439D01*
X130828904Y-90921782D01*
X130763242Y-91123869D01*
X130763242Y-91123872D01*
X130730000Y-91333753D01*
X130730000Y-91546246D01*
X130763242Y-91756127D01*
X130763242Y-91756130D01*
X130828904Y-91958217D01*
X130925375Y-92147550D01*
X130964728Y-92201716D01*
X131597037Y-91569408D01*
X131614075Y-91632993D01*
X131679901Y-91747007D01*
X131772993Y-91840099D01*
X131887007Y-91905925D01*
X131950590Y-91922962D01*
X131318282Y-92555269D01*
X131318282Y-92555270D01*
X131372452Y-92594626D01*
X131372451Y-92594626D01*
X131381495Y-92599234D01*
X131432292Y-92647208D01*
X131449087Y-92715029D01*
X131426550Y-92781164D01*
X131381499Y-92820202D01*
X131372182Y-92824949D01*
X131200213Y-92949890D01*
X131049890Y-93100213D01*
X130924951Y-93272179D01*
X130828444Y-93461585D01*
X130762753Y-93663760D01*
X130729500Y-93873713D01*
X130729500Y-94086286D01*
X130762753Y-94296239D01*
X130828444Y-94498414D01*
X130924951Y-94687820D01*
X131049890Y-94859786D01*
X131200213Y-95010109D01*
X131372182Y-95135050D01*
X131380946Y-95139516D01*
X131431742Y-95187491D01*
X131448536Y-95255312D01*
X131425998Y-95321447D01*
X131380946Y-95360484D01*
X131372182Y-95364949D01*
X131200213Y-95489890D01*
X131049890Y-95640213D01*
X130924951Y-95812179D01*
X130828444Y-96001585D01*
X130762753Y-96203760D01*
X130729500Y-96413713D01*
X130729500Y-96626286D01*
X130762753Y-96836239D01*
X130828444Y-97038414D01*
X130924951Y-97227820D01*
X131049890Y-97399786D01*
X131200213Y-97550109D01*
X131372182Y-97675050D01*
X131380946Y-97679516D01*
X131431742Y-97727491D01*
X131448536Y-97795312D01*
X131425998Y-97861447D01*
X131380946Y-97900484D01*
X131372182Y-97904949D01*
X131200213Y-98029890D01*
X131049890Y-98180213D01*
X130924951Y-98352179D01*
X130828444Y-98541585D01*
X130762753Y-98743760D01*
X130729500Y-98953713D01*
X130729500Y-99166286D01*
X130762753Y-99376239D01*
X130762753Y-99376241D01*
X130762754Y-99376243D01*
X130776486Y-99418507D01*
X130828444Y-99578414D01*
X130924951Y-99767820D01*
X131049890Y-99939786D01*
X131200213Y-100090109D01*
X131372182Y-100215050D01*
X131380946Y-100219516D01*
X131431742Y-100267491D01*
X131448536Y-100335312D01*
X131425998Y-100401447D01*
X131380946Y-100440484D01*
X131372182Y-100444949D01*
X131200213Y-100569890D01*
X131049890Y-100720213D01*
X130924951Y-100892179D01*
X130828444Y-101081585D01*
X130762753Y-101283760D01*
X130729500Y-101493713D01*
X130729500Y-101706286D01*
X130762753Y-101916239D01*
X130828444Y-102118414D01*
X130924951Y-102307820D01*
X131049890Y-102479786D01*
X131200213Y-102630109D01*
X131372182Y-102755050D01*
X131380946Y-102759516D01*
X131431742Y-102807491D01*
X131448536Y-102875312D01*
X131425998Y-102941447D01*
X131380946Y-102980484D01*
X131372182Y-102984949D01*
X131200213Y-103109890D01*
X131049890Y-103260213D01*
X130924951Y-103432179D01*
X130828444Y-103621585D01*
X130762753Y-103823760D01*
X130729500Y-104033713D01*
X130729500Y-104246286D01*
X130762753Y-104456239D01*
X130762753Y-104456241D01*
X130762754Y-104456243D01*
X130825448Y-104649195D01*
X130828444Y-104658414D01*
X130924951Y-104847820D01*
X131049890Y-105019786D01*
X131200213Y-105170109D01*
X131372182Y-105295050D01*
X131380946Y-105299516D01*
X131431742Y-105347491D01*
X131448536Y-105415312D01*
X131425998Y-105481447D01*
X131380946Y-105520484D01*
X131372182Y-105524949D01*
X131200213Y-105649890D01*
X131049890Y-105800213D01*
X130924951Y-105972179D01*
X130828444Y-106161585D01*
X130762753Y-106363760D01*
X130729500Y-106573713D01*
X130729500Y-106786286D01*
X130762753Y-106996239D01*
X130828444Y-107198414D01*
X130924951Y-107387820D01*
X131049890Y-107559786D01*
X131049896Y-107559792D01*
X131200208Y-107710104D01*
X131278384Y-107766902D01*
X131321051Y-107822231D01*
X131329500Y-107867220D01*
X131329500Y-108023918D01*
X131329500Y-108023920D01*
X131329499Y-108023920D01*
X131358340Y-108168907D01*
X131358343Y-108168917D01*
X131414914Y-108305492D01*
X131447812Y-108354727D01*
X131447813Y-108354730D01*
X131497046Y-108428414D01*
X131497052Y-108428421D01*
X132871580Y-109802948D01*
X132871584Y-109802951D01*
X132994498Y-109885080D01*
X132994511Y-109885087D01*
X133131082Y-109941656D01*
X133131087Y-109941658D01*
X133131091Y-109941658D01*
X133131092Y-109941659D01*
X133276079Y-109970500D01*
X133276082Y-109970500D01*
X133423917Y-109970500D01*
X141877770Y-109970500D01*
X141944809Y-109990185D01*
X141965451Y-110006819D01*
X142384901Y-110426269D01*
X142418386Y-110487592D01*
X142413402Y-110557284D01*
X142371530Y-110613217D01*
X142306066Y-110637634D01*
X142240925Y-110624435D01*
X142104223Y-110554781D01*
X141909534Y-110491522D01*
X141734995Y-110463878D01*
X141707352Y-110459500D01*
X141502648Y-110459500D01*
X141478329Y-110463351D01*
X141300465Y-110491522D01*
X141105776Y-110554781D01*
X140923386Y-110647715D01*
X140757786Y-110768028D01*
X140613028Y-110912786D01*
X140492715Y-111078386D01*
X140399781Y-111260776D01*
X140336522Y-111455465D01*
X140304500Y-111657648D01*
X140304500Y-111862351D01*
X140336522Y-112064534D01*
X140399781Y-112259223D01*
X140492715Y-112441613D01*
X140613028Y-112607213D01*
X140757786Y-112751971D01*
X140912749Y-112864556D01*
X140923390Y-112872287D01*
X141039607Y-112931503D01*
X141105776Y-112965218D01*
X141105778Y-112965218D01*
X141105781Y-112965220D01*
X141162749Y-112983730D01*
X141300465Y-113028477D01*
X141401557Y-113044488D01*
X141502648Y-113060500D01*
X141502649Y-113060500D01*
X141707351Y-113060500D01*
X141707352Y-113060500D01*
X141909534Y-113028477D01*
X142104219Y-112965220D01*
X142286610Y-112872287D01*
X142388564Y-112798214D01*
X142452213Y-112751971D01*
X142452215Y-112751968D01*
X142452219Y-112751966D01*
X142596966Y-112607219D01*
X142596968Y-112607215D01*
X142596971Y-112607213D01*
X142717284Y-112441614D01*
X142717285Y-112441613D01*
X142717287Y-112441610D01*
X142724117Y-112428204D01*
X142772091Y-112377409D01*
X142834602Y-112360500D01*
X155909903Y-112360500D01*
X155976942Y-112380185D01*
X155997584Y-112396819D01*
X156843181Y-113242416D01*
X156876666Y-113303739D01*
X156879500Y-113330097D01*
X156879500Y-113762403D01*
X156859815Y-113829442D01*
X156828386Y-113862721D01*
X156665352Y-113981173D01*
X156526174Y-114120351D01*
X156526174Y-114120352D01*
X156526172Y-114120354D01*
X156487114Y-114174112D01*
X156410476Y-114279594D01*
X156320485Y-114456213D01*
X156272511Y-114507009D01*
X156204690Y-114523804D01*
X156138555Y-114501267D01*
X156099515Y-114456213D01*
X156032230Y-114324159D01*
X156009524Y-114279595D01*
X155893828Y-114120354D01*
X155754646Y-113981172D01*
X155595405Y-113865476D01*
X155540499Y-113837500D01*
X155420029Y-113776117D01*
X155232826Y-113715290D01*
X155038422Y-113684500D01*
X155038417Y-113684500D01*
X154841583Y-113684500D01*
X154841578Y-113684500D01*
X154647173Y-113715290D01*
X154459970Y-113776117D01*
X154284594Y-113865476D01*
X154193741Y-113931485D01*
X154125354Y-113981172D01*
X154125352Y-113981174D01*
X154125351Y-113981174D01*
X153986174Y-114120351D01*
X153986174Y-114120352D01*
X153986172Y-114120354D01*
X153947606Y-114173434D01*
X153870472Y-114279599D01*
X153869353Y-114281797D01*
X153868706Y-114282481D01*
X153867931Y-114283747D01*
X153867665Y-114283584D01*
X153821378Y-114332592D01*
X153758870Y-114349500D01*
X146508846Y-114349500D01*
X146441807Y-114329815D01*
X146396052Y-114277011D01*
X146394285Y-114272952D01*
X146353349Y-114174123D01*
X146353346Y-114174117D01*
X146353344Y-114174112D01*
X146238611Y-113975388D01*
X146238608Y-113975385D01*
X146238607Y-113975382D01*
X146098918Y-113793338D01*
X146098911Y-113793330D01*
X145936670Y-113631089D01*
X145936661Y-113631081D01*
X145754617Y-113491392D01*
X145555890Y-113376657D01*
X145555876Y-113376650D01*
X145343887Y-113288842D01*
X145322364Y-113283075D01*
X145122238Y-113229452D01*
X145084215Y-113224446D01*
X144894741Y-113199500D01*
X144894734Y-113199500D01*
X144665266Y-113199500D01*
X144665258Y-113199500D01*
X144448715Y-113228009D01*
X144437762Y-113229452D01*
X144344076Y-113254554D01*
X144216112Y-113288842D01*
X144004123Y-113376650D01*
X144004109Y-113376657D01*
X143805382Y-113491392D01*
X143623338Y-113631081D01*
X143461081Y-113793338D01*
X143321392Y-113975382D01*
X143206657Y-114174109D01*
X143206650Y-114174123D01*
X143118842Y-114386112D01*
X143059453Y-114607759D01*
X143059451Y-114607770D01*
X143029500Y-114835258D01*
X143029500Y-115064741D01*
X143044755Y-115180606D01*
X143059452Y-115292238D01*
X143118842Y-115513887D01*
X143206650Y-115725876D01*
X143206657Y-115725890D01*
X143321392Y-115924617D01*
X143461081Y-116106661D01*
X143461089Y-116106670D01*
X143623330Y-116268911D01*
X143623338Y-116268918D01*
X143805382Y-116408607D01*
X143805385Y-116408608D01*
X143805388Y-116408611D01*
X144004112Y-116523344D01*
X144004117Y-116523346D01*
X144004123Y-116523349D01*
X144095480Y-116561190D01*
X144216113Y-116611158D01*
X144437762Y-116670548D01*
X144665266Y-116700500D01*
X144665273Y-116700500D01*
X144894727Y-116700500D01*
X144894734Y-116700500D01*
X145122238Y-116670548D01*
X145343887Y-116611158D01*
X145555888Y-116523344D01*
X145754612Y-116408611D01*
X145936661Y-116268919D01*
X145936665Y-116268914D01*
X145936670Y-116268911D01*
X146098911Y-116106670D01*
X146098914Y-116106665D01*
X146098919Y-116106661D01*
X146238611Y-115924612D01*
X146353344Y-115725888D01*
X146394285Y-115627048D01*
X146438125Y-115572644D01*
X146504420Y-115550579D01*
X146508846Y-115550500D01*
X149856689Y-115550500D01*
X149923728Y-115570185D01*
X149969483Y-115622989D01*
X149979427Y-115692147D01*
X149950402Y-115755703D01*
X149944370Y-115762181D01*
X149909205Y-115797345D01*
X149909201Y-115797350D01*
X149761132Y-116001151D01*
X149646760Y-116225616D01*
X149568910Y-116465214D01*
X149529500Y-116714038D01*
X149529500Y-116965961D01*
X149568910Y-117214785D01*
X149646760Y-117454383D01*
X149724217Y-117606400D01*
X149760935Y-117678463D01*
X149761132Y-117678848D01*
X149909201Y-117882649D01*
X149909205Y-117882654D01*
X150087345Y-118060794D01*
X150087350Y-118060798D01*
X150213191Y-118152226D01*
X150291155Y-118208870D01*
X150434184Y-118281747D01*
X150515616Y-118323239D01*
X150515618Y-118323239D01*
X150515621Y-118323241D01*
X150755215Y-118401090D01*
X151004038Y-118440500D01*
X151004039Y-118440500D01*
X151255961Y-118440500D01*
X151255962Y-118440500D01*
X151504785Y-118401090D01*
X151744379Y-118323241D01*
X151968845Y-118208870D01*
X152172656Y-118060793D01*
X152350793Y-117882656D01*
X152498870Y-117678845D01*
X152613241Y-117454379D01*
X152691090Y-117214785D01*
X152730500Y-116965962D01*
X152730500Y-116714038D01*
X152691090Y-116465215D01*
X152613241Y-116225621D01*
X152613239Y-116225618D01*
X152613239Y-116225616D01*
X152563679Y-116128350D01*
X152498870Y-116001155D01*
X152443262Y-115924617D01*
X152350798Y-115797350D01*
X152350794Y-115797345D01*
X152315630Y-115762181D01*
X152282145Y-115700858D01*
X152287129Y-115631166D01*
X152329001Y-115575233D01*
X152394465Y-115550816D01*
X152403311Y-115550500D01*
X153778302Y-115550500D01*
X153845341Y-115570185D01*
X153878619Y-115601613D01*
X153986172Y-115749646D01*
X154125354Y-115888828D01*
X154284595Y-116004524D01*
X154358513Y-116042187D01*
X154459970Y-116093882D01*
X154459972Y-116093882D01*
X154459975Y-116093884D01*
X154556371Y-116125205D01*
X154647173Y-116154709D01*
X154841578Y-116185500D01*
X154841583Y-116185500D01*
X155038422Y-116185500D01*
X155232826Y-116154709D01*
X155420025Y-116093884D01*
X155595405Y-116004524D01*
X155754646Y-115888828D01*
X155893828Y-115749646D01*
X156009524Y-115590405D01*
X156028569Y-115553027D01*
X156099515Y-115413787D01*
X156147489Y-115362990D01*
X156215310Y-115346195D01*
X156281445Y-115368732D01*
X156320485Y-115413787D01*
X156410474Y-115590403D01*
X156431402Y-115619207D01*
X156526172Y-115749646D01*
X156665354Y-115888828D01*
X156824595Y-116004524D01*
X156898513Y-116042187D01*
X156999970Y-116093882D01*
X156999972Y-116093882D01*
X156999975Y-116093884D01*
X157096371Y-116125205D01*
X157187173Y-116154709D01*
X157381578Y-116185500D01*
X157381583Y-116185500D01*
X157578422Y-116185500D01*
X157772826Y-116154709D01*
X157960025Y-116093884D01*
X158135405Y-116004524D01*
X158294646Y-115888828D01*
X158433828Y-115749646D01*
X158545683Y-115595690D01*
X158601012Y-115553027D01*
X158670626Y-115547048D01*
X158732420Y-115579654D01*
X158766778Y-115640493D01*
X158770000Y-115668578D01*
X158770000Y-115732844D01*
X158776401Y-115792372D01*
X158776403Y-115792379D01*
X158826645Y-115927086D01*
X158826649Y-115927093D01*
X158912809Y-116042187D01*
X158912812Y-116042190D01*
X159027906Y-116128350D01*
X159027913Y-116128354D01*
X159162620Y-116178596D01*
X159162627Y-116178598D01*
X159222155Y-116184999D01*
X159222172Y-116185000D01*
X159770000Y-116185000D01*
X159770000Y-115250686D01*
X159774394Y-115255080D01*
X159865606Y-115307741D01*
X159967339Y-115335000D01*
X160072661Y-115335000D01*
X160174394Y-115307741D01*
X160265606Y-115255080D01*
X160270000Y-115250686D01*
X160270000Y-116185000D01*
X160817828Y-116185000D01*
X160817844Y-116184999D01*
X160877372Y-116178598D01*
X160877379Y-116178596D01*
X161007167Y-116130189D01*
X161076858Y-116125205D01*
X161138181Y-116158690D01*
X161171666Y-116220013D01*
X161174500Y-116246371D01*
X161174500Y-119612769D01*
X161154815Y-119679808D01*
X161138181Y-119700450D01*
X158985028Y-121853602D01*
X158923705Y-121887087D01*
X158854013Y-121882103D01*
X158798080Y-121840231D01*
X158774874Y-121785319D01*
X158747990Y-121615582D01*
X158684755Y-121420968D01*
X158591859Y-121238650D01*
X158559474Y-121194077D01*
X158559474Y-121194076D01*
X157880000Y-121873553D01*
X157880000Y-121867339D01*
X157852741Y-121765606D01*
X157800080Y-121674394D01*
X157725606Y-121599920D01*
X157634394Y-121547259D01*
X157532661Y-121520000D01*
X157526446Y-121520000D01*
X158205922Y-120840524D01*
X158205921Y-120840523D01*
X158161359Y-120808147D01*
X158161350Y-120808141D01*
X157979031Y-120715244D01*
X157784417Y-120652009D01*
X157582317Y-120620000D01*
X157377683Y-120620000D01*
X157175582Y-120652009D01*
X156980968Y-120715244D01*
X156798644Y-120808143D01*
X156754077Y-120840523D01*
X156754077Y-120840524D01*
X157433554Y-121520000D01*
X157427339Y-121520000D01*
X157325606Y-121547259D01*
X157234394Y-121599920D01*
X157159920Y-121674394D01*
X157107259Y-121765606D01*
X157080000Y-121867339D01*
X157080000Y-121873553D01*
X156400524Y-121194077D01*
X156400523Y-121194077D01*
X156368143Y-121238644D01*
X156275244Y-121420968D01*
X156212009Y-121615582D01*
X156180000Y-121817682D01*
X156180000Y-122022317D01*
X156212009Y-122224417D01*
X156275244Y-122419031D01*
X156368141Y-122601350D01*
X156368147Y-122601359D01*
X156400523Y-122645921D01*
X156400524Y-122645922D01*
X157080000Y-121966446D01*
X157080000Y-121972661D01*
X157107259Y-122074394D01*
X157159920Y-122165606D01*
X157234394Y-122240080D01*
X157325606Y-122292741D01*
X157427339Y-122320000D01*
X157433553Y-122320000D01*
X156754076Y-122999474D01*
X156757052Y-123037282D01*
X156742687Y-123105659D01*
X156693636Y-123155415D01*
X156672440Y-123164715D01*
X156610672Y-123185184D01*
X156610663Y-123185187D01*
X156461342Y-123277289D01*
X156337289Y-123401342D01*
X156245187Y-123550663D01*
X156245183Y-123550672D01*
X156230613Y-123594642D01*
X156190840Y-123652086D01*
X156137101Y-123677253D01*
X156031091Y-123698340D01*
X156031086Y-123698342D01*
X155894508Y-123754914D01*
X155894496Y-123754921D01*
X155845269Y-123787813D01*
X155771588Y-123837044D01*
X155771580Y-123837050D01*
X153395451Y-126213181D01*
X153334128Y-126246666D01*
X153307770Y-126249500D01*
X152854500Y-126249500D01*
X152787461Y-126229815D01*
X152741706Y-126177011D01*
X152730500Y-126125500D01*
X152730500Y-126099995D01*
X152730499Y-126099982D01*
X152729285Y-126088103D01*
X152719999Y-125997202D01*
X152664814Y-125830665D01*
X152572712Y-125681344D01*
X152448656Y-125557288D01*
X152343984Y-125492726D01*
X152299337Y-125465187D01*
X152299332Y-125465185D01*
X152297863Y-125464698D01*
X152132798Y-125410001D01*
X152132796Y-125410000D01*
X152030017Y-125399500D01*
X152030010Y-125399500D01*
X150229990Y-125399500D01*
X150229982Y-125399500D01*
X150127203Y-125410000D01*
X150127202Y-125410001D01*
X150044669Y-125437349D01*
X149960667Y-125465185D01*
X149960662Y-125465187D01*
X149811342Y-125557289D01*
X149687289Y-125681342D01*
X149595187Y-125830662D01*
X149595186Y-125830665D01*
X149547230Y-125975388D01*
X149540001Y-125997203D01*
X149540000Y-125997204D01*
X149530714Y-126088103D01*
X149504318Y-126152795D01*
X149447137Y-126192946D01*
X149407356Y-126199500D01*
X146439593Y-126199500D01*
X146372554Y-126179815D01*
X146332206Y-126137500D01*
X146318234Y-126113299D01*
X146238611Y-125975388D01*
X146238608Y-125975385D01*
X146238607Y-125975382D01*
X146098918Y-125793338D01*
X146098911Y-125793330D01*
X145936670Y-125631089D01*
X145936661Y-125631081D01*
X145754617Y-125491392D01*
X145555890Y-125376657D01*
X145555876Y-125376650D01*
X145343887Y-125288842D01*
X145122238Y-125229452D01*
X145084215Y-125224446D01*
X144894741Y-125199500D01*
X144894734Y-125199500D01*
X144665266Y-125199500D01*
X144665258Y-125199500D01*
X144448715Y-125228009D01*
X144437762Y-125229452D01*
X144344076Y-125254554D01*
X144216112Y-125288842D01*
X144004123Y-125376650D01*
X144004109Y-125376657D01*
X143805382Y-125491392D01*
X143623338Y-125631081D01*
X143461081Y-125793338D01*
X143321392Y-125975382D01*
X143206657Y-126174109D01*
X143206650Y-126174123D01*
X143118842Y-126386112D01*
X143059453Y-126607759D01*
X143059451Y-126607770D01*
X143029500Y-126835258D01*
X143029500Y-127064741D01*
X143054446Y-127254215D01*
X143059452Y-127292238D01*
X143085946Y-127391116D01*
X143118842Y-127513887D01*
X143206650Y-127725876D01*
X143206657Y-127725890D01*
X143321392Y-127924617D01*
X143461081Y-128106661D01*
X143461089Y-128106670D01*
X143623330Y-128268911D01*
X143623338Y-128268918D01*
X143805382Y-128408607D01*
X143805385Y-128408608D01*
X143805388Y-128408611D01*
X144004112Y-128523344D01*
X144004117Y-128523346D01*
X144004123Y-128523349D01*
X144095480Y-128561190D01*
X144216113Y-128611158D01*
X144437762Y-128670548D01*
X144665266Y-128700500D01*
X144665273Y-128700500D01*
X144894727Y-128700500D01*
X144894734Y-128700500D01*
X145122238Y-128670548D01*
X145343887Y-128611158D01*
X145555888Y-128523344D01*
X145754612Y-128408611D01*
X145936661Y-128268919D01*
X145936665Y-128268914D01*
X145936670Y-128268911D01*
X146098911Y-128106670D01*
X146098914Y-128106665D01*
X146098919Y-128106661D01*
X146238611Y-127924612D01*
X146332206Y-127762499D01*
X146382773Y-127714284D01*
X146439593Y-127700500D01*
X149405500Y-127700500D01*
X149472539Y-127720185D01*
X149518294Y-127772989D01*
X149529500Y-127824500D01*
X149529500Y-127900017D01*
X149540000Y-128002796D01*
X149540001Y-128002798D01*
X149595186Y-128169335D01*
X149687288Y-128318656D01*
X149811344Y-128442712D01*
X149960665Y-128534814D01*
X150127202Y-128589999D01*
X150229990Y-128600500D01*
X150229995Y-128600500D01*
X152030005Y-128600500D01*
X152030010Y-128600500D01*
X152132798Y-128589999D01*
X152299335Y-128534814D01*
X152448656Y-128442712D01*
X152572712Y-128318656D01*
X152664814Y-128169335D01*
X152719999Y-128002798D01*
X152730500Y-127900010D01*
X152730500Y-127874500D01*
X152750185Y-127807461D01*
X152802989Y-127761706D01*
X152854500Y-127750500D01*
X153743920Y-127750500D01*
X153841462Y-127731096D01*
X153888913Y-127721658D01*
X154025495Y-127665084D01*
X154074729Y-127632186D01*
X154148416Y-127582952D01*
X156227320Y-125504046D01*
X156288641Y-125470563D01*
X156358333Y-125475547D01*
X156402680Y-125504048D01*
X156461344Y-125562712D01*
X156610666Y-125654814D01*
X156777203Y-125709999D01*
X156879991Y-125720500D01*
X158080008Y-125720499D01*
X158182797Y-125709999D01*
X158349334Y-125654814D01*
X158498656Y-125562712D01*
X158622712Y-125438656D01*
X158714814Y-125289334D01*
X158769999Y-125122797D01*
X158780500Y-125020009D01*
X158780499Y-124232228D01*
X158800183Y-124165190D01*
X158816813Y-124144553D01*
X162287819Y-120673548D01*
X162349142Y-120640063D01*
X162418834Y-120645047D01*
X162474767Y-120686919D01*
X162499184Y-120752383D01*
X162499500Y-120761229D01*
X162499500Y-128241324D01*
X162479815Y-128308363D01*
X162463181Y-128329005D01*
X161829005Y-128963181D01*
X161767682Y-128996666D01*
X161741324Y-128999500D01*
X133530538Y-128999500D01*
X133463499Y-128979815D01*
X133417744Y-128927011D01*
X133407800Y-128857853D01*
X133436825Y-128794297D01*
X133468538Y-128768113D01*
X133643803Y-128666924D01*
X133716479Y-128611157D01*
X133851851Y-128507282D01*
X133851855Y-128507277D01*
X133851860Y-128507274D01*
X134037274Y-128321860D01*
X134037277Y-128321855D01*
X134037282Y-128321851D01*
X134196924Y-128113803D01*
X134328043Y-127886697D01*
X134428398Y-127644419D01*
X134496270Y-127391116D01*
X134530500Y-127131120D01*
X134530500Y-126868880D01*
X134496270Y-126608884D01*
X134428398Y-126355581D01*
X134363747Y-126199500D01*
X134328046Y-126113309D01*
X134328041Y-126113299D01*
X134196924Y-125886196D01*
X134069778Y-125720498D01*
X134037282Y-125678149D01*
X134037281Y-125678148D01*
X134037274Y-125678140D01*
X133851860Y-125492726D01*
X133851851Y-125492718D01*
X133643803Y-125333075D01*
X133416700Y-125201958D01*
X133416690Y-125201953D01*
X133174428Y-125101605D01*
X133174421Y-125101603D01*
X133174419Y-125101602D01*
X132921116Y-125033730D01*
X132863339Y-125026123D01*
X132661127Y-124999500D01*
X132661120Y-124999500D01*
X132398880Y-124999500D01*
X132398872Y-124999500D01*
X132167772Y-125029926D01*
X132138884Y-125033730D01*
X131885581Y-125101602D01*
X131885571Y-125101605D01*
X131643309Y-125201953D01*
X131643299Y-125201958D01*
X131416196Y-125333075D01*
X131208148Y-125492718D01*
X131022718Y-125678148D01*
X130863075Y-125886196D01*
X130731958Y-126113299D01*
X130731953Y-126113309D01*
X130631605Y-126355571D01*
X130631602Y-126355581D01*
X130564029Y-126607770D01*
X130563730Y-126608885D01*
X130529500Y-126868872D01*
X130529500Y-127131127D01*
X130550711Y-127292229D01*
X130563730Y-127391116D01*
X130628325Y-127632189D01*
X130631602Y-127644418D01*
X130631605Y-127644428D01*
X130731953Y-127886690D01*
X130731958Y-127886700D01*
X130863075Y-128113803D01*
X131022718Y-128321851D01*
X131022726Y-128321860D01*
X131208140Y-128507274D01*
X131208148Y-128507281D01*
X131416196Y-128666924D01*
X131591462Y-128768113D01*
X131639677Y-128818680D01*
X131652901Y-128887287D01*
X131626933Y-128952151D01*
X131570019Y-128992680D01*
X131529462Y-128999500D01*
X128258676Y-128999500D01*
X128191637Y-128979815D01*
X128170995Y-128963181D01*
X127536819Y-128329005D01*
X127503334Y-128267682D01*
X127500500Y-128241324D01*
X127500500Y-123191253D01*
X127520185Y-123124214D01*
X127572989Y-123078459D01*
X127642147Y-123068515D01*
X127644670Y-123068904D01*
X127654501Y-123070532D01*
X127685781Y-123073479D01*
X127726959Y-123075686D01*
X127772681Y-123076286D01*
X127782892Y-123076421D01*
X127782895Y-123076420D01*
X127782909Y-123076421D01*
X127905750Y-123063080D01*
X127905754Y-123063079D01*
X127905755Y-123063079D01*
X127911485Y-123061740D01*
X127945580Y-123053775D01*
X128069143Y-123006067D01*
X128097424Y-123003718D01*
X128125280Y-122998277D01*
X128133873Y-123000690D01*
X128138772Y-123000284D01*
X128159600Y-123006511D01*
X128164024Y-123008269D01*
X128181414Y-123016777D01*
X128182287Y-123017175D01*
X128195254Y-123022871D01*
X128224372Y-123035182D01*
X128270128Y-123052000D01*
X128284553Y-123056533D01*
X128285186Y-123056732D01*
X128428624Y-123079935D01*
X128503036Y-123070566D01*
X128521725Y-123069637D01*
X128531406Y-123069886D01*
X128581690Y-123079127D01*
X128653971Y-123073051D01*
X128660763Y-123073227D01*
X128663801Y-123074205D01*
X128676573Y-123074652D01*
X128694439Y-123077425D01*
X128734298Y-123079255D01*
X128852575Y-123070900D01*
X128924302Y-123057335D01*
X128927559Y-123056705D01*
X128932986Y-123055657D01*
X128933296Y-123057261D01*
X128989117Y-123058428D01*
X128989460Y-123056942D01*
X128995657Y-123058368D01*
X128995661Y-123058370D01*
X128995664Y-123058370D01*
X128995667Y-123058371D01*
X129024864Y-123062001D01*
X129139854Y-123076300D01*
X129177829Y-123075575D01*
X129230168Y-123071879D01*
X129242696Y-123070343D01*
X129243706Y-123070224D01*
X129256877Y-123068722D01*
X129264989Y-123067796D01*
X129291615Y-123067638D01*
X129297901Y-123068278D01*
X129300581Y-123068582D01*
X129311364Y-123069923D01*
X129320723Y-123070870D01*
X129334477Y-123072263D01*
X129336675Y-123072435D01*
X129378107Y-123075678D01*
X129378123Y-123075678D01*
X129378124Y-123075679D01*
X129398626Y-123076870D01*
X129398630Y-123076869D01*
X129398636Y-123076870D01*
X129543139Y-123061645D01*
X129572451Y-123054230D01*
X129575836Y-123053127D01*
X129645675Y-123051092D01*
X129653716Y-123053495D01*
X129668559Y-123058486D01*
X129737810Y-123071199D01*
X129754504Y-123073731D01*
X129769130Y-123075950D01*
X129769136Y-123075950D01*
X129769140Y-123075951D01*
X129769143Y-123075950D01*
X129769144Y-123075951D01*
X129807877Y-123075047D01*
X129914404Y-123072562D01*
X129983749Y-123060935D01*
X129992158Y-123059453D01*
X130129825Y-123012966D01*
X130133187Y-123011264D01*
X130201889Y-122998557D01*
X130242265Y-123009843D01*
X130244482Y-123010893D01*
X130252079Y-123014492D01*
X130288664Y-123030109D01*
X130320924Y-123042417D01*
X130320943Y-123042422D01*
X130320947Y-123042424D01*
X130341594Y-123048531D01*
X130396122Y-123064660D01*
X130396126Y-123064660D01*
X130396130Y-123064662D01*
X130415101Y-123068720D01*
X130415108Y-123068720D01*
X130415113Y-123068722D01*
X130465786Y-123074205D01*
X130519413Y-123080008D01*
X130519414Y-123080007D01*
X130519416Y-123080008D01*
X130584509Y-123070970D01*
X130604159Y-123069820D01*
X130617279Y-123070095D01*
X130647719Y-123077287D01*
X130648611Y-123077378D01*
X130649556Y-123077474D01*
X130754158Y-123072973D01*
X130758105Y-123073056D01*
X130760237Y-123073731D01*
X130775188Y-123074603D01*
X130787661Y-123076610D01*
X130838096Y-123078126D01*
X130922546Y-123073656D01*
X130974486Y-123066559D01*
X131006529Y-123058808D01*
X131068718Y-123060016D01*
X131068732Y-123059959D01*
X131069004Y-123060022D01*
X131069496Y-123060032D01*
X131069934Y-123060156D01*
X131071589Y-123060625D01*
X131166142Y-123078012D01*
X131166666Y-123078058D01*
X131193940Y-123079043D01*
X131219133Y-123079954D01*
X131219133Y-123079953D01*
X131219137Y-123079954D01*
X131346410Y-123059658D01*
X131388359Y-123060156D01*
X131390891Y-123060621D01*
X131390903Y-123060625D01*
X131485456Y-123078012D01*
X131485980Y-123078058D01*
X131554420Y-123079459D01*
X131697124Y-123052098D01*
X131728858Y-123035776D01*
X131797474Y-123022619D01*
X131836291Y-123032894D01*
X131871173Y-123048531D01*
X131992111Y-123085574D01*
X132137348Y-123089966D01*
X132206919Y-123071801D01*
X132268229Y-123071461D01*
X132344677Y-123090514D01*
X132489958Y-123087951D01*
X132546873Y-123070142D01*
X132597156Y-123065196D01*
X132733730Y-123079887D01*
X132804557Y-123077361D01*
X132842738Y-123074563D01*
X132904353Y-123058602D01*
X132974186Y-123060846D01*
X133009454Y-123079146D01*
X133020155Y-123087106D01*
X133032662Y-123101452D01*
X133147814Y-123190070D01*
X133173543Y-123204567D01*
X133188633Y-123212422D01*
X133190910Y-123214116D01*
X133201630Y-123219262D01*
X133201869Y-123219381D01*
X133203518Y-123220171D01*
X133203531Y-123220178D01*
X133209414Y-123222997D01*
X133209414Y-123222998D01*
X133238329Y-123236877D01*
X133273109Y-123252008D01*
X133295497Y-123260774D01*
X133315697Y-123268196D01*
X133427831Y-123289557D01*
X133458428Y-123295386D01*
X133458429Y-123295386D01*
X133458434Y-123295387D01*
X133475081Y-123296144D01*
X133571316Y-123291418D01*
X133710702Y-123250373D01*
X133832878Y-123171721D01*
X133844571Y-123161573D01*
X133889841Y-123110272D01*
X133948956Y-123073032D01*
X133957940Y-123071781D01*
X133957754Y-123070879D01*
X133962382Y-123069924D01*
X134005937Y-123060935D01*
X134040631Y-123053775D01*
X134040632Y-123053774D01*
X134040635Y-123053774D01*
X134144837Y-123020288D01*
X134166696Y-123010570D01*
X134253064Y-122961608D01*
X134295631Y-122931659D01*
X134373695Y-122863947D01*
X134411054Y-122824237D01*
X134457229Y-122767509D01*
X134460760Y-122762473D01*
X134482209Y-122729209D01*
X134496560Y-122704936D01*
X134536574Y-122620434D01*
X134546061Y-122594488D01*
X134570371Y-122501831D01*
X134575975Y-122467675D01*
X134581931Y-122413206D01*
X134584635Y-122364303D01*
X134585382Y-122341843D01*
X134586169Y-122271659D01*
X134586201Y-122266357D01*
X134586214Y-122250622D01*
X134586213Y-122250571D01*
X134586214Y-122250377D01*
X134586203Y-122246788D01*
X134586165Y-122241505D01*
X134586146Y-122238943D01*
X134586147Y-122238943D01*
X134586146Y-122238940D01*
X134585661Y-122171726D01*
X134585193Y-122153257D01*
X134582923Y-122101003D01*
X134578658Y-122053714D01*
X134573686Y-122017504D01*
X134553522Y-121929428D01*
X134544877Y-121902778D01*
X134503985Y-121809592D01*
X134503981Y-121809584D01*
X134490699Y-121786025D01*
X134470074Y-121752527D01*
X134470071Y-121752522D01*
X134467133Y-121748138D01*
X134434812Y-121705019D01*
X134385442Y-121645930D01*
X134378302Y-121637568D01*
X134268150Y-121542807D01*
X134268148Y-121542805D01*
X134268146Y-121542804D01*
X134214345Y-121508499D01*
X134180406Y-121488655D01*
X134043807Y-121439135D01*
X134043794Y-121439131D01*
X133978307Y-121425517D01*
X133889676Y-121415059D01*
X133867447Y-121414394D01*
X133867426Y-121414394D01*
X133777579Y-121419642D01*
X133777570Y-121419643D01*
X133694316Y-121431937D01*
X133681265Y-121434212D01*
X133668223Y-121436485D01*
X133668219Y-121436486D01*
X133668215Y-121436487D01*
X133612440Y-121456296D01*
X133542678Y-121460183D01*
X133540048Y-121459537D01*
X133415192Y-121427418D01*
X133415183Y-121427417D01*
X133335460Y-121418693D01*
X133216292Y-121419646D01*
X133216288Y-121419647D01*
X133198823Y-121421841D01*
X133129853Y-121410665D01*
X133077874Y-121363975D01*
X133059389Y-121296595D01*
X133080267Y-121229917D01*
X133085750Y-121222346D01*
X133096235Y-121208959D01*
X133153016Y-121075210D01*
X133166641Y-120958158D01*
X133169816Y-120930886D01*
X133169815Y-120930883D01*
X133169816Y-120930881D01*
X133159189Y-120868872D01*
X144729500Y-120868872D01*
X144729500Y-121131127D01*
X144750467Y-121290377D01*
X144763730Y-121391116D01*
X144831602Y-121644418D01*
X144831605Y-121644428D01*
X144931953Y-121886690D01*
X144931958Y-121886700D01*
X145063075Y-122113803D01*
X145222718Y-122321851D01*
X145222726Y-122321860D01*
X145408140Y-122507274D01*
X145408148Y-122507281D01*
X145616196Y-122666924D01*
X145843299Y-122798041D01*
X145843309Y-122798046D01*
X146085571Y-122898394D01*
X146085581Y-122898398D01*
X146338884Y-122966270D01*
X146598880Y-123000500D01*
X146598887Y-123000500D01*
X146861113Y-123000500D01*
X146861120Y-123000500D01*
X147121116Y-122966270D01*
X147374419Y-122898398D01*
X147616697Y-122798043D01*
X147843803Y-122666924D01*
X148051851Y-122507282D01*
X148051855Y-122507277D01*
X148051860Y-122507274D01*
X148237274Y-122321860D01*
X148237277Y-122321855D01*
X148237282Y-122321851D01*
X148396924Y-122113803D01*
X148528043Y-121886697D01*
X148529946Y-121882103D01*
X148578302Y-121765363D01*
X148578302Y-121765361D01*
X148628392Y-121644434D01*
X148628394Y-121644428D01*
X148628398Y-121644419D01*
X148696270Y-121391116D01*
X148730500Y-121131120D01*
X148730500Y-120868880D01*
X148696270Y-120608884D01*
X148628398Y-120355581D01*
X148578736Y-120235686D01*
X148528046Y-120113309D01*
X148528041Y-120113299D01*
X148396924Y-119886196D01*
X148274424Y-119726554D01*
X148237282Y-119678149D01*
X148237281Y-119678148D01*
X148237274Y-119678140D01*
X148051860Y-119492726D01*
X148051851Y-119492718D01*
X147843803Y-119333075D01*
X147616700Y-119201958D01*
X147616690Y-119201953D01*
X147374428Y-119101605D01*
X147374421Y-119101603D01*
X147374419Y-119101602D01*
X147121116Y-119033730D01*
X147063339Y-119026123D01*
X146861127Y-118999500D01*
X146861120Y-118999500D01*
X146598880Y-118999500D01*
X146598872Y-118999500D01*
X146367772Y-119029926D01*
X146338884Y-119033730D01*
X146085581Y-119101602D01*
X146085571Y-119101605D01*
X145843309Y-119201953D01*
X145843299Y-119201958D01*
X145616196Y-119333075D01*
X145408148Y-119492718D01*
X145222718Y-119678148D01*
X145063075Y-119886196D01*
X144931958Y-120113299D01*
X144931953Y-120113309D01*
X144831605Y-120355571D01*
X144831602Y-120355581D01*
X144771762Y-120578910D01*
X144763730Y-120608885D01*
X144729500Y-120868872D01*
X133159189Y-120868872D01*
X133145273Y-120787665D01*
X133081376Y-120657165D01*
X133081370Y-120657156D01*
X133081368Y-120657152D01*
X133028055Y-120578910D01*
X133017709Y-120546891D01*
X133006673Y-120515091D01*
X133006998Y-120513742D01*
X133006573Y-120512425D01*
X133015177Y-120479905D01*
X133023089Y-120447177D01*
X133024091Y-120446219D01*
X133024446Y-120444880D01*
X133049279Y-120422162D01*
X133073616Y-120398919D01*
X133075339Y-120398323D01*
X133075999Y-120397720D01*
X133106956Y-120387347D01*
X133113503Y-120386099D01*
X133115845Y-120385646D01*
X133125062Y-120383843D01*
X133125307Y-120383795D01*
X133125308Y-120383795D01*
X133125815Y-120383696D01*
X133202095Y-120368640D01*
X133202095Y-120368639D01*
X133202110Y-120368637D01*
X133315326Y-120332166D01*
X133437563Y-120253609D01*
X133532717Y-120143796D01*
X133546643Y-120113303D01*
X133593076Y-120011629D01*
X133593078Y-120011622D01*
X133596771Y-119985935D01*
X133613757Y-119867799D01*
X133613757Y-119550492D01*
X133613756Y-119549655D01*
X133613585Y-119445317D01*
X133613566Y-119441614D01*
X133612864Y-119362673D01*
X133612704Y-119353664D01*
X133611186Y-119296489D01*
X133610225Y-119275919D01*
X133607610Y-119236880D01*
X133602108Y-119188912D01*
X133598111Y-119164378D01*
X133565835Y-119050962D01*
X133560172Y-119037302D01*
X133514261Y-118950998D01*
X133514255Y-118950991D01*
X133417629Y-118842492D01*
X133417627Y-118842491D01*
X133417625Y-118842489D01*
X133417624Y-118842488D01*
X133410013Y-118836072D01*
X133389789Y-118819883D01*
X133377148Y-118812864D01*
X133262754Y-118749347D01*
X133259632Y-118748158D01*
X133225004Y-118737741D01*
X133189443Y-118727044D01*
X133189438Y-118727043D01*
X133189432Y-118727041D01*
X133170545Y-118722810D01*
X133160315Y-118720630D01*
X133132539Y-118715011D01*
X133118639Y-118712199D01*
X133118575Y-118712186D01*
X133118475Y-118712166D01*
X133118475Y-118712165D01*
X133115933Y-118711658D01*
X133102923Y-118709102D01*
X133040937Y-118676861D01*
X133006222Y-118616226D01*
X133009800Y-118546448D01*
X133021731Y-118521628D01*
X133027279Y-118512767D01*
X133056181Y-118464810D01*
X133074337Y-118432019D01*
X133091301Y-118398535D01*
X133124170Y-118316858D01*
X133130893Y-118294833D01*
X133147237Y-118223161D01*
X133148593Y-118077864D01*
X133146770Y-118064286D01*
X133140562Y-118028014D01*
X133090961Y-117891439D01*
X133090915Y-117891353D01*
X133076738Y-117869919D01*
X133038504Y-117812112D01*
X133038500Y-117812107D01*
X133038495Y-117812099D01*
X133024145Y-117794265D01*
X133002023Y-117768569D01*
X132970286Y-117734089D01*
X132970258Y-117734059D01*
X132962845Y-117726175D01*
X132917002Y-117678463D01*
X132912696Y-117674038D01*
X132856539Y-117617029D01*
X132852918Y-117613390D01*
X132789550Y-117550319D01*
X132787801Y-117548587D01*
X132780683Y-117541576D01*
X132777575Y-117538541D01*
X132777531Y-117538498D01*
X132697803Y-117461291D01*
X132693954Y-117457654D01*
X132688593Y-117452589D01*
X132666381Y-117432124D01*
X132627062Y-117395896D01*
X132608389Y-117379514D01*
X132592935Y-117366607D01*
X132563830Y-117342298D01*
X132563792Y-117342269D01*
X132515348Y-117306445D01*
X132515337Y-117306437D01*
X132486507Y-117287646D01*
X132486476Y-117287627D01*
X132440914Y-117261177D01*
X132440900Y-117261171D01*
X132303523Y-117213880D01*
X132290842Y-117211458D01*
X132290833Y-117211456D01*
X132290820Y-117211454D01*
X132290812Y-117211453D01*
X132290794Y-117211450D01*
X132221814Y-117203091D01*
X132221804Y-117203090D01*
X132077101Y-117216199D01*
X132077098Y-117216200D01*
X131941948Y-117269545D01*
X131941939Y-117269549D01*
X131923408Y-117280128D01*
X131902708Y-117292604D01*
X131864247Y-117317045D01*
X131859724Y-117319966D01*
X131858062Y-117321040D01*
X131851494Y-117325348D01*
X131839508Y-117333209D01*
X131772653Y-117353513D01*
X131705435Y-117334449D01*
X131659193Y-117282071D01*
X131649784Y-117253177D01*
X131642941Y-117217970D01*
X131642121Y-117213880D01*
X131641762Y-117212089D01*
X131636594Y-117187067D01*
X131633541Y-117173255D01*
X131633451Y-117172873D01*
X131632649Y-117169852D01*
X131626136Y-117145302D01*
X131622986Y-117134641D01*
X131610315Y-117097165D01*
X131552034Y-116992387D01*
X131539686Y-116970187D01*
X131539686Y-116970186D01*
X131537406Y-116967190D01*
X131533569Y-116962147D01*
X131480015Y-116905176D01*
X131448443Y-116842848D01*
X131455579Y-116773344D01*
X131499159Y-116718731D01*
X131565347Y-116696350D01*
X131632365Y-116712860D01*
X131693303Y-116748043D01*
X131693305Y-116748043D01*
X131693309Y-116748046D01*
X131922182Y-116842848D01*
X131935581Y-116848398D01*
X132188884Y-116916270D01*
X132448880Y-116950500D01*
X132448887Y-116950500D01*
X132711113Y-116950500D01*
X132711120Y-116950500D01*
X132971116Y-116916270D01*
X133224419Y-116848398D01*
X133437118Y-116760295D01*
X133466690Y-116748046D01*
X133466691Y-116748045D01*
X133466697Y-116748043D01*
X133693803Y-116616924D01*
X133901851Y-116457282D01*
X133901855Y-116457277D01*
X133901860Y-116457274D01*
X134087274Y-116271860D01*
X134087277Y-116271855D01*
X134087282Y-116271851D01*
X134246924Y-116063803D01*
X134378043Y-115836697D01*
X134478398Y-115594419D01*
X134546270Y-115341116D01*
X134580500Y-115081120D01*
X134580500Y-114818880D01*
X134546270Y-114558884D01*
X134478398Y-114305581D01*
X134468830Y-114282481D01*
X134378046Y-114063309D01*
X134378041Y-114063299D01*
X134246924Y-113836196D01*
X134087281Y-113628148D01*
X134087274Y-113628140D01*
X133901860Y-113442726D01*
X133901851Y-113442718D01*
X133693803Y-113283075D01*
X133466700Y-113151958D01*
X133466690Y-113151953D01*
X133224428Y-113051605D01*
X133224421Y-113051603D01*
X133224419Y-113051602D01*
X132971116Y-112983730D01*
X132913339Y-112976123D01*
X132711127Y-112949500D01*
X132711120Y-112949500D01*
X132448880Y-112949500D01*
X132448872Y-112949500D01*
X132217772Y-112979926D01*
X132188884Y-112983730D01*
X132021885Y-113028477D01*
X131935581Y-113051602D01*
X131935571Y-113051605D01*
X131693309Y-113151953D01*
X131693299Y-113151958D01*
X131466196Y-113283075D01*
X131258148Y-113442718D01*
X131072718Y-113628148D01*
X130913075Y-113836196D01*
X130781958Y-114063299D01*
X130781953Y-114063309D01*
X130681605Y-114305571D01*
X130681602Y-114305581D01*
X130629169Y-114501267D01*
X130613730Y-114558885D01*
X130579500Y-114818872D01*
X130579500Y-115081127D01*
X130602403Y-115255080D01*
X130613730Y-115341116D01*
X130681602Y-115594418D01*
X130681605Y-115594428D01*
X130781953Y-115836690D01*
X130781958Y-115836700D01*
X130913075Y-116063803D01*
X131072718Y-116271851D01*
X131072726Y-116271860D01*
X131258140Y-116457274D01*
X131258148Y-116457281D01*
X131258149Y-116457282D01*
X131327574Y-116510554D01*
X131413303Y-116576337D01*
X131454505Y-116632765D01*
X131458660Y-116702511D01*
X131424447Y-116763431D01*
X131362730Y-116796183D01*
X131301462Y-116793263D01*
X131200156Y-116762197D01*
X131200143Y-116762194D01*
X131177106Y-116758276D01*
X131177105Y-116758275D01*
X131177100Y-116758275D01*
X131124701Y-116752128D01*
X131124693Y-116752127D01*
X131124689Y-116752127D01*
X131124682Y-116752126D01*
X131087700Y-116749716D01*
X131066341Y-116748772D01*
X131011733Y-116747502D01*
X131003180Y-116747375D01*
X130927393Y-116746882D01*
X130924365Y-116746870D01*
X130827663Y-116746789D01*
X130823486Y-116746786D01*
X130809695Y-116746786D01*
X130807656Y-116746787D01*
X130705642Y-116746847D01*
X130703387Y-116746855D01*
X130624818Y-116747285D01*
X130617049Y-116747385D01*
X130560250Y-116748549D01*
X130540941Y-116749309D01*
X130502166Y-116751572D01*
X130502163Y-116751573D01*
X130502157Y-116751573D01*
X130502150Y-116751574D01*
X130454793Y-116756563D01*
X130454787Y-116756563D01*
X130454786Y-116756564D01*
X130454767Y-116756566D01*
X130430363Y-116760295D01*
X130430361Y-116760295D01*
X130315594Y-116791867D01*
X130301881Y-116797429D01*
X130301876Y-116797431D01*
X130216093Y-116842109D01*
X130106647Y-116937684D01*
X130106640Y-116937691D01*
X130099962Y-116945459D01*
X130064117Y-116992387D01*
X130064116Y-116992390D01*
X130000710Y-117123115D01*
X130000708Y-117123121D01*
X129997410Y-117133459D01*
X129987268Y-117169852D01*
X129987266Y-117169861D01*
X129986946Y-117171199D01*
X129983582Y-117186268D01*
X129980215Y-117202502D01*
X129978558Y-117210489D01*
X129977326Y-117216621D01*
X129970215Y-117253162D01*
X129938087Y-117315207D01*
X129877514Y-117350031D01*
X129807730Y-117346580D01*
X129780276Y-117333019D01*
X129773863Y-117328794D01*
X129773848Y-117328784D01*
X129773793Y-117328748D01*
X129768564Y-117325348D01*
X129768521Y-117325320D01*
X129726164Y-117298147D01*
X129711899Y-117289324D01*
X129688538Y-117275401D01*
X129661648Y-117261177D01*
X129642612Y-117251107D01*
X129641902Y-117250776D01*
X129640402Y-117250078D01*
X129640398Y-117250076D01*
X129640395Y-117250075D01*
X129579104Y-117226217D01*
X129579103Y-117226216D01*
X129579101Y-117226216D01*
X129579099Y-117226215D01*
X129435747Y-117202502D01*
X129291524Y-117220135D01*
X129291518Y-117220136D01*
X129275597Y-117224448D01*
X129274551Y-117224732D01*
X129269658Y-117226217D01*
X129245050Y-117233685D01*
X129115344Y-117299190D01*
X129083657Y-117321358D01*
X129083636Y-117321374D01*
X129044341Y-117351823D01*
X129044327Y-117351835D01*
X128996665Y-117392636D01*
X128980529Y-117407052D01*
X128960797Y-117425448D01*
X128915678Y-117467515D01*
X128915638Y-117467552D01*
X128915637Y-117467554D01*
X128908023Y-117474801D01*
X128841915Y-117539034D01*
X128837792Y-117543085D01*
X128774045Y-117606400D01*
X128770565Y-117609890D01*
X128713489Y-117667690D01*
X128709162Y-117672125D01*
X128662116Y-117720921D01*
X128655298Y-117728132D01*
X128621875Y-117764194D01*
X128603186Y-117785519D01*
X128586793Y-117805306D01*
X128541834Y-117868887D01*
X128541818Y-117868911D01*
X128541215Y-117869919D01*
X128512813Y-117924650D01*
X128473292Y-118064471D01*
X128471480Y-118078043D01*
X128467037Y-118152226D01*
X128489589Y-118295763D01*
X128489592Y-118295776D01*
X128496410Y-118317924D01*
X128529178Y-118398944D01*
X128529186Y-118398962D01*
X128546325Y-118432698D01*
X128564318Y-118465139D01*
X128593467Y-118513464D01*
X128598540Y-118521563D01*
X128617442Y-118588828D01*
X128596977Y-118655633D01*
X128543643Y-118700769D01*
X128517572Y-118709013D01*
X128483915Y-118715687D01*
X128479577Y-118716566D01*
X128446663Y-118723384D01*
X128431705Y-118726717D01*
X128423612Y-118728650D01*
X128289157Y-118781793D01*
X128280808Y-118786557D01*
X128183855Y-118858273D01*
X128183852Y-118858276D01*
X128093313Y-118971920D01*
X128093311Y-118971922D01*
X128086987Y-118982717D01*
X128080655Y-118993844D01*
X128080650Y-118993854D01*
X128029201Y-119129745D01*
X128024664Y-119150118D01*
X128024659Y-119150142D01*
X128014552Y-119214866D01*
X128011493Y-119248495D01*
X128009744Y-119275903D01*
X128009744Y-119275915D01*
X128007879Y-119326464D01*
X128007579Y-119338409D01*
X128006628Y-119409407D01*
X128006584Y-119414691D01*
X128006262Y-119509636D01*
X128006263Y-119509637D01*
X128006263Y-119509749D01*
X128006260Y-119511254D01*
X128006243Y-119550270D01*
X128006243Y-119867799D01*
X128015481Y-119946556D01*
X128020100Y-119985938D01*
X128073498Y-120121067D01*
X128073501Y-120121072D01*
X128091205Y-120143792D01*
X128162809Y-120235686D01*
X128280792Y-120320499D01*
X128417890Y-120368637D01*
X128494090Y-120383677D01*
X128494144Y-120383687D01*
X128494187Y-120383696D01*
X128494485Y-120383754D01*
X128496499Y-120384146D01*
X128513019Y-120387324D01*
X128575132Y-120419315D01*
X128610090Y-120479810D01*
X128606793Y-120549602D01*
X128592145Y-120578804D01*
X128538468Y-120657762D01*
X128482485Y-120765968D01*
X128482482Y-120765974D01*
X128451479Y-120907924D01*
X128451478Y-120907931D01*
X128461723Y-121052865D01*
X128461724Y-121052870D01*
X128490837Y-121131127D01*
X128512388Y-121189054D01*
X128588106Y-121290377D01*
X128612468Y-121355862D01*
X128597560Y-121424123D01*
X128548113Y-121473487D01*
X128479828Y-121488282D01*
X128462478Y-121485783D01*
X128329488Y-121456915D01*
X128329487Y-121456914D01*
X128259752Y-121451894D01*
X128259732Y-121451894D01*
X128126368Y-121459822D01*
X128126363Y-121459822D01*
X128126362Y-121459823D01*
X128060673Y-121472499D01*
X128060669Y-121472500D01*
X128060665Y-121472501D01*
X128060659Y-121472502D01*
X128032667Y-121481202D01*
X127962806Y-121482300D01*
X127955569Y-121480058D01*
X127949184Y-121477863D01*
X127949179Y-121477862D01*
X127805826Y-121454123D01*
X127735470Y-121452623D01*
X127731749Y-121452557D01*
X127731736Y-121452557D01*
X127640408Y-121464372D01*
X127571397Y-121453451D01*
X127519246Y-121406953D01*
X127500500Y-121341397D01*
X127500500Y-79907682D01*
X139035000Y-79907682D01*
X139035000Y-80112317D01*
X139067009Y-80314417D01*
X139130244Y-80509031D01*
X139223141Y-80691350D01*
X139223147Y-80691359D01*
X139255523Y-80735921D01*
X139255524Y-80735922D01*
X139935000Y-80056446D01*
X139935000Y-80062661D01*
X139962259Y-80164394D01*
X140014920Y-80255606D01*
X140089394Y-80330080D01*
X140180606Y-80382741D01*
X140282339Y-80410000D01*
X140288553Y-80410000D01*
X139609076Y-81089474D01*
X139653650Y-81121859D01*
X139835968Y-81214755D01*
X140030582Y-81277990D01*
X140232683Y-81310000D01*
X140437317Y-81310000D01*
X140639417Y-81277990D01*
X140834031Y-81214755D01*
X141016349Y-81121859D01*
X141060921Y-81089474D01*
X140381447Y-80410000D01*
X140387661Y-80410000D01*
X140489394Y-80382741D01*
X140580606Y-80330080D01*
X140655080Y-80255606D01*
X140707741Y-80164394D01*
X140735000Y-80062661D01*
X140735000Y-80056447D01*
X141414474Y-80735921D01*
X141446859Y-80691349D01*
X141539755Y-80509031D01*
X141602990Y-80314417D01*
X141635000Y-80112317D01*
X141635000Y-79907682D01*
X141634995Y-79907648D01*
X149034500Y-79907648D01*
X149034500Y-80112351D01*
X149066522Y-80314534D01*
X149129781Y-80509223D01*
X149193691Y-80634653D01*
X149222585Y-80691359D01*
X149222715Y-80691613D01*
X149343028Y-80857213D01*
X149487786Y-81001971D01*
X149608226Y-81089474D01*
X149653390Y-81122287D01*
X149769607Y-81181503D01*
X149835776Y-81215218D01*
X149835778Y-81215218D01*
X149835781Y-81215220D01*
X149940137Y-81249127D01*
X150030465Y-81278477D01*
X150131557Y-81294488D01*
X150232648Y-81310500D01*
X150232649Y-81310500D01*
X150437351Y-81310500D01*
X150437352Y-81310500D01*
X150639534Y-81278477D01*
X150834219Y-81215220D01*
X151016610Y-81122287D01*
X151109590Y-81054732D01*
X151182213Y-81001971D01*
X151182215Y-81001968D01*
X151182219Y-81001966D01*
X151326966Y-80857219D01*
X151326968Y-80857215D01*
X151326971Y-80857213D01*
X151379732Y-80784590D01*
X151447287Y-80691610D01*
X151540220Y-80509219D01*
X151603477Y-80314534D01*
X151635500Y-80112352D01*
X151635500Y-79907648D01*
X151627257Y-79855606D01*
X151603477Y-79705465D01*
X151572458Y-79610000D01*
X151540220Y-79510781D01*
X151540218Y-79510778D01*
X151540218Y-79510776D01*
X151447419Y-79328650D01*
X151447287Y-79328390D01*
X151415092Y-79284077D01*
X151326971Y-79162786D01*
X151182213Y-79018028D01*
X151016613Y-78897715D01*
X151016612Y-78897714D01*
X151016610Y-78897713D01*
X150959653Y-78868691D01*
X150834223Y-78804781D01*
X150639534Y-78741522D01*
X150464995Y-78713878D01*
X150437352Y-78709500D01*
X150232648Y-78709500D01*
X150208329Y-78713351D01*
X150030465Y-78741522D01*
X149835776Y-78804781D01*
X149653386Y-78897715D01*
X149487786Y-79018028D01*
X149343028Y-79162786D01*
X149222715Y-79328386D01*
X149129781Y-79510776D01*
X149066522Y-79705465D01*
X149034500Y-79907648D01*
X141634995Y-79907648D01*
X141602990Y-79705582D01*
X141539755Y-79510968D01*
X141446859Y-79328650D01*
X141414474Y-79284077D01*
X141414474Y-79284076D01*
X140735000Y-79963551D01*
X140735000Y-79957339D01*
X140707741Y-79855606D01*
X140655080Y-79764394D01*
X140580606Y-79689920D01*
X140489394Y-79637259D01*
X140387661Y-79610000D01*
X140381446Y-79610000D01*
X141060922Y-78930524D01*
X141060921Y-78930523D01*
X141016359Y-78898147D01*
X141016350Y-78898141D01*
X140834031Y-78805244D01*
X140639417Y-78742009D01*
X140437317Y-78710000D01*
X140232683Y-78710000D01*
X140030582Y-78742009D01*
X139835968Y-78805244D01*
X139653644Y-78898143D01*
X139609077Y-78930523D01*
X139609077Y-78930524D01*
X140288554Y-79610000D01*
X140282339Y-79610000D01*
X140180606Y-79637259D01*
X140089394Y-79689920D01*
X140014920Y-79764394D01*
X139962259Y-79855606D01*
X139935000Y-79957339D01*
X139935000Y-79963553D01*
X139255524Y-79284077D01*
X139255523Y-79284077D01*
X139223143Y-79328644D01*
X139130244Y-79510968D01*
X139067009Y-79705582D01*
X139035000Y-79907682D01*
X127500500Y-79907682D01*
X127500500Y-78758676D01*
X127520185Y-78691637D01*
X127536819Y-78670995D01*
X128170995Y-78036819D01*
X128232318Y-78003334D01*
X128258676Y-78000500D01*
X161741324Y-78000500D01*
X161808363Y-78020185D01*
G37*
%TD.AperFunction*%
%TA.AperFunction,Conductor*%
G36*
X159852598Y-97429812D02*
G01*
X159896945Y-97458313D01*
X161138181Y-98699549D01*
X161171666Y-98760872D01*
X161174500Y-98787230D01*
X161174500Y-113623628D01*
X161154815Y-113690667D01*
X161102011Y-113736422D01*
X161032853Y-113746366D01*
X161007167Y-113739810D01*
X160877380Y-113691403D01*
X160877372Y-113691401D01*
X160817844Y-113685000D01*
X160270000Y-113685000D01*
X160270000Y-114619314D01*
X160265606Y-114614920D01*
X160174394Y-114562259D01*
X160072661Y-114535000D01*
X159967339Y-114535000D01*
X159865606Y-114562259D01*
X159774394Y-114614920D01*
X159770000Y-114619314D01*
X159770000Y-113685000D01*
X159222155Y-113685000D01*
X159162627Y-113691401D01*
X159162620Y-113691403D01*
X159027913Y-113741645D01*
X159027906Y-113741649D01*
X158912812Y-113827809D01*
X158912809Y-113827812D01*
X158826649Y-113942906D01*
X158826645Y-113942913D01*
X158776403Y-114077620D01*
X158776401Y-114077627D01*
X158770000Y-114137155D01*
X158770000Y-114201421D01*
X158750315Y-114268460D01*
X158697511Y-114314215D01*
X158628353Y-114324159D01*
X158564797Y-114295134D01*
X158545682Y-114274307D01*
X158541434Y-114268460D01*
X158433828Y-114120354D01*
X158294646Y-113981172D01*
X158241978Y-113942906D01*
X158131614Y-113862721D01*
X158088949Y-113807390D01*
X158080500Y-113762403D01*
X158080500Y-112950941D01*
X158080121Y-112949525D01*
X158080121Y-112949526D01*
X158078358Y-112942948D01*
X158039577Y-112798215D01*
X158010639Y-112748095D01*
X157960520Y-112661284D01*
X157848716Y-112549480D01*
X157848715Y-112549479D01*
X157844385Y-112545149D01*
X157844374Y-112545139D01*
X156697590Y-111398355D01*
X156697588Y-111398352D01*
X156578717Y-111279481D01*
X156578716Y-111279480D01*
X156491904Y-111229360D01*
X156491904Y-111229359D01*
X156491900Y-111229358D01*
X156441785Y-111200423D01*
X156289057Y-111159499D01*
X156130943Y-111159499D01*
X156123347Y-111159499D01*
X156123331Y-111159500D01*
X153091230Y-111159500D01*
X153024191Y-111139815D01*
X152978436Y-111087011D01*
X152968492Y-111017853D01*
X152997517Y-110954297D01*
X153003549Y-110947819D01*
X153463776Y-110487592D01*
X155901193Y-108050172D01*
X155962514Y-108016689D01*
X156008265Y-108015382D01*
X156103713Y-108030500D01*
X156103715Y-108030500D01*
X156316286Y-108030500D01*
X156316287Y-108030500D01*
X156526243Y-107997246D01*
X156728412Y-107931557D01*
X156917816Y-107835051D01*
X156960501Y-107804039D01*
X157089786Y-107710109D01*
X157089788Y-107710106D01*
X157089792Y-107710104D01*
X157240104Y-107559792D01*
X157240106Y-107559788D01*
X157240109Y-107559786D01*
X157365048Y-107387820D01*
X157365047Y-107387820D01*
X157365051Y-107387816D01*
X157369514Y-107379054D01*
X157417488Y-107328259D01*
X157485308Y-107311463D01*
X157551444Y-107333999D01*
X157590486Y-107379056D01*
X157594951Y-107387820D01*
X157719890Y-107559786D01*
X157870213Y-107710109D01*
X158042179Y-107835048D01*
X158042181Y-107835049D01*
X158042184Y-107835051D01*
X158231588Y-107931557D01*
X158433757Y-107997246D01*
X158643713Y-108030500D01*
X158643714Y-108030500D01*
X158856286Y-108030500D01*
X158856287Y-108030500D01*
X159066243Y-107997246D01*
X159268412Y-107931557D01*
X159457816Y-107835051D01*
X159500501Y-107804039D01*
X159629786Y-107710109D01*
X159629788Y-107710106D01*
X159629792Y-107710104D01*
X159780104Y-107559792D01*
X159780106Y-107559788D01*
X159780109Y-107559786D01*
X159905048Y-107387820D01*
X159905047Y-107387820D01*
X159905051Y-107387816D01*
X160001557Y-107198412D01*
X160067246Y-106996243D01*
X160100500Y-106786287D01*
X160100500Y-106573713D01*
X160067246Y-106363757D01*
X160001557Y-106161588D01*
X159905051Y-105972184D01*
X159905049Y-105972181D01*
X159905048Y-105972179D01*
X159780109Y-105800213D01*
X159629786Y-105649890D01*
X159457820Y-105524951D01*
X159457115Y-105524591D01*
X159449054Y-105520485D01*
X159398259Y-105472512D01*
X159381463Y-105404692D01*
X159403999Y-105338556D01*
X159449054Y-105299515D01*
X159457816Y-105295051D01*
X159479789Y-105279086D01*
X159629786Y-105170109D01*
X159629788Y-105170106D01*
X159629792Y-105170104D01*
X159780104Y-105019792D01*
X159780106Y-105019788D01*
X159780109Y-105019786D01*
X159905048Y-104847820D01*
X159905047Y-104847820D01*
X159905051Y-104847816D01*
X160001557Y-104658412D01*
X160067246Y-104456243D01*
X160100500Y-104246287D01*
X160100500Y-104033713D01*
X160067246Y-103823757D01*
X160001557Y-103621588D01*
X159905051Y-103432184D01*
X159905049Y-103432181D01*
X159905048Y-103432179D01*
X159780109Y-103260213D01*
X159629786Y-103109890D01*
X159457820Y-102984951D01*
X159457115Y-102984591D01*
X159449054Y-102980485D01*
X159398259Y-102932512D01*
X159381463Y-102864692D01*
X159403999Y-102798556D01*
X159449054Y-102759515D01*
X159457816Y-102755051D01*
X159479789Y-102739086D01*
X159629786Y-102630109D01*
X159629788Y-102630106D01*
X159629792Y-102630104D01*
X159780104Y-102479792D01*
X159780106Y-102479788D01*
X159780109Y-102479786D01*
X159905048Y-102307820D01*
X159905047Y-102307820D01*
X159905051Y-102307816D01*
X160001557Y-102118412D01*
X160067246Y-101916243D01*
X160100500Y-101706287D01*
X160100500Y-101493713D01*
X160067246Y-101283757D01*
X160001557Y-101081588D01*
X159905051Y-100892184D01*
X159905049Y-100892181D01*
X159905048Y-100892179D01*
X159780109Y-100720213D01*
X159629786Y-100569890D01*
X159457820Y-100444951D01*
X159457115Y-100444591D01*
X159449054Y-100440485D01*
X159398259Y-100392512D01*
X159381463Y-100324692D01*
X159403999Y-100258556D01*
X159449054Y-100219515D01*
X159457816Y-100215051D01*
X159516680Y-100172284D01*
X159629786Y-100090109D01*
X159629788Y-100090106D01*
X159629792Y-100090104D01*
X159780104Y-99939792D01*
X159780106Y-99939788D01*
X159780109Y-99939786D01*
X159905048Y-99767820D01*
X159905047Y-99767820D01*
X159905051Y-99767816D01*
X160001557Y-99578412D01*
X160067246Y-99376243D01*
X160100500Y-99166287D01*
X160100500Y-98953713D01*
X160067246Y-98743757D01*
X160001557Y-98541588D01*
X159905051Y-98352184D01*
X159905049Y-98352181D01*
X159905048Y-98352179D01*
X159780109Y-98180213D01*
X159629786Y-98029890D01*
X159457820Y-97904951D01*
X159457115Y-97904591D01*
X159449054Y-97900485D01*
X159398259Y-97852512D01*
X159381463Y-97784692D01*
X159403999Y-97718556D01*
X159449054Y-97679515D01*
X159457816Y-97675051D01*
X159507753Y-97638770D01*
X159629786Y-97550109D01*
X159629788Y-97550106D01*
X159629792Y-97550104D01*
X159721583Y-97458313D01*
X159782906Y-97424828D01*
X159852598Y-97429812D01*
G37*
%TD.AperFunction*%
%TA.AperFunction,Conductor*%
G36*
X150896942Y-100950185D02*
G01*
X150917584Y-100966819D01*
X153185139Y-103234374D01*
X153185149Y-103234385D01*
X153189479Y-103238715D01*
X153189480Y-103238716D01*
X153301284Y-103350520D01*
X153301286Y-103350521D01*
X153301290Y-103350524D01*
X153438209Y-103429573D01*
X153438216Y-103429577D01*
X153550019Y-103459534D01*
X153590942Y-103470500D01*
X153590943Y-103470500D01*
X154836863Y-103470500D01*
X154903902Y-103490185D01*
X154949657Y-103542989D01*
X154959601Y-103612147D01*
X154954794Y-103632818D01*
X154892753Y-103823759D01*
X154859500Y-104033713D01*
X154859500Y-104246286D01*
X154892753Y-104456240D01*
X154955448Y-104649195D01*
X154957443Y-104719036D01*
X154921363Y-104778869D01*
X154868158Y-104805027D01*
X154868793Y-104807396D01*
X154860944Y-104809499D01*
X154860943Y-104809499D01*
X154795620Y-104827002D01*
X154708214Y-104850423D01*
X154708209Y-104850426D01*
X154571290Y-104929475D01*
X154571282Y-104929481D01*
X150917584Y-108583181D01*
X150856261Y-108616666D01*
X150829903Y-108619500D01*
X145080097Y-108619500D01*
X145013058Y-108599815D01*
X144992416Y-108583181D01*
X142727590Y-106318355D01*
X142727588Y-106318352D01*
X142608717Y-106199481D01*
X142608716Y-106199480D01*
X142521904Y-106149360D01*
X142521904Y-106149359D01*
X142521900Y-106149358D01*
X142471785Y-106120423D01*
X142319057Y-106079499D01*
X142160943Y-106079499D01*
X142153347Y-106079499D01*
X142153331Y-106079500D01*
X135905719Y-106079500D01*
X135838680Y-106059815D01*
X135795235Y-106011795D01*
X135775052Y-105972185D01*
X135775051Y-105972184D01*
X135650109Y-105800213D01*
X135499786Y-105649890D01*
X135327820Y-105524951D01*
X135327115Y-105524591D01*
X135319054Y-105520485D01*
X135268259Y-105472512D01*
X135251463Y-105404692D01*
X135273999Y-105338556D01*
X135319054Y-105299515D01*
X135327816Y-105295051D01*
X135349789Y-105279086D01*
X135499786Y-105170109D01*
X135499788Y-105170106D01*
X135499792Y-105170104D01*
X135650104Y-105019792D01*
X135650106Y-105019788D01*
X135650109Y-105019786D01*
X135715723Y-104929475D01*
X135775051Y-104847816D01*
X135775349Y-104847230D01*
X135795235Y-104808205D01*
X135843209Y-104757409D01*
X135905719Y-104740500D01*
X141518331Y-104740500D01*
X141518347Y-104740501D01*
X141525943Y-104740501D01*
X141684054Y-104740501D01*
X141684057Y-104740501D01*
X141836785Y-104699577D01*
X141886904Y-104670639D01*
X141973716Y-104620520D01*
X142085520Y-104508716D01*
X142085520Y-104508714D01*
X142095728Y-104498507D01*
X142095729Y-104498504D01*
X145627417Y-100966819D01*
X145688740Y-100933334D01*
X145715098Y-100930500D01*
X150829903Y-100930500D01*
X150896942Y-100950185D01*
G37*
%TD.AperFunction*%
%TA.AperFunction,Conductor*%
G36*
X133195270Y-89661717D02*
G01*
X133195270Y-89661716D01*
X133234622Y-89607555D01*
X133239232Y-89598507D01*
X133287205Y-89547709D01*
X133355025Y-89530912D01*
X133421161Y-89553447D01*
X133460204Y-89598504D01*
X133464949Y-89607817D01*
X133589890Y-89779786D01*
X133740213Y-89930109D01*
X133912182Y-90055050D01*
X133920946Y-90059516D01*
X133971742Y-90107491D01*
X133988536Y-90175312D01*
X133965998Y-90241447D01*
X133920946Y-90280484D01*
X133912182Y-90284949D01*
X133740213Y-90409890D01*
X133589890Y-90560213D01*
X133464949Y-90732182D01*
X133460202Y-90741499D01*
X133412227Y-90792293D01*
X133344405Y-90809087D01*
X133278271Y-90786548D01*
X133239234Y-90741495D01*
X133234626Y-90732452D01*
X133195270Y-90678282D01*
X133195269Y-90678282D01*
X132562962Y-91310590D01*
X132545925Y-91247007D01*
X132480099Y-91132993D01*
X132387007Y-91039901D01*
X132272993Y-90974075D01*
X132209409Y-90957037D01*
X132841716Y-90324728D01*
X132787550Y-90285375D01*
X132777954Y-90280486D01*
X132727157Y-90232512D01*
X132710361Y-90164692D01*
X132732897Y-90098556D01*
X132777954Y-90059514D01*
X132787554Y-90054622D01*
X132841716Y-90015270D01*
X132841717Y-90015270D01*
X132209408Y-89382962D01*
X132272993Y-89365925D01*
X132387007Y-89300099D01*
X132480099Y-89207007D01*
X132545925Y-89092993D01*
X132562962Y-89029409D01*
X133195270Y-89661717D01*
G37*
%TD.AperFunction*%
%TA.AperFunction,Conductor*%
G36*
X133195270Y-87121717D02*
G01*
X133195270Y-87121716D01*
X133234622Y-87067555D01*
X133239232Y-87058507D01*
X133287205Y-87007709D01*
X133355025Y-86990912D01*
X133421161Y-87013447D01*
X133460204Y-87058504D01*
X133464949Y-87067817D01*
X133589890Y-87239786D01*
X133740213Y-87390109D01*
X133912182Y-87515050D01*
X133920946Y-87519516D01*
X133971742Y-87567491D01*
X133988536Y-87635312D01*
X133965998Y-87701447D01*
X133920946Y-87740484D01*
X133912182Y-87744949D01*
X133740213Y-87869890D01*
X133589890Y-88020213D01*
X133464949Y-88192182D01*
X133460202Y-88201499D01*
X133412227Y-88252293D01*
X133344405Y-88269087D01*
X133278271Y-88246548D01*
X133239234Y-88201495D01*
X133234626Y-88192452D01*
X133195270Y-88138282D01*
X133195269Y-88138282D01*
X132562962Y-88770590D01*
X132545925Y-88707007D01*
X132480099Y-88592993D01*
X132387007Y-88499901D01*
X132272993Y-88434075D01*
X132209409Y-88417037D01*
X132841716Y-87784728D01*
X132787550Y-87745375D01*
X132777954Y-87740486D01*
X132727157Y-87692512D01*
X132710361Y-87624692D01*
X132732897Y-87558556D01*
X132777954Y-87519514D01*
X132787554Y-87514622D01*
X132841716Y-87475270D01*
X132841717Y-87475270D01*
X132209408Y-86842962D01*
X132272993Y-86825925D01*
X132387007Y-86760099D01*
X132480099Y-86667007D01*
X132545925Y-86552993D01*
X132562962Y-86489409D01*
X133195270Y-87121717D01*
G37*
%TD.AperFunction*%
%TA.AperFunction,Conductor*%
G36*
X133541014Y-84656323D02*
G01*
X133585977Y-84694399D01*
X133589890Y-84699785D01*
X133589894Y-84699790D01*
X133740213Y-84850109D01*
X133912182Y-84975050D01*
X133920946Y-84979516D01*
X133971742Y-85027491D01*
X133988536Y-85095312D01*
X133965998Y-85161447D01*
X133920946Y-85200484D01*
X133912182Y-85204949D01*
X133740213Y-85329890D01*
X133589890Y-85480213D01*
X133464949Y-85652182D01*
X133460202Y-85661499D01*
X133412227Y-85712293D01*
X133344405Y-85729087D01*
X133278271Y-85706548D01*
X133239234Y-85661495D01*
X133234626Y-85652452D01*
X133195270Y-85598282D01*
X133195269Y-85598282D01*
X132562962Y-86230590D01*
X132545925Y-86167007D01*
X132480099Y-86052993D01*
X132387007Y-85959901D01*
X132272993Y-85894075D01*
X132209409Y-85877037D01*
X132845701Y-85240743D01*
X132856937Y-85187254D01*
X132905988Y-85137496D01*
X132927188Y-85128194D01*
X132999119Y-85104358D01*
X132999124Y-85104356D01*
X133148345Y-85012315D01*
X133272315Y-84888345D01*
X133364356Y-84739124D01*
X133364359Y-84739117D01*
X133367951Y-84728278D01*
X133407723Y-84670833D01*
X133472238Y-84644009D01*
X133541014Y-84656323D01*
G37*
%TD.AperFunction*%
%TD*%
M02*
